<svg width="40" height="40" viewBox="0 0 40 40" fill="none" xmlns="http://www.w3.org/2000/svg">
<circle opacity="0.1" cx="20" cy="20" r="20" fill="#CB11AB"/>
<path d="M19.9636 27.1989C18.903 27.1989 17.9584 27.0166 17.1298 26.652C16.3059 26.2827 15.6549 25.776 15.1767 25.1321C14.7032 24.4834 14.4593 23.7353 14.4451 22.8878H17.5417C17.5607 23.2429 17.6767 23.5554 17.8897 23.8253C18.1075 24.0904 18.3964 24.2964 18.7562 24.4432C19.1161 24.59 19.5209 24.6634 19.9707 24.6634C20.4395 24.6634 20.8538 24.5805 21.2136 24.4148C21.5734 24.2491 21.8552 24.0194 22.0588 23.7259C22.2624 23.4323 22.3642 23.0937 22.3642 22.7102C22.3642 22.322 22.2553 21.9787 22.0375 21.6804C21.8244 21.3774 21.5166 21.1406 21.1142 20.9702C20.7164 20.7997 20.243 20.7145 19.6937 20.7145H18.3372V18.456H19.6937C20.1577 18.456 20.5673 18.3755 20.9224 18.2145C21.2823 18.0535 21.5616 17.831 21.7605 17.5469C21.9593 17.258 22.0588 16.9219 22.0588 16.5384C22.0588 16.1738 21.9712 15.8542 21.796 15.5795C21.6255 15.3002 21.3841 15.0824 21.0716 14.9261C20.7638 14.7699 20.4039 14.6918 19.992 14.6918C19.5753 14.6918 19.1942 14.7675 18.8485 14.919C18.5029 15.0658 18.2259 15.2765 18.0176 15.5511C17.8092 15.8258 17.698 16.1477 17.6838 16.517H14.7363C14.7505 15.679 14.9896 14.9403 15.4537 14.3011C15.9177 13.6619 16.5427 13.1624 17.3287 12.8026C18.1194 12.438 19.0119 12.2557 20.0062 12.2557C21.01 12.2557 21.8883 12.438 22.6412 12.8026C23.394 13.1671 23.9788 13.6596 24.3954 14.2798C24.8168 14.8954 25.0252 15.5866 25.0204 16.3537C25.0252 17.1681 24.7718 17.8475 24.2605 18.392C23.7538 18.9366 23.0933 19.2822 22.2789 19.429V19.5426C23.349 19.6799 24.1634 20.0516 24.7221 20.6577C25.2856 21.259 25.5649 22.0118 25.5602 22.9162C25.5649 23.7448 25.3258 24.4811 24.8429 25.125C24.3646 25.7689 23.7041 26.2756 22.8613 26.6449C22.0185 27.0142 21.0526 27.1989 19.9636 27.1989Z" fill="#CB11AB"/>
</svg>
