<svg width="40" height="40" viewBox="0 0 40 40" fill="none" xmlns="http://www.w3.org/2000/svg">
<circle opacity="0.1" cx="20" cy="20" r="20" fill="#CB11AB"/>
<path d="M20.0462 27.1989C19.0424 27.1989 18.1475 27.0142 17.3615 26.6449C16.5803 26.2756 15.96 25.7666 15.5007 25.1179C15.0414 24.4692 14.8023 23.7259 14.7834 22.8878H17.7663C17.7995 23.4512 18.0362 23.9081 18.4766 24.2585C18.9169 24.6089 19.4401 24.7841 20.0462 24.7841C20.5291 24.7841 20.9553 24.6776 21.3246 24.4645C21.6986 24.2467 21.9898 23.946 22.1982 23.5625C22.4112 23.1742 22.5178 22.7292 22.5178 22.2273C22.5178 21.7159 22.4089 21.2661 22.1911 20.8778C21.978 20.4896 21.6821 20.1866 21.3033 19.9688C20.9245 19.7509 20.4912 19.6397 20.0036 19.6349C19.5774 19.6349 19.1631 19.7225 18.7607 19.8977C18.3629 20.0729 18.0528 20.312 17.8303 20.6151L15.0959 20.125L15.7848 12.4545H24.6768V14.9688H18.3203L17.9439 18.6122H18.0291C18.2848 18.2524 18.6707 17.9541 19.1868 17.7173C19.7029 17.4806 20.2805 17.3622 20.9197 17.3622C21.7957 17.3622 22.5769 17.5682 23.2635 17.9801C23.95 18.392 24.4922 18.9579 24.8899 19.6776C25.2876 20.3925 25.4841 21.2164 25.4794 22.1491C25.4841 23.1293 25.2569 24.0005 24.7976 24.7628C24.343 25.5204 23.7062 26.117 22.8871 26.5526C22.0727 26.9834 21.1257 27.1989 20.0462 27.1989Z" fill="#CB11AB"/>
</svg>
