<svg width="222" height="192" viewBox="0 0 222 192" fill="none" xmlns="http://www.w3.org/2000/svg">
<path d="M0 4C0 1.79086 1.79086 0 4 0H218C220.209 0 222 1.79086 222 4V188C222 190.209 220.209 192 218 192H4C1.79086 192 0 190.209 0 188V4Z" fill="white"/>
<path d="M132.043 89.168H82.293C80.363 89.168 78.793 87.598 78.793 85.668V56.335C78.793 54.405 80.363 52.835 82.293 52.835H132.043C133.974 52.835 135.543 54.405 135.543 56.335V85.668C135.543 87.598 133.974 89.168 132.043 89.168ZM82.293 53.835C81.6302 53.8358 80.9947 54.0994 80.5261 54.5681C80.0574 55.0367 79.7938 55.6722 79.793 56.335V85.668C79.793 87.046 80.914 88.168 82.293 88.168H132.043C133.422 88.168 134.543 87.046 134.543 85.668V56.335C134.543 54.957 133.422 53.835 132.043 53.835H82.293Z" fill="#CB11AB"/>
<path d="M139.709 82.168H135.126C134.993 82.168 134.866 82.1153 134.772 82.0215C134.679 81.9277 134.626 81.8006 134.626 81.668C134.626 81.5354 134.679 81.4082 134.772 81.3144C134.866 81.2206 134.993 81.168 135.126 81.168H139.709C141.088 81.168 142.209 80.046 142.209 78.668V49.335C142.209 47.957 141.088 46.835 139.709 46.835H89.959C89.2962 46.8358 88.6608 47.0994 88.1921 47.5681C87.7234 48.0367 87.4598 48.6722 87.459 49.335V53.168C87.459 53.3006 87.4063 53.4277 87.3125 53.5215C87.2188 53.6153 87.0916 53.668 86.959 53.668C86.8264 53.668 86.6992 53.6153 86.6054 53.5215C86.5117 53.4277 86.459 53.3006 86.459 53.168V49.335C86.459 47.405 88.029 45.835 89.959 45.835H139.709C141.639 45.835 143.209 47.405 143.209 49.335V78.668C143.209 80.598 141.639 82.168 139.709 82.168Z" fill="#CB11AB"/>
<path d="M134.499 72.752H79.707C79.5744 72.752 79.4472 72.6993 79.3535 72.6055C79.2597 72.5117 79.207 72.3846 79.207 72.252C79.207 72.1193 79.2597 71.9922 79.3535 71.8984C79.4472 71.8046 79.5744 71.752 79.707 71.752H134.499C134.774 71.752 134.999 71.977 134.999 72.252C134.999 72.527 134.774 72.752 134.499 72.752ZM134.499 81.252H79.707C79.5744 81.252 79.4472 81.1993 79.3535 81.1055C79.2597 81.0117 79.207 80.8846 79.207 80.752C79.207 80.6193 79.2597 80.4922 79.3535 80.3984C79.4472 80.3046 79.5744 80.252 79.707 80.252H134.499C134.774 80.252 134.999 80.477 134.999 80.752C134.999 81.027 134.774 81.252 134.499 81.252ZM117.499 68.252C116.107 68.2504 114.773 67.6967 113.788 66.7125C112.804 65.7283 112.251 64.3939 112.249 63.002C112.249 60.107 114.604 57.752 117.499 57.752C120.394 57.752 122.749 60.107 122.749 63.002C122.747 64.3939 122.194 65.7283 121.21 66.7125C120.225 67.6967 118.891 68.2504 117.499 68.252ZM117.499 58.752C115.155 58.752 113.249 60.659 113.249 63.002C113.249 65.345 115.155 67.252 117.499 67.252C119.843 67.252 121.749 65.345 121.749 63.002C121.749 60.659 119.843 58.752 117.499 58.752Z" fill="#CB11AB"/>
<path d="M124.499 68.252C123.785 68.2547 123.078 68.1106 122.422 67.8286C121.767 67.5467 121.176 67.1329 120.686 66.613C120.595 66.5167 120.546 66.3881 120.549 66.2554C120.552 66.1227 120.609 65.9969 120.705 65.9055C120.801 65.8141 120.93 65.7647 121.062 65.7682C121.195 65.7717 121.321 65.8277 121.412 65.924C121.808 66.3452 122.287 66.6804 122.818 66.9089C123.349 67.1373 123.921 67.2541 124.499 67.252C126.843 67.252 128.749 65.345 128.749 63.002C128.749 60.659 126.843 58.752 124.499 58.752C123.924 58.7494 123.355 58.8648 122.826 59.091C122.298 59.3171 121.821 59.6493 121.426 60.067C121.335 60.1631 121.209 60.219 121.076 60.2223C120.943 60.2256 120.815 60.176 120.719 60.0845C120.623 59.993 120.567 59.867 120.563 59.7344C120.56 59.6017 120.61 59.4731 120.701 59.377C121.19 58.8612 121.779 58.451 122.432 58.1715C123.085 57.892 123.789 57.7493 124.499 57.752C125.891 57.7536 127.226 58.3072 128.21 59.2914C129.194 60.2757 129.748 61.6101 129.749 63.002C129.748 64.3939 129.194 65.7283 128.21 66.7125C127.226 67.6968 125.891 68.2504 124.499 68.252Z" fill="#CB11AB"/>
<path d="M63.8523 130.182C63.8523 131.409 63.6307 132.47 63.1875 133.364C62.7443 134.258 62.1364 134.947 61.3636 135.432C60.5909 135.917 59.7083 136.159 58.7159 136.159C57.7235 136.159 56.8409 135.917 56.0682 135.432C55.2955 134.947 54.6875 134.258 54.2443 133.364C53.8011 132.47 53.5795 131.409 53.5795 130.182C53.5795 128.955 53.8011 127.894 54.2443 127C54.6875 126.106 55.2955 125.417 56.0682 124.932C56.8409 124.447 57.7235 124.205 58.7159 124.205C59.7083 124.205 60.5909 124.447 61.3636 124.932C62.1364 125.417 62.7443 126.106 63.1875 127C63.6307 127.894 63.8523 128.955 63.8523 130.182ZM62.4886 130.182C62.4886 129.174 62.3201 128.324 61.983 127.631C61.6496 126.938 61.197 126.413 60.625 126.057C60.0568 125.701 59.4205 125.523 58.7159 125.523C58.0114 125.523 57.3731 125.701 56.8011 126.057C56.233 126.413 55.7803 126.938 55.4432 127.631C55.1098 128.324 54.9432 129.174 54.9432 130.182C54.9432 131.189 55.1098 132.04 55.4432 132.733C55.7803 133.426 56.233 133.951 56.8011 134.307C57.3731 134.663 58.0114 134.841 58.7159 134.841C59.4205 134.841 60.0568 134.663 60.625 134.307C61.197 133.951 61.6496 133.426 61.983 132.733C62.3201 132.04 62.4886 131.189 62.4886 130.182ZM66.0398 136V127.273H72.9034V136H71.5625V128.523H67.3807V136H66.0398ZM74.5795 136V134.75H74.8977C75.1591 134.75 75.3769 134.699 75.5511 134.597C75.7254 134.491 75.8655 134.307 75.9716 134.045C76.0814 133.78 76.1648 133.413 76.2216 132.943C76.2822 132.47 76.3258 131.867 76.3523 131.136L76.5114 127.273H82.3295V136H80.9886V128.523H77.7841L77.6477 131.636C77.6174 132.352 77.553 132.983 77.4545 133.528C77.3598 134.07 77.214 134.525 77.017 134.892C76.8239 135.259 76.5663 135.536 76.2443 135.722C75.9223 135.907 75.5189 136 75.0341 136H74.5795ZM87.358 136.205C86.8049 136.205 86.303 136.1 85.8523 135.892C85.4015 135.68 85.0436 135.375 84.7784 134.977C84.5133 134.576 84.3807 134.091 84.3807 133.523C84.3807 133.023 84.4792 132.617 84.6761 132.307C84.8731 131.992 85.1364 131.746 85.4659 131.568C85.7955 131.39 86.1591 131.258 86.5568 131.17C86.9583 131.08 87.3617 131.008 87.767 130.955C88.2973 130.886 88.7273 130.835 89.0568 130.801C89.3902 130.763 89.6326 130.701 89.7841 130.614C89.9394 130.527 90.017 130.375 90.017 130.159V130.114C90.017 129.553 89.8636 129.117 89.5568 128.807C89.2538 128.496 88.7936 128.341 88.1761 128.341C87.536 128.341 87.0341 128.481 86.6705 128.761C86.3068 129.042 86.0511 129.341 85.9034 129.659L84.6307 129.205C84.858 128.674 85.161 128.261 85.5398 127.966C85.9223 127.667 86.339 127.458 86.7898 127.341C87.2443 127.22 87.6913 127.159 88.1307 127.159C88.411 127.159 88.733 127.193 89.0966 127.261C89.464 127.326 89.8182 127.46 90.1591 127.665C90.5038 127.869 90.7898 128.178 91.017 128.591C91.2443 129.004 91.358 129.557 91.358 130.25V136H90.017V134.818H89.9489C89.858 135.008 89.7064 135.21 89.4943 135.426C89.2822 135.642 89 135.826 88.6477 135.977C88.2955 136.129 87.8655 136.205 87.358 136.205ZM87.5625 135C88.0928 135 88.5398 134.896 88.9034 134.688C89.2708 134.479 89.5473 134.21 89.733 133.881C89.9223 133.551 90.017 133.205 90.017 132.841V131.614C89.9602 131.682 89.8352 131.744 89.642 131.801C89.4527 131.854 89.233 131.902 88.983 131.943C88.7367 131.981 88.4962 132.015 88.2614 132.045C88.0303 132.072 87.8428 132.095 87.6989 132.114C87.3504 132.159 87.0246 132.233 86.7216 132.335C86.4223 132.434 86.1799 132.583 85.9943 132.784C85.8125 132.981 85.7216 133.25 85.7216 133.591C85.7216 134.057 85.8939 134.409 86.2386 134.648C86.5871 134.883 87.0284 135 87.5625 135ZM92.6179 128.523V127.273H99.7088V128.523H96.8452V136H95.5043V128.523H92.6179ZM103.78 136.205C103.227 136.205 102.725 136.1 102.274 135.892C101.823 135.68 101.465 135.375 101.2 134.977C100.935 134.576 100.803 134.091 100.803 133.523C100.803 133.023 100.901 132.617 101.098 132.307C101.295 131.992 101.558 131.746 101.888 131.568C102.217 131.39 102.581 131.258 102.979 131.17C103.38 131.08 103.784 131.008 104.189 130.955C104.719 130.886 105.149 130.835 105.479 130.801C105.812 130.763 106.054 130.701 106.206 130.614C106.361 130.527 106.439 130.375 106.439 130.159V130.114C106.439 129.553 106.286 129.117 105.979 128.807C105.676 128.496 105.215 128.341 104.598 128.341C103.958 128.341 103.456 128.481 103.092 128.761C102.729 129.042 102.473 129.341 102.325 129.659L101.053 129.205C101.28 128.674 101.583 128.261 101.962 127.966C102.344 127.667 102.761 127.458 103.212 127.341C103.666 127.22 104.113 127.159 104.553 127.159C104.833 127.159 105.155 127.193 105.518 127.261C105.886 127.326 106.24 127.46 106.581 127.665C106.926 127.869 107.212 128.178 107.439 128.591C107.666 129.004 107.78 129.557 107.78 130.25V136H106.439V134.818H106.371C106.28 135.008 106.128 135.21 105.916 135.426C105.704 135.642 105.422 135.826 105.07 135.977C104.717 136.129 104.287 136.205 103.78 136.205ZM103.984 135C104.515 135 104.962 134.896 105.325 134.688C105.693 134.479 105.969 134.21 106.155 133.881C106.344 133.551 106.439 133.205 106.439 132.841V131.614C106.382 131.682 106.257 131.744 106.064 131.801C105.875 131.854 105.655 131.902 105.405 131.943C105.159 131.981 104.918 132.015 104.683 132.045C104.452 132.072 104.265 132.095 104.121 132.114C103.772 132.159 103.446 132.233 103.143 132.335C102.844 132.434 102.602 132.583 102.416 132.784C102.234 132.981 102.143 133.25 102.143 133.591C102.143 134.057 102.316 134.409 102.661 134.648C103.009 134.883 103.45 135 103.984 135ZM113.955 136V134.75H114.273C114.534 134.75 114.752 134.699 114.926 134.597C115.1 134.491 115.241 134.307 115.347 134.045C115.456 133.78 115.54 133.413 115.597 132.943C115.657 132.47 115.701 131.867 115.727 131.136L115.886 127.273H121.705V136H120.364V128.523H117.159L117.023 131.636C116.992 132.352 116.928 132.983 116.83 133.528C116.735 134.07 116.589 134.525 116.392 134.892C116.199 135.259 115.941 135.536 115.619 135.722C115.297 135.907 114.894 136 114.409 136H113.955ZM128.347 131.091V132.341H123.733V131.091H128.347ZM124.869 127.273V136H123.528V127.273H124.869ZM131.028 136.182C130.241 136.182 129.549 135.994 128.955 135.619C128.364 135.244 127.902 134.72 127.568 134.045C127.239 133.371 127.074 132.583 127.074 131.682C127.074 130.773 127.239 129.979 127.568 129.301C127.902 128.623 128.364 128.097 128.955 127.722C129.549 127.347 130.241 127.159 131.028 127.159C131.816 127.159 132.506 127.347 133.097 127.722C133.691 128.097 134.153 128.623 134.483 129.301C134.816 129.979 134.983 130.773 134.983 131.682C134.983 132.583 134.816 133.371 134.483 134.045C134.153 134.72 133.691 135.244 133.097 135.619C132.506 135.994 131.816 136.182 131.028 136.182ZM131.028 134.977C131.627 134.977 132.119 134.824 132.506 134.517C132.892 134.21 133.178 133.807 133.364 133.307C133.549 132.807 133.642 132.265 133.642 131.682C133.642 131.098 133.549 130.555 133.364 130.051C133.178 129.547 132.892 129.14 132.506 128.83C132.119 128.519 131.627 128.364 131.028 128.364C130.43 128.364 129.938 128.519 129.551 128.83C129.165 129.14 128.879 129.547 128.693 130.051C128.508 130.555 128.415 131.098 128.415 131.682C128.415 132.265 128.508 132.807 128.693 133.307C128.879 133.807 129.165 134.21 129.551 134.517C129.938 134.824 130.43 134.977 131.028 134.977ZM143.642 124L144.324 124.818C144.059 125.076 143.752 125.256 143.403 125.358C143.055 125.46 142.661 125.523 142.222 125.545C141.782 125.568 141.294 125.591 140.756 125.614C140.15 125.636 139.648 125.784 139.25 126.057C138.852 126.33 138.545 126.723 138.33 127.239C138.114 127.754 137.975 128.386 137.915 129.136H138.028C138.324 128.591 138.733 128.189 139.256 127.932C139.778 127.674 140.339 127.545 140.938 127.545C141.619 127.545 142.233 127.705 142.778 128.023C143.324 128.341 143.756 128.812 144.074 129.438C144.392 130.062 144.551 130.833 144.551 131.75C144.551 132.663 144.388 133.451 144.062 134.114C143.741 134.777 143.288 135.288 142.705 135.648C142.125 136.004 141.445 136.182 140.665 136.182C139.884 136.182 139.201 135.998 138.614 135.631C138.027 135.259 137.57 134.71 137.244 133.983C136.919 133.252 136.756 132.348 136.756 131.273V130.341C136.756 128.398 137.085 126.924 137.744 125.92C138.407 124.917 139.403 124.398 140.733 124.364C141.203 124.348 141.621 124.345 141.989 124.352C142.356 124.36 142.676 124.343 142.949 124.301C143.222 124.259 143.453 124.159 143.642 124ZM140.665 134.977C141.191 134.977 141.644 134.845 142.023 134.58C142.405 134.314 142.699 133.941 142.903 133.46C143.108 132.975 143.21 132.405 143.21 131.75C143.21 131.114 143.106 130.572 142.898 130.125C142.693 129.678 142.4 129.337 142.017 129.102C141.634 128.867 141.176 128.75 140.642 128.75C140.252 128.75 139.902 128.816 139.591 128.949C139.28 129.081 139.015 129.277 138.795 129.534C138.576 129.792 138.405 130.106 138.284 130.477C138.167 130.848 138.104 131.273 138.097 131.75C138.097 132.727 138.326 133.509 138.784 134.097C139.242 134.684 139.869 134.977 140.665 134.977ZM147.761 130.432H150.261C151.284 130.432 152.066 130.691 152.608 131.21C153.15 131.729 153.42 132.386 153.42 133.182C153.42 133.705 153.299 134.18 153.057 134.608C152.814 135.032 152.458 135.371 151.989 135.625C151.519 135.875 150.943 136 150.261 136H146.602V127.273H147.943V134.75H150.261C150.792 134.75 151.227 134.61 151.568 134.33C151.909 134.049 152.08 133.689 152.08 133.25C152.08 132.788 151.909 132.411 151.568 132.119C151.227 131.828 150.792 131.682 150.261 131.682H147.761V130.432ZM154.807 136V127.273H156.148V136H154.807ZM163.375 134.182L166.42 127.273H167.693L163.92 136H162.83L159.125 127.273H160.375L163.375 134.182ZM159.943 127.273V136H158.602V127.273H159.943ZM166.807 136V127.273H168.148V136H166.807ZM36.9815 160.273C36.7543 160.273 36.5516 160.254 36.3736 160.216C36.1955 160.182 36.0724 160.148 36.0043 160.114L36.3452 158.932C36.6709 159.015 36.9588 159.045 37.2088 159.023C37.4588 159 37.6804 158.888 37.8736 158.688C38.0705 158.491 38.2505 158.17 38.4134 157.727L38.6634 157.045L35.4361 148.273H36.8906L39.2997 155.227H39.3906L41.7997 148.273H43.2543L39.5497 158.273C39.383 158.723 39.1766 159.097 38.9304 159.392C38.6842 159.691 38.3982 159.913 38.0724 160.057C37.7505 160.201 37.3868 160.273 36.9815 160.273ZM43.358 159.5V155.75H44.0852C44.2633 155.564 44.4167 155.364 44.5455 155.148C44.6742 154.932 44.786 154.676 44.8807 154.381C44.9792 154.081 45.0625 153.718 45.1307 153.29C45.1989 152.858 45.2595 152.337 45.3125 151.727L45.608 148.273H51.1534V155.75H52.4943V159.5H51.1534V157H44.6989V159.5H43.358ZM45.608 155.75H49.8125V149.523H46.858L46.6307 151.727C46.536 152.64 46.4186 153.437 46.2784 154.119C46.1383 154.801 45.9148 155.345 45.608 155.75ZM57.8196 157.182C57.0317 157.182 56.3404 156.994 55.7457 156.619C55.1548 156.244 54.6927 155.72 54.3594 155.045C54.0298 154.371 53.8651 153.583 53.8651 152.682C53.8651 151.773 54.0298 150.979 54.3594 150.301C54.6927 149.623 55.1548 149.097 55.7457 148.722C56.3404 148.347 57.0317 148.159 57.8196 148.159C58.6075 148.159 59.2969 148.347 59.8878 148.722C60.4825 149.097 60.9446 149.623 61.2741 150.301C61.6075 150.979 61.7741 151.773 61.7741 152.682C61.7741 153.583 61.6075 154.371 61.2741 155.045C60.9446 155.72 60.4825 156.244 59.8878 156.619C59.2969 156.994 58.6075 157.182 57.8196 157.182ZM57.8196 155.977C58.4181 155.977 58.9105 155.824 59.2969 155.517C59.6832 155.21 59.9692 154.807 60.1548 154.307C60.3404 153.807 60.4332 153.265 60.4332 152.682C60.4332 152.098 60.3404 151.555 60.1548 151.051C59.9692 150.547 59.6832 150.14 59.2969 149.83C58.9105 149.519 58.4181 149.364 57.8196 149.364C57.2211 149.364 56.7287 149.519 56.3423 149.83C55.956 150.14 55.67 150.547 55.4844 151.051C55.2988 151.555 55.206 152.098 55.206 152.682C55.206 153.265 55.2988 153.807 55.4844 154.307C55.67 154.807 55.956 155.21 56.3423 155.517C56.7287 155.824 57.2211 155.977 57.8196 155.977ZM70.2983 145L70.9801 145.818C70.715 146.076 70.4081 146.256 70.0597 146.358C69.7112 146.46 69.3172 146.523 68.8778 146.545C68.4384 146.568 67.9498 146.591 67.4119 146.614C66.8059 146.636 66.304 146.784 65.9062 147.057C65.5085 147.33 65.2017 147.723 64.9858 148.239C64.7699 148.754 64.6316 149.386 64.571 150.136H64.6847C64.9801 149.591 65.3892 149.189 65.9119 148.932C66.4347 148.674 66.9953 148.545 67.5938 148.545C68.2756 148.545 68.8892 148.705 69.4347 149.023C69.9801 149.341 70.4119 149.812 70.7301 150.438C71.0483 151.062 71.2074 151.833 71.2074 152.75C71.2074 153.663 71.0445 154.451 70.7188 155.114C70.3968 155.777 69.9441 156.288 69.3608 156.648C68.7813 157.004 68.1013 157.182 67.321 157.182C66.5407 157.182 65.857 156.998 65.2699 156.631C64.6828 156.259 64.2263 155.71 63.9006 154.983C63.5748 154.252 63.4119 153.348 63.4119 152.273V151.341C63.4119 149.398 63.7415 147.924 64.4006 146.92C65.0634 145.917 66.0597 145.398 67.3892 145.364C67.8589 145.348 68.2775 145.345 68.6449 145.352C69.0123 145.36 69.3324 145.343 69.6051 145.301C69.8778 145.259 70.1089 145.159 70.2983 145ZM67.321 155.977C67.8475 155.977 68.3002 155.845 68.679 155.58C69.0616 155.314 69.3551 154.941 69.5597 154.46C69.7642 153.975 69.8665 153.405 69.8665 152.75C69.8665 152.114 69.7623 151.572 69.554 151.125C69.3494 150.678 69.0559 150.337 68.6733 150.102C68.2907 149.867 67.8324 149.75 67.2983 149.75C66.9081 149.75 66.5578 149.816 66.2472 149.949C65.9366 150.081 65.6714 150.277 65.4517 150.534C65.232 150.792 65.0616 151.106 64.9403 151.477C64.8229 151.848 64.7604 152.273 64.7528 152.75C64.7528 153.727 64.982 154.509 65.4403 155.097C65.8987 155.684 66.5256 155.977 67.321 155.977ZM79.0994 152.023V153.273H74.2812V152.023H79.0994ZM74.5994 148.273V157H73.2585V148.273H74.5994ZM80.1222 148.273V157H78.7812V148.273H80.1222ZM83.7301 151.432H86.2301C87.2528 151.432 88.035 151.691 88.5767 152.21C89.1184 152.729 89.3892 153.386 89.3892 154.182C89.3892 154.705 89.268 155.18 89.0256 155.608C88.7831 156.032 88.4271 156.371 87.9574 156.625C87.4877 156.875 86.9119 157 86.2301 157H82.571V148.273H83.9119V155.75H86.2301C86.7604 155.75 87.196 155.61 87.5369 155.33C87.8778 155.049 88.0483 154.689 88.0483 154.25C88.0483 153.788 87.8778 153.411 87.5369 153.119C87.196 152.828 86.7604 152.682 86.2301 152.682H83.7301V151.432ZM90.7756 157V148.273H92.1165V157H90.7756ZM99.3438 155.182L102.389 148.273H103.662L99.8892 157H98.7983L95.0938 148.273H96.3438L99.3438 155.182ZM95.9119 148.273V157H94.571V148.273H95.9119ZM102.776 157V148.273H104.116V157H102.776ZM114.616 157.182C113.798 157.182 113.094 156.989 112.503 156.602C111.912 156.216 111.457 155.684 111.139 155.006C110.821 154.328 110.662 153.553 110.662 152.682C110.662 151.795 110.825 151.013 111.151 150.335C111.48 149.653 111.938 149.121 112.526 148.739C113.116 148.352 113.806 148.159 114.594 148.159C115.207 148.159 115.76 148.273 116.253 148.5C116.745 148.727 117.149 149.045 117.463 149.455C117.777 149.864 117.973 150.341 118.048 150.886H116.707C116.605 150.489 116.378 150.136 116.026 149.83C115.677 149.519 115.207 149.364 114.616 149.364C114.094 149.364 113.635 149.5 113.241 149.773C112.851 150.042 112.546 150.422 112.327 150.915C112.111 151.403 112.003 151.977 112.003 152.636C112.003 153.311 112.109 153.898 112.321 154.398C112.537 154.898 112.84 155.286 113.23 155.562C113.624 155.839 114.086 155.977 114.616 155.977C114.965 155.977 115.281 155.917 115.565 155.795C115.849 155.674 116.09 155.5 116.287 155.273C116.484 155.045 116.624 154.773 116.707 154.455H118.048C117.973 154.97 117.785 155.434 117.486 155.847C117.19 156.256 116.798 156.581 116.31 156.824C115.825 157.062 115.26 157.182 114.616 157.182ZM120.009 157V148.273H126.872V157H125.531V149.523H121.349V157H120.009ZM132.866 157.182C132.079 157.182 131.387 156.994 130.793 156.619C130.202 156.244 129.74 155.72 129.406 155.045C129.077 154.371 128.912 153.583 128.912 152.682C128.912 151.773 129.077 150.979 129.406 150.301C129.74 149.623 130.202 149.097 130.793 148.722C131.387 148.347 132.079 148.159 132.866 148.159C133.654 148.159 134.344 148.347 134.935 148.722C135.529 149.097 135.991 149.623 136.321 150.301C136.654 150.979 136.821 151.773 136.821 152.682C136.821 153.583 136.654 154.371 136.321 155.045C135.991 155.72 135.529 156.244 134.935 156.619C134.344 156.994 133.654 157.182 132.866 157.182ZM132.866 155.977C133.465 155.977 133.957 155.824 134.344 155.517C134.73 155.21 135.016 154.807 135.202 154.307C135.387 153.807 135.48 153.265 135.48 152.682C135.48 152.098 135.387 151.555 135.202 151.051C135.016 150.547 134.73 150.14 134.344 149.83C133.957 149.519 133.465 149.364 132.866 149.364C132.268 149.364 131.776 149.519 131.389 149.83C131.003 150.14 130.717 150.547 130.531 151.051C130.346 151.555 130.253 152.098 130.253 152.682C130.253 153.265 130.346 153.807 130.531 154.307C130.717 154.807 131.003 155.21 131.389 155.517C131.776 155.824 132.268 155.977 132.866 155.977ZM142.413 157.182C141.595 157.182 140.891 156.989 140.3 156.602C139.709 156.216 139.254 155.684 138.936 155.006C138.618 154.328 138.459 153.553 138.459 152.682C138.459 151.795 138.622 151.013 138.947 150.335C139.277 149.653 139.735 149.121 140.322 148.739C140.913 148.352 141.603 148.159 142.391 148.159C143.004 148.159 143.557 148.273 144.05 148.5C144.542 148.727 144.946 149.045 145.26 149.455C145.574 149.864 145.769 150.341 145.845 150.886H144.504C144.402 150.489 144.175 150.136 143.822 149.83C143.474 149.519 143.004 149.364 142.413 149.364C141.891 149.364 141.432 149.5 141.038 149.773C140.648 150.042 140.343 150.422 140.124 150.915C139.908 151.403 139.8 151.977 139.8 152.636C139.8 153.311 139.906 153.898 140.118 154.398C140.334 154.898 140.637 155.286 141.027 155.562C141.421 155.839 141.883 155.977 142.413 155.977C142.762 155.977 143.078 155.917 143.362 155.795C143.646 155.674 143.887 155.5 144.084 155.273C144.281 155.045 144.421 154.773 144.504 154.455H145.845C145.769 154.97 145.582 155.434 145.283 155.847C144.987 156.256 144.595 156.581 144.107 156.824C143.622 157.062 143.057 157.182 142.413 157.182ZM151.351 157.182C150.563 157.182 149.872 156.994 149.277 156.619C148.686 156.244 148.224 155.72 147.891 155.045C147.561 154.371 147.396 153.583 147.396 152.682C147.396 151.773 147.561 150.979 147.891 150.301C148.224 149.623 148.686 149.097 149.277 148.722C149.872 148.347 150.563 148.159 151.351 148.159C152.139 148.159 152.828 148.347 153.419 148.722C154.014 149.097 154.476 149.623 154.805 150.301C155.139 150.979 155.305 151.773 155.305 152.682C155.305 153.583 155.139 154.371 154.805 155.045C154.476 155.72 154.014 156.244 153.419 156.619C152.828 156.994 152.139 157.182 151.351 157.182ZM151.351 155.977C151.949 155.977 152.442 155.824 152.828 155.517C153.214 155.21 153.5 154.807 153.686 154.307C153.872 153.807 153.964 153.265 153.964 152.682C153.964 152.098 153.872 151.555 153.686 151.051C153.5 150.547 153.214 150.14 152.828 149.83C152.442 149.519 151.949 149.364 151.351 149.364C150.752 149.364 150.26 149.519 149.874 149.83C149.487 150.14 149.201 150.547 149.016 151.051C148.83 151.555 148.737 152.098 148.737 152.682C148.737 153.265 148.83 153.807 149.016 154.307C149.201 154.807 149.487 155.21 149.874 155.517C150.26 155.824 150.752 155.977 151.351 155.977ZM163.83 145L164.511 145.818C164.246 146.076 163.939 146.256 163.591 146.358C163.242 146.46 162.848 146.523 162.409 146.545C161.97 146.568 161.481 146.591 160.943 146.614C160.337 146.636 159.835 146.784 159.438 147.057C159.04 147.33 158.733 147.723 158.517 148.239C158.301 148.754 158.163 149.386 158.102 150.136H158.216C158.511 149.591 158.92 149.189 159.443 148.932C159.966 148.674 160.527 148.545 161.125 148.545C161.807 148.545 162.42 148.705 162.966 149.023C163.511 149.341 163.943 149.812 164.261 150.438C164.58 151.062 164.739 151.833 164.739 152.75C164.739 153.663 164.576 154.451 164.25 155.114C163.928 155.777 163.475 156.288 162.892 156.648C162.313 157.004 161.633 157.182 160.852 157.182C160.072 157.182 159.388 156.998 158.801 156.631C158.214 156.259 157.758 155.71 157.432 154.983C157.106 154.252 156.943 153.348 156.943 152.273V151.341C156.943 149.398 157.273 147.924 157.932 146.92C158.595 145.917 159.591 145.398 160.92 145.364C161.39 145.348 161.809 145.345 162.176 145.352C162.544 145.36 162.864 145.343 163.136 145.301C163.409 145.259 163.64 145.159 163.83 145ZM160.852 155.977C161.379 155.977 161.831 155.845 162.21 155.58C162.593 155.314 162.886 154.941 163.091 154.46C163.295 153.975 163.398 153.405 163.398 152.75C163.398 152.114 163.294 151.572 163.085 151.125C162.881 150.678 162.587 150.337 162.205 150.102C161.822 149.867 161.364 149.75 160.83 149.75C160.439 149.75 160.089 149.816 159.778 149.949C159.468 150.081 159.203 150.277 158.983 150.534C158.763 150.792 158.593 151.106 158.472 151.477C158.354 151.848 158.292 152.273 158.284 152.75C158.284 153.727 158.513 154.509 158.972 155.097C159.43 155.684 160.057 155.977 160.852 155.977ZM170.335 157.182C169.547 157.182 168.856 156.994 168.261 156.619C167.67 156.244 167.208 155.72 166.875 155.045C166.545 154.371 166.381 153.583 166.381 152.682C166.381 151.773 166.545 150.979 166.875 150.301C167.208 149.623 167.67 149.097 168.261 148.722C168.856 148.347 169.547 148.159 170.335 148.159C171.123 148.159 171.813 148.347 172.403 148.722C172.998 149.097 173.46 149.623 173.79 150.301C174.123 150.979 174.29 151.773 174.29 152.682C174.29 153.583 174.123 154.371 173.79 155.045C173.46 155.72 172.998 156.244 172.403 156.619C171.813 156.994 171.123 157.182 170.335 157.182ZM170.335 155.977C170.934 155.977 171.426 155.824 171.812 155.517C172.199 155.21 172.485 154.807 172.67 154.307C172.856 153.807 172.949 153.265 172.949 152.682C172.949 152.098 172.856 151.555 172.67 151.051C172.485 150.547 172.199 150.14 171.812 149.83C171.426 149.519 170.934 149.364 170.335 149.364C169.737 149.364 169.244 149.519 168.858 149.83C168.472 150.14 168.186 150.547 168 151.051C167.814 151.555 167.722 152.098 167.722 152.682C167.722 153.265 167.814 153.807 168 154.307C168.186 154.807 168.472 155.21 168.858 155.517C169.244 155.824 169.737 155.977 170.335 155.977ZM181.109 155.182L184.155 148.273H185.428L181.655 157H180.564L176.859 148.273H178.109L181.109 155.182ZM177.678 148.273V157H176.337V148.273H177.678ZM184.541 157V148.273H185.882V157H184.541Z" fill="#292929"/>
</svg>
