<svg width="24" height="24" viewBox="0 0 24 24" fill="none" xmlns="http://www.w3.org/2000/svg">
<path fill-rule="evenodd" clip-rule="evenodd" d="M9.8613 4.59991C10.3145 3.85277 11.1249 3.39648 11.9988 3.39648C12.8727 3.39648 13.6831 3.85277 14.1363 4.59991L14.1377 4.60229L22.6119 18.7492C23.056 19.5184 23.0586 20.4656 22.6188 21.2374C22.1789 22.0091 21.3625 22.4894 20.4743 22.4992L20.4688 22.4993L3.5233 22.4992C2.63507 22.4895 1.81872 22.0091 1.37884 21.2374C0.938955 20.4656 0.941607 19.5184 1.3858 18.7492L1.38981 18.7423L9.85987 4.60229L9.8613 4.59991ZM10.717 5.11737C10.7168 5.11776 10.7165 5.11815 10.7163 5.11854L2.24995 19.2525C1.98527 19.7134 1.9843 20.2802 2.24762 20.7422C2.51112 21.2044 2.99978 21.4925 3.53172 21.4992H20.4659C20.9978 21.4925 21.4865 21.2044 21.75 20.7422C22.0133 20.2802 22.0123 19.7135 21.7477 19.2525L13.2813 5.11854C13.2811 5.11815 13.2808 5.11776 13.2806 5.11737C13.0085 4.66978 12.5227 4.39648 11.9988 4.39648C11.4749 4.39648 10.9891 4.66978 10.717 5.11737Z" fill="#858FA4"/>
<path fill-rule="evenodd" clip-rule="evenodd" d="M12 9.5C12.2761 9.5 12.5 9.72386 12.5 10V14C12.5 14.2761 12.2761 14.5 12 14.5C11.7239 14.5 11.5 14.2761 11.5 14V10C11.5 9.72386 11.7239 9.5 12 9.5Z" fill="#858FA4"/>
<path d="M13 18C13 18.5523 12.5523 19 12 19C11.4477 19 11 18.5523 11 18C11 17.4477 11.4477 17 12 17C12.5523 17 13 17.4477 13 18Z" fill="#858FA4"/>
</svg>
