<svg width="32" height="24" viewBox="0 0 32 24" fill="none" xmlns="http://www.w3.org/2000/svg">
<path d="M25.636 7.57905C26.3389 7.57905 26.9087 7.01352 26.9087 6.31589C26.9087 5.61827 26.3389 5.05273 25.636 5.05273C24.9331 5.05273 24.3633 5.61827 24.3633 6.31589C24.3633 7.01352 24.9331 7.57905 25.636 7.57905Z" fill="#292929"/>
<path d="M11.3537 1.89446C11.5103 1.89446 11.6363 1.78203 11.6363 1.64186V0.883952C11.6363 0.745004 11.5103 0.631348 11.3537 0.631348H9.37334C9.21682 0.631348 9.09082 0.743778 9.09082 0.883952V1.64186C9.09082 1.7808 9.21682 1.89446 9.37334 1.89446H11.3537Z" fill="#292929"/>
<path d="M18.6365 16.4213C21.7992 16.4213 24.3637 13.876 24.3637 10.737C24.3637 7.59803 21.7992 5.05273 18.6365 5.05273C15.4737 5.05273 12.9092 7.59803 12.9092 10.737C12.9092 13.876 15.4737 16.4213 18.6365 16.4213ZM18.6365 6.31594C21.0966 6.31594 23.091 8.29532 23.091 10.737C23.091 13.1787 21.0966 15.1581 18.6365 15.1581C16.1763 15.1581 14.1819 13.1787 14.1819 10.737C14.1819 8.29532 16.1763 6.31594 18.6365 6.31594Z" fill="#292929"/>
<path d="M4 5.05264V17.6844C4 20.2107 6.54544 20.2107 6.54544 20.2107H29.4545C29.4545 20.2107 32 20.2107 32 17.6844V5.05264C32 2.52632 29.4545 2.52632 29.4545 2.52632H24.6182L23.2665 0.291791C23.1698 0.130094 22.9356 0 22.7524 0H14.5204C14.3333 0 14.1004 0.135179 14.0062 0.291791L12.6545 2.52632H6.54544C6.54544 2.52627 4 2.52627 4 5.05264ZM13.5124 3.78948L14.9302 1.26311H22.2204L23.8329 3.78948H29.4405C29.4405 3.78948 30.7272 3.78948 30.7272 5.07538V17.6603C30.7272 18.9475 29.4405 18.9475 29.4405 18.9475H6.55944C6.55944 18.9475 5.27272 18.9475 5.27272 17.6603V5.07538C5.27272 3.78948 6.55944 3.78948 6.55944 3.78948H13.5124Z" fill="#292929"/>
<ellipse cx="6" cy="18.0453" rx="6" ry="5.95493" fill="white"/>
<path d="M4.30824 23.7888V15.8799H5.66051V23.7888H4.30824ZM1 20.5054V19.1633H8.96875V20.5054H1Z" fill="#292929"/>
</svg>
