<svg width="75" height="20" viewBox="0 0 75 20" fill="none" xmlns="http://www.w3.org/2000/svg">
<path d="M11.6959 7.57572L9.27194 9.99992L11.6959 12.424C12.0564 12.7847 12.0564 13.369 11.6959 13.7297C11.5157 13.9098 11.2796 14 11.0435 14C10.807 14 10.5708 13.91 10.3908 13.7297L7.96632 11.3053L5.54202 13.7296C5.3619 13.9098 5.12569 13.9999 4.88941 13.9999C4.6532 13.9999 4.41715 13.9099 4.23686 13.7296C3.87631 13.3691 3.87631 12.7848 4.23686 12.424L6.66074 9.9999L4.23672 7.57572C3.87617 7.21516 3.87617 6.63076 4.23672 6.27021C4.5972 5.90993 5.18126 5.90993 5.54188 6.27021L7.9663 8.69442L10.3905 6.27021C10.7512 5.90993 11.3353 5.90993 11.6958 6.27021C12.0564 6.63076 12.0564 7.21516 11.6959 7.57572Z" fill="#909CB5"/>
<path d="M19.7699 15.1392V13.9858H20.4062C20.6515 13.9858 20.857 13.9377 21.0227 13.8416C21.1918 13.7455 21.331 13.6212 21.4403 13.4688C21.553 13.3163 21.6458 13.1572 21.7188 12.9915L21.8778 12.6136L18.358 4.81818H19.6903L22.4943 11.142L25.0597 4.81818H26.3722L22.8523 13.3494C22.7131 13.6676 22.554 13.9626 22.375 14.2344C22.1993 14.5062 21.959 14.7249 21.6541 14.8906C21.3525 15.0563 20.9432 15.1392 20.4261 15.1392H19.7699ZM26.9949 17.1875V13.9062H27.6312C27.787 13.7438 27.9212 13.5682 28.0339 13.3793C28.1466 13.1903 28.2444 12.9666 28.3272 12.7081C28.4134 12.4463 28.4863 12.1281 28.546 11.7536C28.6056 11.3757 28.6587 10.92 28.7051 10.3864L28.9636 7.36364H33.8159V13.9062H34.9892V17.1875H33.8159V15H28.1681V17.1875H26.9949ZM28.9636 13.9062H32.6426V8.45739H30.0574L29.8585 10.3864C29.7756 11.1851 29.6729 11.8828 29.5502 12.4794C29.4276 13.076 29.2321 13.5516 28.9636 13.9062ZM38.7937 15.179C38.3098 15.179 37.8706 15.0878 37.4762 14.9055C37.0818 14.7199 36.7686 14.4531 36.5366 14.1051C36.3046 13.7538 36.1886 13.3295 36.1886 12.8324C36.1886 12.3949 36.2747 12.0402 36.4471 11.7685C36.6194 11.4934 36.8498 11.2779 37.1381 11.1222C37.4265 10.9664 37.7447 10.8504 38.0927 10.7741C38.444 10.6946 38.797 10.6316 39.1516 10.5852C39.6156 10.5256 39.9918 10.4808 40.2802 10.451C40.5719 10.4179 40.784 10.3632 40.9165 10.2869C41.0524 10.2107 41.1204 10.0781 41.1204 9.8892V9.84943C41.1204 9.3589 40.9862 8.97775 40.7177 8.70597C40.4525 8.43419 40.0498 8.2983 39.5096 8.2983C38.9495 8.2983 38.5103 8.42093 38.1921 8.66619C37.8739 8.91146 37.6502 9.1733 37.521 9.4517L36.4073 9.05398C36.6062 8.58996 36.8713 8.22869 37.2028 7.97017C37.5375 7.70833 37.9021 7.52604 38.2965 7.4233C38.6942 7.31723 39.0853 7.2642 39.4698 7.2642C39.7151 7.2642 39.9968 7.29403 40.315 7.35369C40.6365 7.41004 40.9464 7.5277 41.2447 7.70668C41.5463 7.88565 41.7965 8.15578 41.9954 8.51705C42.1942 8.87831 42.2937 9.36222 42.2937 9.96875V15H41.1204V13.9659H41.0607C40.9812 14.1316 40.8486 14.3089 40.663 14.4979C40.4774 14.6868 40.2305 14.8475 39.9222 14.9801C39.614 15.1127 39.2378 15.179 38.7937 15.179ZM38.9727 14.125C39.4367 14.125 39.8278 14.0339 40.146 13.8516C40.4674 13.6693 40.7094 13.4339 40.8718 13.1456C41.0375 12.8572 41.1204 12.554 41.1204 12.2358V11.1619C41.0707 11.2216 40.9613 11.2763 40.7923 11.326C40.6265 11.3724 40.4343 11.4138 40.2156 11.4503C40.0001 11.4834 39.7897 11.5133 39.5842 11.5398C39.382 11.563 39.2179 11.5829 39.092 11.5994C38.7871 11.6392 38.502 11.7038 38.2369 11.7933C37.975 11.8795 37.7629 12.0104 37.6005 12.1861C37.4414 12.3584 37.3619 12.5937 37.3619 12.892C37.3619 13.2997 37.5127 13.608 37.8143 13.8168C38.1192 14.0223 38.5053 14.125 38.9727 14.125ZM43.7591 15V13.9062H44.0375C44.2662 13.9062 44.4567 13.8615 44.6092 13.772C44.7617 13.6792 44.8843 13.5185 44.9771 13.2898C45.0732 13.0578 45.1461 12.7363 45.1958 12.3253C45.2489 11.911 45.287 11.384 45.3102 10.7443L45.4494 7.36364H50.5403V15H49.367V8.45739H46.563L46.4437 11.1818C46.4172 11.8082 46.3609 12.3601 46.2747 12.8374C46.1918 13.3113 46.0642 13.709 45.8919 14.0305C45.7228 14.352 45.4975 14.594 45.2157 14.7564C44.934 14.9188 44.581 15 44.1568 15H43.7591ZM53.8663 13.2699L57.5453 7.36364H58.8975V15H57.7243V9.09375L54.0652 15H52.693V7.36364H53.8663V13.2699ZM60.0075 8.45739V7.36364H66.212V8.45739H63.7063V15H62.533V8.45739H60.0075ZM68.9377 10.1278H71.1252C72.0201 10.1278 72.7045 10.3549 73.1784 10.8089C73.6524 11.263 73.8894 11.8381 73.8894 12.5341C73.8894 12.9915 73.7833 13.4074 73.5712 13.782C73.3591 14.1532 73.0475 14.4498 72.6365 14.6719C72.2256 14.8906 71.7218 15 71.1252 15H67.9235V7.36364H69.0968V13.9062H71.1252C71.5892 13.9062 71.9703 13.7836 72.2686 13.5384C72.5669 13.2931 72.7161 12.9782 72.7161 12.5938C72.7161 12.1894 72.5669 11.8596 72.2686 11.6044C71.9703 11.3492 71.5892 11.2216 71.1252 11.2216H68.9377V10.1278Z" fill="#909CB5"/>
</svg>
