<svg width="24" height="24" viewBox="0 0 24 24" fill="none" xmlns="http://www.w3.org/2000/svg">
<path fill-rule="evenodd" clip-rule="evenodd" d="M1.5 7C1.5 6.17157 2.17157 5.5 3 5.5H16.382C16.9501 5.5 17.4695 5.821 17.7236 6.32918L19.3284 9.53887C19.3674 9.61669 19.4259 9.68302 19.4983 9.73128L21.8321 11.2871C22.2493 11.5653 22.5 12.0337 22.5 12.5352V16C22.5 16.8284 21.8284 17.5 21 17.5H19V16.5H21C21.2761 16.5 21.5 16.2761 21.5 16V12.5352C21.5 12.368 21.4164 12.2119 21.2773 12.1192L18.9436 10.5633C18.7264 10.4185 18.5508 10.2196 18.434 9.98608L16.8292 6.77639C16.7445 6.607 16.5714 6.5 16.382 6.5H3C2.72386 6.5 2.5 6.72386 2.5 7V16C2.5 16.2761 2.72386 16.5 3 16.5H4.5V17.5H3C2.17157 17.5 1.5 16.8284 1.5 16V7ZM9.5 16.5H14.5V17.5H9.5V16.5Z" fill="#858FA4"/>
<path fill-rule="evenodd" clip-rule="evenodd" d="M7 19C8.10457 19 9 18.1046 9 17C9 15.8954 8.10457 15 7 15C5.89543 15 5 15.8954 5 17C5 18.1046 5.89543 19 7 19ZM7 20C8.65685 20 10 18.6569 10 17C10 15.3431 8.65685 14 7 14C5.34315 14 4 15.3431 4 17C4 18.6569 5.34315 20 7 20Z" fill="#858FA4"/>
<path fill-rule="evenodd" clip-rule="evenodd" d="M17 19C18.1046 19 19 18.1046 19 17C19 15.8954 18.1046 15 17 15C15.8954 15 15 15.8954 15 17C15 18.1046 15.8954 19 17 19ZM17 20C18.6569 20 20 18.6569 20 17C20 15.3431 18.6569 14 17 14C15.3431 14 14 15.3431 14 17C14 18.6569 15.3431 20 17 20Z" fill="#858FA4"/>
</svg>
