<svg width="27" height="28" viewBox="0 0 27 28" fill="none" xmlns="http://www.w3.org/2000/svg">
<path fill-rule="evenodd" clip-rule="evenodd" d="M25.3008 23.2857V4.71429C25.3008 3.7292 24.8794 2.78445 24.1292 2.08789C23.3791 1.39133 22.3616 1 21.3008 1H5.30078C4.23992 1 3.2225 1.39133 2.47235 2.08789C1.72221 2.78445 1.30078 3.7292 1.30078 4.71429V23.2857C1.30078 24.2708 1.72221 25.2155 2.47235 25.9121C3.2225 26.6087 4.23992 27 5.30078 27H21.3008C22.3616 27 23.3791 26.6087 24.1292 25.9121C24.8794 25.2155 25.3008 24.2708 25.3008 23.2857V23.2857Z" stroke="#384255" stroke-width="2" stroke-linecap="round" stroke-linejoin="round"/>
<path d="M10.6328 9.04883H18.9668" stroke="#384255" stroke-width="2" stroke-linecap="round" stroke-linejoin="round"/>
<path d="M5.63281 9.04883H7.29962" stroke="#384255" stroke-width="2" stroke-linecap="round" stroke-linejoin="round"/>
<path d="M10.6328 13.6914H18.9668" stroke="#384255" stroke-width="2" stroke-linecap="round" stroke-linejoin="round"/>
<path d="M5.63281 13.6914H7.29962" stroke="#384255" stroke-width="2" stroke-linecap="round" stroke-linejoin="round"/>
<path d="M10.6328 18.334H18.9668" stroke="#384255" stroke-width="2" stroke-linecap="round" stroke-linejoin="round"/>
<path d="M5.63281 18.334H7.29962" stroke="#384255" stroke-width="2" stroke-linecap="round" stroke-linejoin="round"/>
</svg>
