<svg width="20" height="20" viewBox="0 0 20 20" fill="none" xmlns="http://www.w3.org/2000/svg">
<path d="M15.556 16.6654H3.33377V4.44314H10.6782L11.7893 3.33203H3.33377C3.03908 3.33203 2.75647 3.44909 2.54809 3.65747C2.33972 3.86584 2.22266 4.14846 2.22266 4.44314V16.6654C2.22266 16.9601 2.33972 17.2427 2.54809 17.451C2.75647 17.6594 3.03908 17.7765 3.33377 17.7765H15.556C15.8507 17.7765 16.1333 17.6594 16.3417 17.451C16.55 17.2427 16.6671 16.9601 16.6671 16.6654V8.33203L15.556 9.44314V16.6654Z" fill="#909CB5"/>
<path d="M18.6274 3.24444L16.7552 1.37222C16.6721 1.2889 16.5734 1.2228 16.4647 1.1777C16.356 1.13259 16.2395 1.10937 16.1218 1.10938C16.0042 1.10938 15.8876 1.13259 15.779 1.1777C15.6703 1.2228 15.5716 1.2889 15.4885 1.37222L7.87182 9.03333L7.25515 11.7056C7.22888 11.8351 7.23164 11.9688 7.26324 12.0972C7.29484 12.2255 7.35448 12.3452 7.43789 12.4478C7.52129 12.5503 7.62639 12.6331 7.7456 12.6901C7.86482 12.7472 7.99521 12.7771 8.12737 12.7778C8.19569 12.7853 8.26462 12.7853 8.33293 12.7778L11.0274 12.1833L18.6274 4.51111C18.7107 4.42802 18.7768 4.32931 18.8219 4.22063C18.867 4.11195 18.8902 3.99544 18.8902 3.87777C18.8902 3.76011 18.867 3.6436 18.8219 3.53492C18.7768 3.42624 18.7107 3.32753 18.6274 3.24444ZM10.4496 11.1556L8.41626 11.6056L8.88849 9.58889L14.6218 3.81666L16.1885 5.38333L10.4496 11.1556ZM16.8163 4.75555L15.2496 3.18889L16.1107 2.31111L17.6885 3.88889L16.8163 4.75555Z" fill="#909CB5"/>
</svg>
