<svg width="40" height="40" viewBox="0 0 40 40" fill="none" xmlns="http://www.w3.org/2000/svg">
<circle cx="20" cy="20" r="20" fill="#CB11AB"/>
<path d="M14.8801 27V24.7841L20.0577 19.9901C20.498 19.5639 20.8674 19.1804 21.1657 18.8395C21.4687 18.4986 21.6983 18.1648 21.8546 17.8381C22.0108 17.5066 22.089 17.1491 22.089 16.7656C22.089 16.3395 21.9919 15.9725 21.7978 15.6648C21.6036 15.3523 21.3385 15.1132 21.0023 14.9474C20.6661 14.777 20.285 14.6918 19.8588 14.6918C19.4138 14.6918 19.0255 14.7817 18.6941 14.9616C18.3626 15.1416 18.1069 15.3996 17.927 15.7358C17.7471 16.072 17.6571 16.4721 17.6571 16.9361H14.7381C14.7381 15.9844 14.9535 15.1581 15.3844 14.4574C15.8153 13.7566 16.419 13.2145 17.1955 12.831C17.972 12.4474 18.8669 12.2557 19.8801 12.2557C20.9218 12.2557 21.8285 12.4403 22.6003 12.8097C23.3768 13.1742 23.9805 13.6809 24.4114 14.3295C24.8423 14.9782 25.0577 15.7216 25.0577 16.5597C25.0577 17.1089 24.9488 17.651 24.731 18.1861C24.5179 18.7211 24.1368 19.3153 23.5875 19.9688C23.0383 20.6174 22.2641 21.3963 21.2651 22.3054L19.1415 24.3864V24.4858H25.2495V27H14.8801Z" fill="white"/>
</svg>
