<svg width="222" height="41" viewBox="0 0 222 41" fill="none" xmlns="http://www.w3.org/2000/svg">
<path d="M39.9838 32.6285C39.2485 32.6285 38.5712 32.4447 37.9519 32.077C37.3521 31.7094 36.8683 31.2256 36.5006 30.6257C36.1523 30.0258 35.9781 29.3582 35.9781 28.6229V22.2951H49.2723V19.9439C49.2723 19.8472 49.2336 19.7698 49.1562 19.7117C49.0981 19.6343 49.0207 19.5956 48.924 19.5956H35.9781V15.7931H49.0691C49.8044 15.7931 50.4721 15.977 51.0719 16.3446C51.6912 16.7123 52.1749 17.1961 52.5233 17.796C52.8909 18.3959 53.0748 19.0635 53.0748 19.7988V32.6285H39.9838ZM40.1289 28.8261H49.2723V25.7202H39.7806V28.4777C39.7806 28.5745 39.8096 28.6616 39.8677 28.739C39.9451 28.797 40.0322 28.8261 40.1289 28.8261ZM59.8767 32.6285C59.122 32.6285 58.4448 32.4447 57.8449 32.077C57.245 31.7094 56.7612 31.2256 56.3935 30.6257C56.0452 30.0258 55.8711 29.3582 55.8711 28.6229V19.7988C55.8711 19.0635 56.0452 18.3959 56.3935 17.796C56.7612 17.1961 57.245 16.7123 57.8449 16.3446C58.4448 15.977 59.122 15.7931 59.8767 15.7931H69.1943V10.2781H72.9967V32.6285H59.8767ZM60.0509 28.8261H68.8459C68.9427 28.8261 69.0201 28.797 69.0781 28.739C69.1555 28.6616 69.1943 28.5745 69.1943 28.4777V19.9439C69.1943 19.8472 69.1555 19.7698 69.0781 19.7117C69.0201 19.6343 68.9427 19.5956 68.8459 19.5956H60.0509C59.9541 19.5956 59.8671 19.6343 59.7896 19.7117C59.7316 19.7698 59.7026 19.8472 59.7026 19.9439V28.4777C59.7026 28.5745 59.7316 28.6616 59.7896 28.739C59.8671 28.797 59.9541 28.8261 60.0509 28.8261ZM79.1501 39.2756V35.4441H89.2804C89.3772 35.4441 89.4546 35.4054 89.5126 35.328C89.59 35.27 89.6287 35.1926 89.6287 35.0958V32.6285H80.3402C79.6242 32.6285 78.9566 32.4447 78.3374 32.077C77.7375 31.7094 77.2537 31.2256 76.8861 30.6257C76.5184 30.0258 76.3346 29.3582 76.3346 28.6229V19.7988C76.3346 19.0635 76.5184 18.3959 76.8861 17.796C77.2537 17.1961 77.7375 16.7123 78.3374 16.3446C78.9566 15.977 79.6242 15.7931 80.3402 15.7931H89.4546C90.1899 15.7931 90.8575 15.977 91.4574 16.3446C92.0573 16.7123 92.5314 17.1961 92.8797 17.796C93.2474 18.3959 93.4312 19.0635 93.4312 19.7988V35.27C93.4312 36.0246 93.257 36.7019 92.9087 37.3018C92.5604 37.9017 92.0766 38.3758 91.4574 38.7241C90.8575 39.0918 90.1899 39.2756 89.4546 39.2756H79.1501ZM80.4854 28.8261H89.2804C89.3772 28.8261 89.4546 28.797 89.5126 28.739C89.59 28.6616 89.6287 28.5745 89.6287 28.4777V19.9439C89.6287 19.8472 89.59 19.7698 89.5126 19.7117C89.4546 19.6343 89.3772 19.5956 89.2804 19.5956H80.4854C80.3886 19.5956 80.3015 19.6343 80.2241 19.7117C80.1661 19.7698 80.137 19.8472 80.137 19.9439V28.4777C80.137 28.5745 80.1661 28.6616 80.2241 28.739C80.3015 28.797 80.3886 28.8261 80.4854 28.8261ZM100.43 32.6285C99.6944 32.6285 99.0268 32.4447 98.4269 32.077C97.827 31.7094 97.3433 31.2256 96.9756 30.6257C96.6079 30.0258 96.4241 29.3582 96.4241 28.6229V19.7988C96.4241 19.0635 96.6079 18.3959 96.9756 17.796C97.3433 17.1961 97.827 16.7123 98.4269 16.3446C99.0268 15.977 99.6944 15.7931 100.43 15.7931H109.515C110.25 15.7931 110.918 15.977 111.518 16.3446C112.137 16.7123 112.621 17.1961 112.969 17.796C113.337 18.3959 113.521 19.0635 113.521 19.7988V26.1266H100.227V28.4777C100.227 28.5745 100.256 28.6616 100.314 28.739C100.391 28.797 100.478 28.8261 100.575 28.8261H113.521V32.6285H100.43ZM100.227 22.7015H109.718V19.9439C109.718 19.8472 109.68 19.7698 109.602 19.7117C109.544 19.6343 109.467 19.5956 109.37 19.5956H100.575C100.478 19.5956 100.391 19.6343 100.314 19.7117C100.256 19.7698 100.227 19.8472 100.227 19.9439V22.7015ZM121.166 32.6285C120.43 32.6285 119.763 32.4447 119.163 32.077C118.563 31.7094 118.079 31.2256 117.712 30.6257C117.344 30.0258 117.16 29.3582 117.16 28.6229V10.6264H120.963V15.7931H127.523V19.5956H120.963V28.4777C120.963 28.5745 120.992 28.6616 121.05 28.739C121.127 28.797 121.214 28.8261 121.311 28.8261H127.523V32.6285H121.166ZM135.04 32.6285C134.305 32.6285 133.627 32.4447 133.008 32.077C132.408 31.7094 131.925 31.2256 131.557 30.6257C131.209 30.0258 131.034 29.3582 131.034 28.6229V22.2951H144.329V19.9439C144.329 19.8472 144.29 19.7698 144.212 19.7117C144.154 19.6343 144.077 19.5956 143.98 19.5956H131.034V15.7931H144.125C144.861 15.7931 145.528 15.977 146.128 16.3446C146.747 16.7123 147.231 17.1961 147.58 17.796C147.947 18.3959 148.131 19.0635 148.131 19.7988V32.6285H135.04ZM135.185 28.8261H144.329V25.7202H134.837V28.4777C134.837 28.5745 134.866 28.6616 134.924 28.739C135.001 28.797 135.088 28.8261 135.185 28.8261ZM151.174 32.6285V19.7988C151.174 19.0635 151.358 18.3959 151.725 17.796C152.093 17.1961 152.577 16.7123 153.177 16.3446C153.796 15.977 154.464 15.7931 155.179 15.7931H164.526V19.5956H155.325C155.228 19.5956 155.141 19.6343 155.063 19.7117C155.005 19.7698 154.976 19.8472 154.976 19.9439V32.6285H151.174ZM167.316 32.6285V15.7931H171.119V32.6285H167.316ZM167.316 14.1096V10.2781H171.119V14.1096H167.316ZM178.366 32.6285C177.631 32.6285 176.954 32.4447 176.334 32.077C175.735 31.7094 175.251 31.2256 174.883 30.6257C174.535 30.0258 174.361 29.3582 174.361 28.6229V15.7931H178.163V28.4777C178.163 28.5745 178.192 28.6616 178.25 28.739C178.328 28.797 178.415 28.8261 178.511 28.8261H187.306C187.403 28.8261 187.481 28.797 187.539 28.739C187.616 28.6616 187.655 28.5745 187.655 28.4777V15.7931H191.457V28.6229C191.457 29.3582 191.273 30.0258 190.906 30.6257C190.557 31.2256 190.083 31.7094 189.483 32.077C188.884 32.4447 188.206 32.6285 187.452 32.6285H178.366ZM194.444 32.6285V15.7931H215.314C216.069 15.7931 216.746 15.977 217.346 16.3446C217.946 16.7123 218.42 17.1961 218.768 17.796C219.136 18.3959 219.32 19.0635 219.32 19.7988V32.6285H215.546V19.9439C215.546 19.8472 215.508 19.7698 215.43 19.7117C215.353 19.6343 215.266 19.5956 215.169 19.5956H209.16C209.064 19.5956 208.977 19.6343 208.899 19.7117C208.841 19.7698 208.812 19.8472 208.812 19.9439V32.6285H204.981V19.9439C204.981 19.8472 204.942 19.7698 204.865 19.7117C204.806 19.6343 204.729 19.5956 204.632 19.5956H198.595C198.498 19.5956 198.411 19.6343 198.334 19.7117C198.276 19.7698 198.246 19.8472 198.246 19.9439V32.6285H194.444Z" fill="white"/>
<rect y="0.362549" width="32.292" height="36.646" fill="#CB11AB"/>
<path d="M16.3602 33.3592C14.6839 33.3592 13.1056 33.0544 11.6253 32.4449C10.1667 31.8353 8.89315 30.9972 7.80465 29.9304C6.71616 28.8419 5.85624 27.5793 5.22492 26.1425C4.61536 24.6839 4.31058 23.1165 4.31058 21.4402C4.31058 19.7639 4.62624 18.2073 5.25757 16.7705C5.8889 15.3337 6.7597 14.0819 7.86996 13.0152C9.002 11.9267 10.3191 11.0886 11.8212 10.5008C13.3233 9.89124 14.9343 9.58646 16.6541 9.58646C18.6352 9.58646 20.4312 9.94566 22.0422 10.6641C23.6749 11.3825 25.0247 12.373 26.0914 13.6357L22.5973 17.1297C21.8571 16.1719 20.9863 15.4535 19.9849 14.9745C18.9835 14.4956 17.8515 14.2561 16.5888 14.2561C15.2391 14.2561 14.0308 14.5609 12.9641 15.1704C11.8974 15.7582 11.0593 16.5964 10.4497 17.6849C9.86191 18.7516 9.56801 20.0034 9.56801 21.4402C9.56801 22.877 9.86191 24.1396 10.4497 25.2281C11.0375 26.3166 11.843 27.1657 12.8662 27.7752C13.8893 28.3848 15.0649 28.6896 16.3929 28.6896C17.7426 28.6896 18.8855 28.4392 19.8216 27.9385C20.7795 27.416 21.5088 26.6758 22.0095 25.718C22.532 24.7383 22.7932 23.5519 22.7932 22.1586L26.1893 24.4444L15.9031 24.2812V19.9381H28.018V20.6891C28.018 23.4539 27.5173 25.7833 26.5159 27.6773C25.5362 29.5495 24.1647 30.9645 22.4014 31.9224C20.6598 32.8803 18.6461 33.3592 16.3602 33.3592Z" fill="white"/>
</svg>
