<svg width="42" height="42" viewBox="0 0 42 42" fill="none" xmlns="http://www.w3.org/2000/svg">
<rect width="42" height="42" rx="21" fill="#D9D9D9"/>
<path d="M29.3333 32.75H12V30.5833C12 29.1467 12.5707 27.769 13.5865 26.7532C14.6023 25.7374 15.9801 25.1667 17.4167 25.1667H23.9167C25.3533 25.1667 26.731 25.7374 27.7468 26.7532C28.7627 27.769 29.3333 29.1467 29.3333 30.5833V32.75ZM20.6667 23C19.8131 23 18.9678 22.8319 18.1792 22.5052C17.3906 22.1786 16.6741 21.6998 16.0705 21.0962C15.4669 20.4926 14.9881 19.7761 14.6614 18.9874C14.3348 18.1988 14.1667 17.3536 14.1667 16.5C14.1667 15.6464 14.3348 14.8012 14.6614 14.0126C14.9881 13.2239 15.4669 12.5074 16.0705 11.9038C16.6741 11.3002 17.3906 10.8214 18.1792 10.4948C18.9678 10.1681 19.8131 10 20.6667 10C22.3906 10 24.0439 10.6848 25.2629 11.9038C26.4818 13.1228 27.1667 14.7761 27.1667 16.5C27.1667 18.2239 26.4818 19.8772 25.2629 21.0962C24.0439 22.3152 22.3906 23 20.6667 23Z" fill="white"/>
</svg>
