<svg width="22" height="22" viewBox="0 0 22 22" fill="none" xmlns="http://www.w3.org/2000/svg">
<path d="M13.7955 4.58341C14.6908 4.7581 15.5137 5.19598 16.1587 5.84102C16.8038 6.48606 17.2416 7.30891 17.4163 8.20425L13.7955 4.58341ZM13.7955 0.916748C15.6557 1.1234 17.3903 1.95641 18.7145 3.27901C20.0388 4.6016 20.874 6.33517 21.083 8.19508L13.7955 0.916748ZM20.1663 15.5101V18.2601C20.1674 18.5154 20.1151 18.7681 20.0128 19.002C19.9105 19.2359 19.7605 19.4459 19.5724 19.6185C19.3843 19.791 19.1622 19.9224 18.9203 20.0042C18.6785 20.086 18.4222 20.1164 18.168 20.0934C15.3473 19.7869 12.6377 18.823 10.2572 17.2792C8.04233 15.8719 6.16455 13.9941 4.75715 11.7792C3.20797 9.38785 2.24388 6.66516 1.94299 3.83175C1.92008 3.57826 1.95021 3.32278 2.03145 3.08157C2.11269 2.84036 2.24326 2.61871 2.41486 2.43073C2.58645 2.24276 2.79531 2.09256 3.02813 1.98973C3.26095 1.88689 3.51263 1.83365 3.76715 1.83341H6.51715C6.96202 1.82904 7.3933 1.98657 7.7306 2.27665C8.06791 2.56674 8.28823 2.96957 8.35049 3.41008C8.46656 4.29014 8.68182 5.15425 8.99215 5.98592C9.11549 6.31401 9.14218 6.67059 9.06907 7.01339C8.99596 7.35619 8.82611 7.67085 8.57965 7.92008L7.41549 9.08425C8.72041 11.3792 10.6206 13.2793 12.9155 14.5842L14.0797 13.4201C14.3289 13.1736 14.6435 13.0038 14.9863 12.9307C15.3291 12.8576 15.6857 12.8843 16.0138 13.0076C16.8455 13.3179 17.7096 13.5332 18.5897 13.6492C19.0349 13.7121 19.4416 13.9364 19.7323 14.2795C20.023 14.6225 20.1775 15.0605 20.1663 15.5101Z" stroke="white" stroke-linecap="round" stroke-linejoin="round"/>
</svg>
