<svg width="40" height="40" viewBox="0 0 40 40" fill="none" xmlns="http://www.w3.org/2000/svg">
<g clip-path="url(#clip0_1452_10564)">
<path d="M33.7349 25C34.2872 25 34.7349 25.4477 34.7349 26V30H38.697C39.2493 30 39.697 30.4477 39.697 31V32.3333C39.697 32.8856 39.2493 33.3333 38.697 33.3333H34.7349V37.3333C34.7349 37.8856 34.2872 38.3333 33.7349 38.3333H32.4268C31.8745 38.3333 31.4268 37.8856 31.4268 37.3333V33.3333H27.4647C26.9124 33.3333 26.4647 32.8856 26.4647 32.3333V31C26.4647 30.4477 26.9124 30 27.4647 30H31.4268V26C31.4268 25.4477 31.8745 25 32.4268 25H33.7349ZM34.7481 5C35.6545 5 36.3889 5.74167 36.3889 6.655V20.6667C36.3889 21.219 35.9412 21.6667 35.3889 21.6667H34.0808C33.5285 21.6667 33.0808 21.219 33.0808 20.6667V8.33333H6.61619V31.665L22.4468 15.7151C22.8379 15.3211 23.4752 15.3211 23.8663 15.7152L27.8285 19.7076C28.0144 19.8949 28.1187 20.1481 28.1187 20.412V22.2877C28.1187 23.1805 27.0378 23.6258 26.4089 22.9922L23.1566 19.715L11.2922 31.6667H22.1566C22.7089 31.6667 23.1566 32.1144 23.1566 32.6667V34C23.1566 34.5523 22.7089 35 22.1566 35H4.94891C4.51359 34.9996 4.09625 34.825 3.78859 34.5147C3.48092 34.2043 3.30811 33.7836 3.30811 33.345V6.655C3.31113 6.2173 3.48492 5.79836 3.79193 5.4887C4.09894 5.17903 4.51453 5.00349 4.94891 5H34.7481ZM13.2323 11.6667C14.1097 11.6667 14.9511 12.0179 15.5715 12.643C16.1919 13.2681 16.5404 14.1159 16.5404 15C16.5404 15.8841 16.1919 16.7319 15.5715 17.357C14.9511 17.9821 14.1097 18.3333 13.2323 18.3333C12.355 18.3333 11.5136 17.9821 10.8932 17.357C10.2728 16.7319 9.92427 15.8841 9.92427 15C9.92427 14.1159 10.2728 13.2681 10.8932 12.643C11.5136 12.0179 12.355 11.6667 13.2323 11.6667Z" fill="#91969E"/>
</g>
<defs>
<clipPath id="clip0_1452_10564">
<rect width="39.697" height="40" fill="white"/>
</clipPath>
</defs>
</svg>
