<svg width="24" height="24" viewBox="0 0 24 24" fill="none" xmlns="http://www.w3.org/2000/svg">
<path d="M11.9284 0.333496C15.0982 0.333496 15.4937 0.345163 16.7374 0.403496C17.9799 0.461829 18.8257 0.656663 19.5701 0.945996C20.3401 1.24233 20.9887 1.64366 21.6374 2.29116C22.2306 2.87437 22.6897 3.57985 22.9826 4.3585C23.2707 5.10166 23.4667 5.94866 23.5251 7.19116C23.5799 8.43483 23.5951 8.83033 23.5951 12.0002C23.5951 15.17 23.5834 15.5655 23.5251 16.8092C23.4667 18.0517 23.2707 18.8975 22.9826 19.6418C22.6905 20.4209 22.2314 21.1266 21.6374 21.7092C21.054 22.3022 20.3486 22.7612 19.5701 23.0543C18.8269 23.3425 17.9799 23.5385 16.7374 23.5968C15.4937 23.6517 15.0982 23.6668 11.9284 23.6668C8.75855 23.6668 8.36305 23.6552 7.11939 23.5968C5.87689 23.5385 5.03105 23.3425 4.28672 23.0543C3.50777 22.7621 2.80217 22.3029 2.21939 21.7092C1.62603 21.126 1.16697 20.4205 0.874219 19.6418C0.584886 18.8987 0.390052 18.0517 0.331719 16.8092C0.276885 15.5655 0.261719 15.17 0.261719 12.0002C0.261719 8.83033 0.273385 8.43483 0.331719 7.19116C0.390052 5.9475 0.584886 5.10283 0.874219 4.3585C1.16616 3.57937 1.62532 2.8737 2.21939 2.29116C2.80234 1.6976 3.50789 1.23851 4.28672 0.945996C5.03105 0.656663 5.87572 0.461829 7.11939 0.403496C8.36305 0.348663 8.75855 0.333496 11.9284 0.333496ZM11.9284 6.16683C10.3813 6.16683 8.89756 6.78141 7.8036 7.87537C6.70963 8.96934 6.09505 10.4531 6.09505 12.0002C6.09505 13.5473 6.70963 15.031 7.8036 16.125C8.89756 17.2189 10.3813 17.8335 11.9284 17.8335C13.4755 17.8335 14.9592 17.2189 16.0532 16.125C17.1471 15.031 17.7617 13.5473 17.7617 12.0002C17.7617 10.4531 17.1471 8.96934 16.0532 7.87537C14.9592 6.78141 13.4755 6.16683 11.9284 6.16683V6.16683ZM19.5117 5.87516C19.5117 5.48839 19.3581 5.11746 19.0846 4.84397C18.8111 4.57048 18.4402 4.41683 18.0534 4.41683C17.6666 4.41683 17.2957 4.57048 17.0222 4.84397C16.7487 5.11746 16.5951 5.48839 16.5951 5.87516C16.5951 6.26194 16.7487 6.63287 17.0222 6.90636C17.2957 7.17985 17.6666 7.3335 18.0534 7.3335C18.4402 7.3335 18.8111 7.17985 19.0846 6.90636C19.3581 6.63287 19.5117 6.26194 19.5117 5.87516ZM11.9284 8.50016C12.8566 8.50016 13.7469 8.86891 14.4033 9.52529C15.0596 10.1817 15.4284 11.0719 15.4284 12.0002C15.4284 12.9284 15.0596 13.8187 14.4033 14.475C13.7469 15.1314 12.8566 15.5002 11.9284 15.5002C11.0001 15.5002 10.1099 15.1314 9.45351 14.475C8.79713 13.8187 8.42839 12.9284 8.42839 12.0002C8.42839 11.0719 8.79713 10.1817 9.45351 9.52529C10.1099 8.86891 11.0001 8.50016 11.9284 8.50016V8.50016Z" fill="white"/>
</svg>
