<svg width="40" height="40" viewBox="0 0 40 40" fill="none" xmlns="http://www.w3.org/2000/svg">
<g clip-path="url(#clip0_2322_10250)">
<path d="M33.9997 25C34.552 25 34.9997 25.4477 34.9997 26V30H38.9997C39.552 30 39.9997 30.4477 39.9997 31V32.3333C39.9997 32.8856 39.552 33.3333 38.9997 33.3333H34.9997V37.3333C34.9997 37.8856 34.552 38.3333 33.9997 38.3333H32.6663C32.1141 38.3333 31.6663 37.8856 31.6663 37.3333V33.3333H27.6663C27.1141 33.3333 26.6663 32.8856 26.6663 32.3333V31C26.6663 30.4477 27.1141 30 27.6663 30H31.6663V26C31.6663 25.4477 32.1141 25 32.6663 25H33.9997ZM35.013 5C35.9263 5 36.6663 5.74167 36.6663 6.655V20.6667C36.6663 21.219 36.2186 21.6667 35.6663 21.6667H34.333C33.7807 21.6667 33.333 21.219 33.333 20.6667V8.33333H6.66634V31.665L22.6259 15.707C23.0164 15.3165 23.6496 15.3166 24.0401 15.7071L28.0401 19.7071C28.2277 19.8946 28.333 20.149 28.333 20.4142V22.3008C28.333 23.1917 27.2559 23.6379 26.6259 23.0079L23.333 19.715L11.378 31.6667H22.333C22.8853 31.6667 23.333 32.1144 23.333 32.6667V34C23.333 34.5523 22.8853 35 22.333 35H4.98634C4.5477 34.9996 4.12717 34.825 3.81716 34.5147C3.50714 34.2043 3.33301 33.7836 3.33301 33.345V6.655C3.33606 6.2173 3.51117 5.79836 3.82053 5.4887C4.12988 5.17903 4.54864 5.00349 4.98634 5H35.013ZM13.333 11.6667C14.2171 11.6667 15.0649 12.0179 15.69 12.643C16.3152 13.2681 16.6663 14.1159 16.6663 15C16.6663 15.8841 16.3152 16.7319 15.69 17.357C15.0649 17.9821 14.2171 18.3333 13.333 18.3333C12.449 18.3333 11.6011 17.9821 10.976 17.357C10.3509 16.7319 9.99967 15.8841 9.99967 15C9.99967 14.1159 10.3509 13.2681 10.976 12.643C11.6011 12.0179 12.449 11.6667 13.333 11.6667Z" fill="#91969E"/>
</g>
<defs>
<clipPath id="clip0_2322_10250">
<rect width="40" height="40" fill="white"/>
</clipPath>
</defs>
</svg>
