<svg width="20" height="20" viewBox="0 0 20 20" fill="none" xmlns="http://www.w3.org/2000/svg">
<path d="M15.0262 13.8469L18.0057 16.8257C18.3313 17.1512 18.3313 17.6792 18.0057 18.0048V18.0048C17.6801 18.3304 17.1522 18.3303 16.8266 18.0047L13.8478 15.0252C12.5201 16.0895 10.8687 16.6684 9.16699 16.666C5.02699 16.666 1.66699 13.306 1.66699 9.16602C1.66699 5.02602 5.02699 1.66602 9.16699 1.66602C13.307 1.66602 16.667 5.02602 16.667 9.16602C16.6694 10.8677 16.0905 12.5191 15.0262 13.8469ZM13.3545 13.2285C14.4121 12.1409 15.0027 10.683 15.0003 9.16602C15.0003 5.94268 12.3895 3.33268 9.16699 3.33268C5.94366 3.33268 3.33366 5.94268 3.33366 9.16602C3.33366 12.3885 5.94366 14.9994 9.16699 14.9994C10.684 15.0017 12.1419 14.4111 13.2295 13.3535L13.3545 13.2285Z" fill="#909CB5"/>
</svg>
