<svg width="90" height="16" viewBox="0 0 90 16" fill="none" xmlns="http://www.w3.org/2000/svg">
<path d="M8 0L10.5486 4.4921L15.6085 5.52786L12.1238 9.3399L12.7023 14.4721L8 12.336L3.29772 14.4721L3.87622 9.3399L0.391548 5.52786L5.45136 4.4921L8 0Z" fill="#F99808"/>
<path d="M26.6666 0L29.2153 4.4921L34.2751 5.52786L30.7904 9.3399L31.3689 14.4721L26.6666 12.336L21.9643 14.4721L22.5428 9.3399L19.0582 5.52786L24.118 4.4921L26.6666 0Z" fill="#F99808"/>
<path d="M44.6667 0L47.003 4.4921L51.6411 5.52786L48.4468 9.3399L48.9771 14.4721L44.6667 12.336L40.3563 14.4721L40.8866 9.3399L37.6923 5.52786L42.3305 4.4921L44.6667 0Z" fill="#F99808"/>
<path d="M62.6666 1.35098L64.6354 4.82108L64.7849 5.08449L65.0816 5.14523L68.9902 5.94534L66.2983 8.89009L66.094 9.11363L66.1279 9.41457L66.5748 13.3792L62.9424 11.729L62.6666 11.6038L62.3909 11.729L58.7584 13.3792L59.2053 9.41457L59.2392 9.11363L59.0349 8.89009L56.343 5.94534L60.2517 5.14523L60.5484 5.08449L60.6978 4.82108L62.6666 1.35098Z" stroke="#F99808" stroke-width="1.33333"/>
<path d="M81.3334 1.35098L83.3022 4.82108L83.4516 5.08449L83.7483 5.14523L87.657 5.94534L84.9651 8.89009L84.7608 9.11363L84.7947 9.41457L85.2416 13.3792L81.6091 11.729L81.3334 11.6038L81.0576 11.729L77.4252 13.3792L77.8721 9.41457L77.906 9.11363L77.7017 8.89009L75.0098 5.94534L78.9184 5.14523L79.2151 5.08449L79.3646 4.82108L81.3334 1.35098Z" stroke="#F99808" stroke-width="1.33333"/>
</svg>
