<svg width="222" height="192" viewBox="0 0 222 192" fill="none" xmlns="http://www.w3.org/2000/svg">
<path d="M0 4C0 1.79086 1.79086 0 4 0H218C220.209 0 222 1.79086 222 4V188C222 190.209 220.209 192 218 192H4C1.79086 192 0 190.209 0 188V4Z" fill="white"/>
<path d="M132.833 87.061C131.038 87.0587 129.318 86.3445 128.048 85.0752C126.779 83.8059 126.065 82.0851 126.062 80.29C126.062 76.559 129.099 73.519 132.833 73.519C136.568 73.519 139.605 76.556 139.605 80.29C139.604 84.023 136.566 87.061 132.833 87.061ZM132.833 74.52C129.651 74.52 127.062 77.108 127.062 80.291C127.062 83.474 129.652 86.062 132.833 86.062C136.014 86.062 138.605 83.474 138.605 80.291C138.603 78.761 137.994 77.294 136.912 76.2121C135.831 75.1302 134.364 74.5216 132.833 74.52Z" fill="#CB11AB"/>
<path d="M145.695 82H139C138.725 82 138.5 81.775 138.5 81.5C138.5 81.225 138.725 81 139 81H145.195C145.123 66.381 141.912 56.456 136.131 53H125C124.867 53 124.74 52.9473 124.646 52.8536C124.553 52.7598 124.5 52.6326 124.5 52.5C124.5 52.3674 124.553 52.2402 124.646 52.1464C124.74 52.0527 124.867 52 125 52H136.268C136.356 52 136.444 52.023 136.52 52.067C144.94 56.948 146.198 72.604 146.198 81.5C146.197 81.6328 146.144 81.7598 146.049 81.8534C145.955 81.9471 145.828 81.9997 145.695 82ZM126 82H97C96.8674 82 96.7402 81.9473 96.6464 81.8536C96.5527 81.7598 96.5 81.6326 96.5 81.5C96.5 81.3674 96.5527 81.2402 96.6464 81.1464C96.7402 81.0527 96.8674 81 97 81H126C126.275 81 126.5 81.225 126.5 81.5C126.5 81.775 126.275 82 126 82ZM84 82H75.5C75.3674 82 75.2402 81.9473 75.1464 81.8536C75.0527 81.7598 75 81.6326 75 81.5V71C75 70.8674 75.0527 70.7402 75.1464 70.6464C75.2402 70.5527 75.3674 70.5 75.5 70.5C75.6326 70.5 75.7598 70.5527 75.8536 70.6464C75.9473 70.7402 76 70.8674 76 71V81H84C84.1326 81 84.2598 81.0527 84.3536 81.1464C84.4473 81.2402 84.5 81.3674 84.5 81.5C84.5 81.6326 84.4473 81.7598 84.3536 81.8536C84.2598 81.9473 84.1326 82 84 82ZM139.041 67H129.5C129.367 66.9997 129.24 66.947 129.147 66.8533C129.053 66.7595 129 66.6325 129 66.5V56.5C129 56.3674 129.053 56.2402 129.146 56.1464C129.24 56.0527 129.367 56 129.5 56H134.46C134.587 55.9999 134.709 56.0482 134.802 56.135C137.012 58.205 139.358 63.325 139.54 66.47C139.544 66.5382 139.534 66.6065 139.511 66.6707C139.487 66.7348 139.451 66.7935 139.404 66.843C139.358 66.8928 139.301 66.9324 139.239 66.9594C139.176 66.9864 139.109 67.0002 139.041 67ZM130 66H138.491C138.122 63.147 136.123 58.865 134.258 57H130V66Z" fill="#CB11AB"/>
<path d="M124.5 73H75.5C75.3674 73 75.2402 72.9473 75.1464 72.8536C75.0527 72.7598 75 72.6326 75 72.5V43.5C75 43.3674 75.0527 43.2402 75.1464 43.1464C75.2402 43.0527 75.3674 43 75.5 43H124.5C124.633 43 124.76 43.0527 124.854 43.1464C124.947 43.2402 125 43.3674 125 43.5V72.5C125 72.775 124.775 73 124.5 73ZM76 72H124V44H76V72ZM90.845 87.061C89.0499 87.0589 87.3289 86.3448 86.0595 85.0755C84.7902 83.8061 84.0761 82.0851 84.074 80.29C84.074 76.559 87.112 73.519 90.845 73.519C92.6401 73.5211 94.3611 74.2352 95.6305 75.5045C96.8998 76.7739 97.6139 78.4949 97.616 80.29C97.615 84.023 94.578 87.061 90.845 87.061ZM90.845 74.52C87.662 74.52 85.074 77.108 85.074 80.291C85.074 83.474 87.663 86.062 90.845 86.062C92.3751 86.0604 93.842 85.4519 94.924 84.37C96.0059 83.288 96.6144 81.8211 96.616 80.291C96.6141 78.761 96.0055 77.2942 94.9237 76.2123C93.8418 75.1305 92.375 74.5219 90.845 74.52ZM134 71H132C131.725 71 131.5 70.775 131.5 70.5C131.5 70.225 131.725 70 132 70H134C134.275 70 134.5 70.225 134.5 70.5C134.5 70.775 134.275 71 134 71Z" fill="#CB11AB"/>
<path d="M39.9247 138.818V134.75H40.6747C40.9323 134.515 41.1747 134.184 41.402 133.756C41.633 133.324 41.8281 132.748 41.9872 132.028C42.1501 131.305 42.258 130.386 42.3111 129.273L42.5611 124.364H49.4702V134.75H50.8111V138.795H49.4702V136H41.2656V138.818H39.9247ZM42.3565 134.75H48.1293V125.614H43.8338L43.652 129.273C43.6065 130.121 43.527 130.89 43.4134 131.58C43.2997 132.265 43.1539 132.873 42.9759 133.403C42.7978 133.93 42.5914 134.379 42.3565 134.75ZM56.304 136.182C55.5161 136.182 54.8248 135.994 54.2301 135.619C53.6392 135.244 53.1771 134.72 52.8438 134.045C52.5142 133.371 52.3494 132.583 52.3494 131.682C52.3494 130.773 52.5142 129.979 52.8438 129.301C53.1771 128.623 53.6392 128.097 54.2301 127.722C54.8248 127.347 55.5161 127.159 56.304 127.159C57.0919 127.159 57.7813 127.347 58.3722 127.722C58.9669 128.097 59.429 128.623 59.7585 129.301C60.0919 129.979 60.2585 130.773 60.2585 131.682C60.2585 132.583 60.0919 133.371 59.7585 134.045C59.429 134.72 58.9669 135.244 58.3722 135.619C57.7813 135.994 57.0919 136.182 56.304 136.182ZM56.304 134.977C56.9025 134.977 57.3949 134.824 57.7812 134.517C58.1676 134.21 58.4536 133.807 58.6392 133.307C58.8248 132.807 58.9176 132.265 58.9176 131.682C58.9176 131.098 58.8248 130.555 58.6392 130.051C58.4536 129.547 58.1676 129.14 57.7812 128.83C57.3949 128.519 56.9025 128.364 56.304 128.364C55.7055 128.364 55.2131 128.519 54.8267 128.83C54.4403 129.14 54.1544 129.547 53.9688 130.051C53.7831 130.555 53.6903 131.098 53.6903 131.682C53.6903 132.265 53.7831 132.807 53.9688 133.307C54.1544 133.807 54.4403 134.21 54.8267 134.517C55.2131 134.824 55.7055 134.977 56.304 134.977ZM65.8509 136.182C65.0327 136.182 64.3281 135.989 63.7372 135.602C63.1463 135.216 62.6918 134.684 62.3736 134.006C62.0554 133.328 61.8963 132.553 61.8963 131.682C61.8963 130.795 62.0592 130.013 62.3849 129.335C62.7145 128.653 63.1728 128.121 63.7599 127.739C64.3509 127.352 65.0402 127.159 65.8281 127.159C66.4418 127.159 66.9948 127.273 67.4872 127.5C67.9796 127.727 68.383 128.045 68.6974 128.455C69.0118 128.864 69.2069 129.341 69.2827 129.886H67.9418C67.8395 129.489 67.6122 129.136 67.2599 128.83C66.9115 128.519 66.4418 128.364 65.8509 128.364C65.3281 128.364 64.8698 128.5 64.4759 128.773C64.0857 129.042 63.7808 129.422 63.5611 129.915C63.3452 130.403 63.2372 130.977 63.2372 131.636C63.2372 132.311 63.3433 132.898 63.5554 133.398C63.7713 133.898 64.0743 134.286 64.4645 134.562C64.8584 134.839 65.3205 134.977 65.8509 134.977C66.1993 134.977 66.5156 134.917 66.7997 134.795C67.0838 134.674 67.3243 134.5 67.5213 134.273C67.7183 134.045 67.8584 133.773 67.9418 133.455H69.2827C69.2069 133.97 69.0194 134.434 68.7202 134.847C68.4247 135.256 68.0327 135.581 67.544 135.824C67.0592 136.062 66.4948 136.182 65.8509 136.182ZM70.5554 128.523V127.273H77.6463V128.523H74.7827V136H73.4418V128.523H70.5554ZM81.7173 136.205C81.1643 136.205 80.6624 136.1 80.2116 135.892C79.7609 135.68 79.4029 135.375 79.1378 134.977C78.8726 134.576 78.7401 134.091 78.7401 133.523C78.7401 133.023 78.8385 132.617 79.0355 132.307C79.2325 131.992 79.4957 131.746 79.8253 131.568C80.1548 131.39 80.5185 131.258 80.9162 131.17C81.3177 131.08 81.7211 131.008 82.1264 130.955C82.6567 130.886 83.0866 130.835 83.4162 130.801C83.7495 130.763 83.992 130.701 84.1435 130.614C84.2988 130.527 84.3764 130.375 84.3764 130.159V130.114C84.3764 129.553 84.223 129.117 83.9162 128.807C83.6132 128.496 83.1529 128.341 82.5355 128.341C81.8954 128.341 81.3935 128.481 81.0298 128.761C80.6662 129.042 80.4105 129.341 80.2628 129.659L78.9901 129.205C79.2173 128.674 79.5204 128.261 79.8991 127.966C80.2817 127.667 80.6984 127.458 81.1491 127.341C81.6037 127.22 82.0507 127.159 82.4901 127.159C82.7704 127.159 83.0923 127.193 83.456 127.261C83.8234 127.326 84.1776 127.46 84.5185 127.665C84.8632 127.869 85.1491 128.178 85.3764 128.591C85.6037 129.004 85.7173 129.557 85.7173 130.25V136H84.3764V134.818H84.3082C84.2173 135.008 84.0658 135.21 83.8537 135.426C83.6416 135.642 83.3594 135.826 83.0071 135.977C82.6548 136.129 82.2249 136.205 81.7173 136.205ZM81.9219 135C82.4522 135 82.8991 134.896 83.2628 134.688C83.6302 134.479 83.9067 134.21 84.0923 133.881C84.2817 133.551 84.3764 133.205 84.3764 132.841V131.614C84.3196 131.682 84.1946 131.744 84.0014 131.801C83.812 131.854 83.5923 131.902 83.3423 131.943C83.0961 131.981 82.8556 132.015 82.6207 132.045C82.3897 132.072 82.2022 132.095 82.0582 132.114C81.7098 132.159 81.384 132.233 81.081 132.335C80.7817 132.434 80.5393 132.583 80.3537 132.784C80.1719 132.981 80.081 133.25 80.081 133.591C80.081 134.057 80.2533 134.409 80.598 134.648C80.9465 134.883 81.3878 135 81.9219 135ZM88.1648 136V127.273H91.733C92.6723 127.273 93.4186 127.485 93.9716 127.909C94.5246 128.333 94.8011 128.894 94.8011 129.591C94.8011 130.121 94.6439 130.532 94.3295 130.824C94.0152 131.112 93.6117 131.307 93.1193 131.409C93.4413 131.455 93.7538 131.568 94.0568 131.75C94.3636 131.932 94.6174 132.182 94.8182 132.5C95.0189 132.814 95.1193 133.201 95.1193 133.659C95.1193 134.106 95.0057 134.506 94.7784 134.858C94.5511 135.21 94.2254 135.489 93.8011 135.693C93.3769 135.898 92.8693 136 92.2784 136H88.1648ZM89.4375 134.773H92.2784C92.7405 134.773 93.1023 134.663 93.3636 134.443C93.625 134.223 93.7557 133.924 93.7557 133.545C93.7557 133.095 93.625 132.741 93.3636 132.483C93.1023 132.222 92.7405 132.091 92.2784 132.091H89.4375V134.773ZM89.4375 130.932H91.733C92.0928 130.932 92.4015 130.883 92.6591 130.784C92.9167 130.682 93.1136 130.538 93.25 130.352C93.3902 130.163 93.4602 129.939 93.4602 129.682C93.4602 129.314 93.3068 129.027 93 128.818C92.6932 128.606 92.2708 128.5 91.733 128.5H89.4375V130.932ZM97.1491 136V127.273H98.4901V131.068H99.3764L102.513 127.273H104.24L100.717 131.477L104.286 136H102.558L99.6946 132.318H98.4901V136H97.1491ZM108.311 136.205C107.758 136.205 107.256 136.1 106.805 135.892C106.355 135.68 105.997 135.375 105.732 134.977C105.466 134.576 105.334 134.091 105.334 133.523C105.334 133.023 105.432 132.617 105.629 132.307C105.826 131.992 106.089 131.746 106.419 131.568C106.749 131.39 107.112 131.258 107.51 131.17C107.911 131.08 108.315 131.008 108.72 130.955C109.25 130.886 109.68 130.835 110.01 130.801C110.343 130.763 110.586 130.701 110.737 130.614C110.893 130.527 110.97 130.375 110.97 130.159V130.114C110.97 129.553 110.817 129.117 110.51 128.807C110.207 128.496 109.747 128.341 109.129 128.341C108.489 128.341 107.987 128.481 107.624 128.761C107.26 129.042 107.004 129.341 106.857 129.659L105.584 129.205C105.811 128.674 106.114 128.261 106.493 127.966C106.875 127.667 107.292 127.458 107.743 127.341C108.197 127.22 108.644 127.159 109.084 127.159C109.364 127.159 109.686 127.193 110.05 127.261C110.417 127.326 110.771 127.46 111.112 127.665C111.457 127.869 111.743 128.178 111.97 128.591C112.197 129.004 112.311 129.557 112.311 130.25V136H110.97V134.818H110.902C110.811 135.008 110.66 135.21 110.447 135.426C110.235 135.642 109.953 135.826 109.601 135.977C109.249 136.129 108.819 136.205 108.311 136.205ZM108.516 135C109.046 135 109.493 134.896 109.857 134.688C110.224 134.479 110.5 134.21 110.686 133.881C110.875 133.551 110.97 133.205 110.97 132.841V131.614C110.913 131.682 110.788 131.744 110.595 131.801C110.406 131.854 110.186 131.902 109.936 131.943C109.69 131.981 109.449 132.015 109.214 132.045C108.983 132.072 108.796 132.095 108.652 132.114C108.304 132.159 107.978 132.233 107.675 132.335C107.375 132.434 107.133 132.583 106.947 132.784C106.766 132.981 106.675 133.25 106.675 133.591C106.675 134.057 106.847 134.409 107.192 134.648C107.54 134.883 107.982 135 108.516 135ZM119.259 136V127.273H122.827C123.766 127.273 124.512 127.485 125.065 127.909C125.618 128.333 125.895 128.894 125.895 129.591C125.895 130.121 125.738 130.532 125.423 130.824C125.109 131.112 124.705 131.307 124.213 131.409C124.535 131.455 124.848 131.568 125.151 131.75C125.457 131.932 125.711 132.182 125.912 132.5C126.113 132.814 126.213 133.201 126.213 133.659C126.213 134.106 126.099 134.506 125.872 134.858C125.645 135.21 125.319 135.489 124.895 135.693C124.471 135.898 123.963 136 123.372 136H119.259ZM120.531 134.773H123.372C123.834 134.773 124.196 134.663 124.457 134.443C124.719 134.223 124.849 133.924 124.849 133.545C124.849 133.095 124.719 132.741 124.457 132.483C124.196 132.222 123.834 132.091 123.372 132.091H120.531V134.773ZM120.531 130.932H122.827C123.187 130.932 123.495 130.883 123.753 130.784C124.01 130.682 124.207 130.538 124.344 130.352C124.484 130.163 124.554 129.939 124.554 129.682C124.554 129.314 124.401 129.027 124.094 128.818C123.787 128.606 123.365 128.5 122.827 128.5H120.531V130.932ZM131.97 136V134.75H132.288C132.55 134.75 132.768 134.699 132.942 134.597C133.116 134.491 133.256 134.307 133.362 134.045C133.472 133.78 133.555 133.413 133.612 132.943C133.673 132.47 133.716 131.867 133.743 131.136L133.902 127.273H139.72V136H138.379V128.523H135.175L135.038 131.636C135.008 132.352 134.944 132.983 134.845 133.528C134.75 134.07 134.605 134.525 134.408 134.892C134.214 135.259 133.957 135.536 133.635 135.722C133.313 135.907 132.91 136 132.425 136H131.97ZM146.362 131.091V132.341H141.749V131.091H146.362ZM142.885 127.273V136H141.544V127.273H142.885ZM149.044 136.182C148.256 136.182 147.565 135.994 146.97 135.619C146.379 135.244 145.917 134.72 145.584 134.045C145.254 133.371 145.089 132.583 145.089 131.682C145.089 130.773 145.254 129.979 145.584 129.301C145.917 128.623 146.379 128.097 146.97 127.722C147.565 127.347 148.256 127.159 149.044 127.159C149.832 127.159 150.521 127.347 151.112 127.722C151.707 128.097 152.169 128.623 152.499 129.301C152.832 129.979 152.999 130.773 152.999 131.682C152.999 132.583 152.832 133.371 152.499 134.045C152.169 134.72 151.707 135.244 151.112 135.619C150.521 135.994 149.832 136.182 149.044 136.182ZM149.044 134.977C149.643 134.977 150.135 134.824 150.521 134.517C150.908 134.21 151.194 133.807 151.379 133.307C151.565 132.807 151.658 132.265 151.658 131.682C151.658 131.098 151.565 130.555 151.379 130.051C151.194 129.547 150.908 129.14 150.521 128.83C150.135 128.519 149.643 128.364 149.044 128.364C148.446 128.364 147.953 128.519 147.567 128.83C147.18 129.14 146.894 129.547 146.709 130.051C146.523 130.555 146.43 131.098 146.43 131.682C146.43 132.265 146.523 132.807 146.709 133.307C146.894 133.807 147.18 134.21 147.567 134.517C147.953 134.824 148.446 134.977 149.044 134.977ZM161.658 124L162.339 124.818C162.074 125.076 161.768 125.256 161.419 125.358C161.071 125.46 160.677 125.523 160.237 125.545C159.798 125.568 159.309 125.591 158.771 125.614C158.165 125.636 157.663 125.784 157.266 126.057C156.868 126.33 156.561 126.723 156.345 127.239C156.129 127.754 155.991 128.386 155.93 129.136H156.044C156.339 128.591 156.749 128.189 157.271 127.932C157.794 127.674 158.355 127.545 158.953 127.545C159.635 127.545 160.249 127.705 160.794 128.023C161.339 128.341 161.771 128.812 162.089 129.438C162.408 130.062 162.567 130.833 162.567 131.75C162.567 132.663 162.404 133.451 162.078 134.114C161.756 134.777 161.304 135.288 160.72 135.648C160.141 136.004 159.461 136.182 158.68 136.182C157.9 136.182 157.216 135.998 156.629 135.631C156.042 135.259 155.586 134.71 155.26 133.983C154.934 133.252 154.771 132.348 154.771 131.273V130.341C154.771 128.398 155.101 126.924 155.76 125.92C156.423 124.917 157.419 124.398 158.749 124.364C159.218 124.348 159.637 124.345 160.004 124.352C160.372 124.36 160.692 124.343 160.964 124.301C161.237 124.259 161.468 124.159 161.658 124ZM158.68 134.977C159.207 134.977 159.66 134.845 160.038 134.58C160.421 134.314 160.714 133.941 160.919 133.46C161.124 132.975 161.226 132.405 161.226 131.75C161.226 131.114 161.122 130.572 160.913 130.125C160.709 129.678 160.415 129.337 160.033 129.102C159.65 128.867 159.192 128.75 158.658 128.75C158.268 128.75 157.917 128.816 157.607 128.949C157.296 129.081 157.031 129.277 156.811 129.534C156.591 129.792 156.421 130.106 156.3 130.477C156.182 130.848 156.12 131.273 156.112 131.75C156.112 132.727 156.341 133.509 156.8 134.097C157.258 134.684 157.885 134.977 158.68 134.977ZM168.163 136.182C167.375 136.182 166.684 135.994 166.089 135.619C165.499 135.244 165.036 134.72 164.703 134.045C164.374 133.371 164.209 132.583 164.209 131.682C164.209 130.773 164.374 129.979 164.703 129.301C165.036 128.623 165.499 128.097 166.089 127.722C166.684 127.347 167.375 127.159 168.163 127.159C168.951 127.159 169.641 127.347 170.232 127.722C170.826 128.097 171.288 128.623 171.618 129.301C171.951 129.979 172.118 130.773 172.118 131.682C172.118 132.583 171.951 133.371 171.618 134.045C171.288 134.72 170.826 135.244 170.232 135.619C169.641 135.994 168.951 136.182 168.163 136.182ZM168.163 134.977C168.762 134.977 169.254 134.824 169.641 134.517C170.027 134.21 170.313 133.807 170.499 133.307C170.684 132.807 170.777 132.265 170.777 131.682C170.777 131.098 170.684 130.555 170.499 130.051C170.313 129.547 170.027 129.14 169.641 128.83C169.254 128.519 168.762 128.364 168.163 128.364C167.565 128.364 167.072 128.519 166.686 128.83C166.3 129.14 166.014 129.547 165.828 130.051C165.643 130.555 165.55 131.098 165.55 131.682C165.55 132.265 165.643 132.807 165.828 133.307C166.014 133.807 166.3 134.21 166.686 134.517C167.072 134.824 167.565 134.977 168.163 134.977ZM175.506 134.023L179.71 127.273H181.256V136H179.915V129.25L175.733 136H174.165V127.273H175.506V134.023ZM178.824 124.364H180.074C180.074 124.977 179.862 125.479 179.438 125.869C179.013 126.259 178.438 126.455 177.71 126.455C176.994 126.455 176.424 126.259 176 125.869C175.58 125.479 175.369 124.977 175.369 124.364H176.619C176.619 124.659 176.701 124.919 176.864 125.142C177.03 125.366 177.313 125.477 177.71 125.477C178.108 125.477 178.392 125.366 178.562 125.142C178.737 124.919 178.824 124.659 178.824 124.364ZM30.532 160.273V148.273H31.8274V149.659H31.9865C32.085 149.508 32.2214 149.314 32.3956 149.08C32.5736 148.841 32.8274 148.629 33.157 148.443C33.4903 148.254 33.9411 148.159 34.5092 148.159C35.2441 148.159 35.8918 148.343 36.4524 148.71C37.013 149.078 37.4505 149.598 37.7649 150.273C38.0793 150.947 38.2365 151.742 38.2365 152.659C38.2365 153.583 38.0793 154.384 37.7649 155.062C37.4505 155.737 37.0149 156.259 36.4581 156.631C35.9013 156.998 35.2592 157.182 34.532 157.182C33.9714 157.182 33.5225 157.089 33.1854 156.903C32.8482 156.714 32.5888 156.5 32.407 156.261C32.2251 156.019 32.085 155.818 31.9865 155.659H31.8729V160.273H30.532ZM31.8501 152.636C31.8501 153.295 31.9467 153.877 32.1399 154.381C32.3331 154.881 32.6153 155.273 32.9865 155.557C33.3577 155.837 33.8123 155.977 34.3501 155.977C34.9107 155.977 35.3786 155.83 35.7536 155.534C36.1323 155.235 36.4164 154.833 36.6058 154.33C36.799 153.822 36.8956 153.258 36.8956 152.636C36.8956 152.023 36.8009 151.47 36.6115 150.977C36.4259 150.481 36.1437 150.089 35.7649 149.801C35.3899 149.509 34.9183 149.364 34.3501 149.364C33.8047 149.364 33.3464 149.502 32.9751 149.778C32.6039 150.051 32.3236 150.434 32.1342 150.926C31.9448 151.415 31.8501 151.985 31.8501 152.636ZM43.9411 157.182C43.1001 157.182 42.3748 156.996 41.7649 156.625C41.1589 156.25 40.6911 155.727 40.3615 155.057C40.0357 154.383 39.8729 153.598 39.8729 152.705C39.8729 151.811 40.0357 151.023 40.3615 150.341C40.6911 149.655 41.1494 149.121 41.7365 148.739C42.3274 148.352 43.0168 148.159 43.8047 148.159C44.2592 148.159 44.7081 148.235 45.1513 148.386C45.5945 148.538 45.9979 148.784 46.3615 149.125C46.7251 149.462 47.0149 149.909 47.2308 150.466C47.4467 151.023 47.5547 151.708 47.5547 152.523V153.091H40.8274V151.932H46.1911C46.1911 151.439 46.0926 151 45.8956 150.614C45.7024 150.227 45.4259 149.922 45.0661 149.699C44.71 149.475 44.2895 149.364 43.8047 149.364C43.2706 149.364 42.8085 149.496 42.4183 149.761C42.032 150.023 41.7346 150.364 41.5263 150.784C41.3179 151.205 41.2138 151.655 41.2138 152.136V152.909C41.2138 153.568 41.3274 154.127 41.5547 154.585C41.7857 155.04 42.1058 155.386 42.5149 155.625C42.924 155.86 43.3994 155.977 43.9411 155.977C44.2933 155.977 44.6115 155.928 44.8956 155.83C45.1835 155.727 45.4316 155.576 45.6399 155.375C45.8482 155.17 46.0092 154.917 46.1229 154.614L47.4183 154.977C47.282 155.417 47.0528 155.803 46.7308 156.136C46.4089 156.466 46.0111 156.723 45.5376 156.909C45.0642 157.091 44.532 157.182 43.9411 157.182ZM54.9808 148.273V149.523H50.9354V157H49.5945V148.273H54.9808ZM58.2791 155.023L62.4837 148.273H64.0291V157H62.6882V150.25L58.5064 157H56.9382V148.273H58.2791V155.023ZM70.0305 157.182C69.2427 157.182 68.5514 156.994 67.9567 156.619C67.3658 156.244 66.9036 155.72 66.5703 155.045C66.2408 154.371 66.076 153.583 66.076 152.682C66.076 151.773 66.2408 150.979 66.5703 150.301C66.9036 149.623 67.3658 149.097 67.9567 148.722C68.5514 148.347 69.2427 148.159 70.0305 148.159C70.8184 148.159 71.5078 148.347 72.0987 148.722C72.6934 149.097 73.1555 149.623 73.4851 150.301C73.8184 150.979 73.9851 151.773 73.9851 152.682C73.9851 153.583 73.8184 154.371 73.4851 155.045C73.1555 155.72 72.6934 156.244 72.0987 156.619C71.5078 156.994 70.8184 157.182 70.0305 157.182ZM70.0305 155.977C70.629 155.977 71.1214 155.824 71.5078 155.517C71.8942 155.21 72.1802 154.807 72.3658 154.307C72.5514 153.807 72.6442 153.265 72.6442 152.682C72.6442 152.098 72.5514 151.555 72.3658 151.051C72.1802 150.547 71.8942 150.14 71.5078 149.83C71.1214 149.519 70.629 149.364 70.0305 149.364C69.4321 149.364 68.9396 149.519 68.5533 149.83C68.1669 150.14 67.8809 150.547 67.6953 151.051C67.5097 151.555 67.4169 152.098 67.4169 152.682C67.4169 153.265 67.5097 153.807 67.6953 154.307C67.8809 154.807 68.1669 155.21 68.5533 155.517C68.9396 155.824 69.4321 155.977 70.0305 155.977ZM81.8729 152.023V153.273H77.0547V152.023H81.8729ZM77.3729 148.273V157H76.032V148.273H77.3729ZM82.8956 148.273V157H81.5547V148.273H82.8956ZM96.8672 157L92.8672 151.659H91.4354V157H90.0263V145.364H91.4354V150.409H92.049L96.7081 145.364H98.3899L93.6854 150.477L98.549 157H96.8672ZM101.894 151.432H104.394C105.417 151.432 106.199 151.691 106.741 152.21C107.282 152.729 107.553 153.386 107.553 154.182C107.553 154.705 107.432 155.18 107.19 155.608C106.947 156.032 106.591 156.371 106.121 156.625C105.652 156.875 105.076 157 104.394 157H100.735V148.273H102.076V155.75H104.394C104.924 155.75 105.36 155.61 105.701 155.33C106.042 155.049 106.212 154.689 106.212 154.25C106.212 153.788 106.042 153.411 105.701 153.119C105.36 152.828 104.924 152.682 104.394 152.682H101.894V151.432ZM108.94 157V148.273H110.281V157H108.94ZM112.735 160.273V148.273H114.031V149.659H114.19C114.288 149.508 114.424 149.314 114.599 149.08C114.777 148.841 115.031 148.629 115.36 148.443C115.693 148.254 116.144 148.159 116.712 148.159C117.447 148.159 118.095 148.343 118.656 148.71C119.216 149.078 119.654 149.598 119.968 150.273C120.282 150.947 120.44 151.742 120.44 152.659C120.44 153.583 120.282 154.384 119.968 155.062C119.654 155.737 119.218 156.259 118.661 156.631C118.104 156.998 117.462 157.182 116.735 157.182C116.174 157.182 115.726 157.089 115.388 156.903C115.051 156.714 114.792 156.5 114.61 156.261C114.428 156.019 114.288 155.818 114.19 155.659H114.076V160.273H112.735ZM114.053 152.636C114.053 153.295 114.15 153.877 114.343 154.381C114.536 154.881 114.818 155.273 115.19 155.557C115.561 155.837 116.015 155.977 116.553 155.977C117.114 155.977 117.582 155.83 117.957 155.534C118.335 155.235 118.62 154.833 118.809 154.33C119.002 153.822 119.099 153.258 119.099 152.636C119.099 152.023 119.004 151.47 118.815 150.977C118.629 150.481 118.347 150.089 117.968 149.801C117.593 149.509 117.121 149.364 116.553 149.364C116.008 149.364 115.549 149.502 115.178 149.778C114.807 150.051 114.527 150.434 114.337 150.926C114.148 151.415 114.053 151.985 114.053 152.636ZM127.871 148.273V149.523H123.826V157H122.485V148.273H127.871ZM130.988 151.432H133.488C134.511 151.432 135.293 151.691 135.835 152.21C136.376 152.729 136.647 153.386 136.647 154.182C136.647 154.705 136.526 155.18 136.283 155.608C136.041 156.032 135.685 156.371 135.215 156.625C134.746 156.875 134.17 157 133.488 157H129.829V148.273H131.17V155.75H133.488C134.018 155.75 134.454 155.61 134.795 155.33C135.136 155.049 135.306 154.689 135.306 154.25C135.306 153.788 135.136 153.411 134.795 153.119C134.454 152.828 134.018 152.682 133.488 152.682H130.988V151.432ZM138.033 157V148.273H139.374V157H138.033ZM141.283 154.773H142.715C142.746 155.167 142.924 155.466 143.249 155.67C143.579 155.875 144.007 155.977 144.533 155.977C145.071 155.977 145.531 155.867 145.914 155.648C146.297 155.424 146.488 155.064 146.488 154.568C146.488 154.277 146.416 154.023 146.272 153.807C146.128 153.587 145.925 153.417 145.664 153.295C145.403 153.174 145.094 153.114 144.738 153.114H143.238V151.909H144.738C145.272 151.909 145.666 151.788 145.92 151.545C146.177 151.303 146.306 151 146.306 150.636C146.306 150.246 146.168 149.934 145.891 149.699C145.615 149.46 145.223 149.341 144.715 149.341C144.204 149.341 143.778 149.456 143.437 149.688C143.096 149.915 142.916 150.208 142.897 150.568H141.488C141.503 150.098 141.647 149.684 141.92 149.324C142.192 148.96 142.564 148.676 143.033 148.472C143.503 148.263 144.041 148.159 144.647 148.159C145.261 148.159 145.793 148.267 146.244 148.483C146.698 148.695 147.049 148.985 147.295 149.352C147.545 149.716 147.67 150.129 147.67 150.591C147.67 151.083 147.531 151.481 147.255 151.784C146.978 152.087 146.632 152.303 146.215 152.432V152.523C146.545 152.545 146.831 152.652 147.073 152.841C147.319 153.027 147.511 153.271 147.647 153.574C147.783 153.873 147.852 154.205 147.852 154.568C147.852 155.098 147.71 155.561 147.425 155.955C147.141 156.345 146.751 156.648 146.255 156.864C145.759 157.076 145.192 157.182 144.556 157.182C143.939 157.182 143.386 157.081 142.897 156.881C142.408 156.676 142.02 156.394 141.732 156.034C141.448 155.67 141.299 155.25 141.283 154.773ZM153.281 157.182C152.462 157.182 151.758 156.989 151.167 156.602C150.576 156.216 150.121 155.684 149.803 155.006C149.485 154.328 149.326 153.553 149.326 152.682C149.326 151.795 149.489 151.013 149.815 150.335C150.144 149.653 150.603 149.121 151.19 148.739C151.781 148.352 152.47 148.159 153.258 148.159C153.871 148.159 154.424 148.273 154.917 148.5C155.409 148.727 155.813 149.045 156.127 149.455C156.442 149.864 156.637 150.341 156.712 150.886H155.371C155.269 150.489 155.042 150.136 154.69 149.83C154.341 149.519 153.871 149.364 153.281 149.364C152.758 149.364 152.299 149.5 151.906 149.773C151.515 150.042 151.21 150.422 150.991 150.915C150.775 151.403 150.667 151.977 150.667 152.636C150.667 153.311 150.773 153.898 150.985 154.398C151.201 154.898 151.504 155.286 151.894 155.562C152.288 155.839 152.75 155.977 153.281 155.977C153.629 155.977 153.945 155.917 154.229 155.795C154.513 155.674 154.754 155.5 154.951 155.273C155.148 155.045 155.288 154.773 155.371 154.455H156.712C156.637 154.97 156.449 155.434 156.15 155.847C155.854 156.256 155.462 156.581 154.974 156.824C154.489 157.062 153.924 157.182 153.281 157.182ZM157.985 149.523V148.273H165.076V149.523H162.212V157H160.871V149.523H157.985ZM169.147 157.205C168.594 157.205 168.092 157.1 167.641 156.892C167.191 156.68 166.833 156.375 166.567 155.977C166.302 155.576 166.17 155.091 166.17 154.523C166.17 154.023 166.268 153.617 166.465 153.307C166.662 152.992 166.925 152.746 167.255 152.568C167.585 152.39 167.948 152.258 168.346 152.17C168.747 152.08 169.151 152.008 169.556 151.955C170.086 151.886 170.516 151.835 170.846 151.801C171.179 151.763 171.422 151.701 171.573 151.614C171.728 151.527 171.806 151.375 171.806 151.159V151.114C171.806 150.553 171.653 150.117 171.346 149.807C171.043 149.496 170.583 149.341 169.965 149.341C169.325 149.341 168.823 149.481 168.46 149.761C168.096 150.042 167.84 150.341 167.692 150.659L166.42 150.205C166.647 149.674 166.95 149.261 167.329 148.966C167.711 148.667 168.128 148.458 168.579 148.341C169.033 148.22 169.48 148.159 169.92 148.159C170.2 148.159 170.522 148.193 170.886 148.261C171.253 148.326 171.607 148.46 171.948 148.665C172.293 148.869 172.579 149.178 172.806 149.591C173.033 150.004 173.147 150.557 173.147 151.25V157H171.806V155.818H171.738C171.647 156.008 171.496 156.21 171.283 156.426C171.071 156.642 170.789 156.826 170.437 156.977C170.085 157.129 169.655 157.205 169.147 157.205ZM169.352 156C169.882 156 170.329 155.896 170.692 155.688C171.06 155.479 171.336 155.21 171.522 154.881C171.711 154.551 171.806 154.205 171.806 153.841V152.614C171.749 152.682 171.624 152.744 171.431 152.801C171.242 152.854 171.022 152.902 170.772 152.943C170.526 152.981 170.285 153.015 170.05 153.045C169.819 153.072 169.632 153.095 169.488 153.114C169.139 153.159 168.814 153.233 168.511 153.335C168.211 153.434 167.969 153.583 167.783 153.784C167.602 153.981 167.511 154.25 167.511 154.591C167.511 155.057 167.683 155.409 168.028 155.648C168.376 155.883 168.817 156 169.352 156ZM181.435 152.023V153.273H176.617V152.023H181.435ZM176.935 148.273V157H175.594V148.273H176.935ZM182.458 148.273V157H181.117V148.273H182.458ZM187.475 157.205C186.922 157.205 186.42 157.1 185.969 156.892C185.519 156.68 185.161 156.375 184.896 155.977C184.63 155.576 184.498 155.091 184.498 154.523C184.498 154.023 184.596 153.617 184.793 153.307C184.99 152.992 185.254 152.746 185.583 152.568C185.913 152.39 186.276 152.258 186.674 152.17C187.076 152.08 187.479 152.008 187.884 151.955C188.415 151.886 188.844 151.835 189.174 151.801C189.507 151.763 189.75 151.701 189.901 151.614C190.057 151.527 190.134 151.375 190.134 151.159V151.114C190.134 150.553 189.981 150.117 189.674 149.807C189.371 149.496 188.911 149.341 188.293 149.341C187.653 149.341 187.151 149.481 186.788 149.761C186.424 150.042 186.168 150.341 186.021 150.659L184.748 150.205C184.975 149.674 185.278 149.261 185.657 148.966C186.04 148.667 186.456 148.458 186.907 148.341C187.362 148.22 187.808 148.159 188.248 148.159C188.528 148.159 188.85 148.193 189.214 148.261C189.581 148.326 189.935 148.46 190.276 148.665C190.621 148.869 190.907 149.178 191.134 149.591C191.362 150.004 191.475 150.557 191.475 151.25V157H190.134V155.818H190.066C189.975 156.008 189.824 156.21 189.612 156.426C189.399 156.642 189.117 156.826 188.765 156.977C188.413 157.129 187.983 157.205 187.475 157.205ZM187.68 156C188.21 156 188.657 155.896 189.021 155.688C189.388 155.479 189.665 155.21 189.85 154.881C190.04 154.551 190.134 154.205 190.134 153.841V152.614C190.077 152.682 189.952 152.744 189.759 152.801C189.57 152.854 189.35 152.902 189.1 152.943C188.854 152.981 188.613 153.015 188.379 153.045C188.147 153.072 187.96 153.095 187.816 153.114C187.468 153.159 187.142 153.233 186.839 153.335C186.54 153.434 186.297 153.583 186.112 153.784C185.93 153.981 185.839 154.25 185.839 154.591C185.839 155.057 186.011 155.409 186.356 155.648C186.704 155.883 187.146 156 187.68 156Z" fill="#292929"/>
</svg>
