<svg width="28" height="21" viewBox="0 0 28 21" fill="none" xmlns="http://www.w3.org/2000/svg">
<path d="M19.3535 3.86719C18.9338 3.86719 18.5213 3.89888 18.1182 3.95952V0.537109C18.1182 0.240464 17.8777 0 17.5811 0H2.1123C1.81566 0 1.57519 0.240464 1.57519 0.537109V3.86719H0.662109C0.365464 3.86719 0.125 4.10765 0.125 4.4043V8.27149C0.125 8.56813 0.365464 8.80859 0.662109 8.80859H1.57519V11.6016H0.662109C0.365464 11.6016 0.125 11.842 0.125 12.1387V16.0059C0.125 16.3025 0.365464 16.543 0.662109 16.543H1.57519V19.873C1.57519 20.1697 1.81566 20.4102 2.1123 20.4102H19.3535C23.9144 20.4102 27.625 16.6996 27.625 12.1387C27.625 7.57775 23.9144 3.86719 19.3535 3.86719ZM7.30212 15.4688V12.6758H11.0999C11.1636 13.6636 11.4012 14.6047 11.7828 15.4688H7.30212ZM4.40173 15.4688V12.6758H6.2279V15.4688H4.40173ZM4.40173 4.94141H6.2279V7.73438H4.40173V4.94141ZM5.85193 8.80859H7.6781V11.6016H5.85193V8.80859ZM11.0999 11.6016H8.75232V8.80859H11.7828C11.4013 9.67264 11.1636 10.6137 11.0999 11.6016ZM12.3552 7.73438H7.30212V4.94141H15.2811C14.0911 5.61736 13.0845 6.5798 12.3552 7.73438ZM17.0439 3.86719H8.75232V1.07422H17.0439V3.86719ZM7.6781 1.07422V3.86719H5.85193V1.07422H7.6781ZM2.64941 1.07422H4.77771V3.86719H2.64941V1.07422ZM1.19922 4.94141H3.32751V7.73438H1.19922V4.94141ZM2.64941 8.80859H4.77771V11.6016H2.64941V8.80859ZM1.19922 12.6758H3.32751V15.4688H1.19922V12.6758ZM2.64941 16.543H4.77771V19.3359H2.64941V16.543ZM5.85193 19.3359V16.543H7.6781V19.3359H5.85193ZM8.75232 19.3359V16.543H12.3552C13.0845 17.6975 14.0911 18.66 15.2811 19.3359H8.75232ZM19.3535 19.3359C15.3849 19.3359 12.1562 16.1073 12.1562 12.1387C12.1562 8.17008 15.3849 4.94141 19.3535 4.94141C23.3221 4.94141 26.5508 8.17008 26.5508 12.1387C26.5508 16.1073 23.3221 19.3359 19.3535 19.3359Z" fill="#CB11AB"/>
</svg>
