<svg width="222" height="192" viewBox="0 0 222 192" fill="none" xmlns="http://www.w3.org/2000/svg">
<path d="M0 4C0 1.79086 1.79086 0 4 0H218C220.209 0 222 1.79086 222 4V188C222 190.209 220.209 192 218 192H4C1.79086 192 0 190.209 0 188V4Z" fill="white"/>
<path d="M84.8468 71.6409C84.8018 71.6409 84.7571 71.6348 84.7138 71.6229L74.7488 68.8709C74.6854 68.8536 74.6261 68.8241 74.5742 68.7839C74.5223 68.7436 74.4789 68.6936 74.4463 68.6365C74.4138 68.5795 74.3929 68.5166 74.3847 68.4515C74.3766 68.3863 74.3813 68.3202 74.3988 68.2569L80.4498 46.3319C80.4855 46.2044 80.5702 46.0961 80.6854 46.0307C80.8006 45.9654 80.937 45.9482 81.0648 45.9829L91.0318 48.7339C91.1597 48.7692 91.2683 48.8537 91.3339 48.969C91.3995 49.0843 91.4167 49.2209 91.3818 49.3489L85.3288 71.2729C85.2997 71.3785 85.2368 71.4716 85.1498 71.5381C85.0627 71.6046 84.9563 71.6407 84.8468 71.6409ZM75.4968 68.0409L84.4978 70.5249L90.2838 49.5649L81.2808 47.0799L75.4968 68.0409ZM108.044 86.4909C107.43 86.4909 106.836 86.2709 106.392 85.8279L99.6518 79.0859C99.6098 79.0439 99.5756 78.9948 99.5508 78.9409C96.1758 75.7129 91.7118 71.3359 89.2978 68.5189C89.2448 68.4564 89.2078 68.382 89.1898 68.3021C89.1719 68.2221 89.1736 68.139 89.1948 68.0599C89.2198 67.9679 91.7228 58.8849 92.7438 54.7189C92.7665 54.6266 92.815 54.5426 92.8838 54.4769C92.9525 54.4112 93.0385 54.3664 93.1318 54.3479C95.2318 53.9279 101.429 53.4149 105.669 53.4149C105.801 53.4149 105.929 53.4676 106.022 53.5613C106.116 53.6551 106.169 53.7823 106.169 53.9149C106.169 54.0475 106.116 54.1747 106.022 54.2684C105.929 54.3622 105.801 54.4149 105.669 54.4149C101.748 54.4149 95.9188 54.8789 93.6378 55.2709C92.6738 59.1559 90.6358 66.5919 90.2308 68.0669C92.6898 70.8989 97.0878 75.2039 100.384 78.3539C100.432 78.3995 100.471 78.4546 100.497 78.5159L107.099 85.1199C107.665 85.6839 108.675 85.5989 109.351 84.9229L109.531 84.7429C110.205 84.0689 110.293 83.0589 109.726 82.4929L104.663 77.2759C104.608 77.221 104.567 77.1543 104.543 77.0809L104.399 76.9309C104.353 76.8835 104.318 76.8276 104.294 76.7664C104.27 76.7052 104.258 76.6399 104.26 76.5743C104.261 76.5086 104.276 76.4439 104.302 76.3838C104.328 76.3237 104.366 76.2693 104.414 76.2239L105.41 75.2709C105.509 75.1852 105.635 75.1361 105.766 75.1319C105.898 75.1351 106.025 75.1904 106.117 75.2859L107.101 76.3149L112.901 82.0869C113.163 82.3499 113.54 82.5089 113.932 82.4869C114.34 82.4763 114.727 82.307 115.012 82.0149L115.175 81.8509C115.473 81.5539 115.639 81.1669 115.645 80.7609C115.649 80.5711 115.616 80.3823 115.546 80.2058C115.475 80.0293 115.37 79.8688 115.237 79.7339L109.848 74.3429C109.8 74.2959 109.762 74.2393 109.738 74.1769L108.169 72.6159C108.122 72.5694 108.084 72.514 108.059 72.4528C108.033 72.3916 108.02 72.326 108.021 72.2598C108.021 72.1935 108.034 72.128 108.06 72.0671C108.086 72.0061 108.124 71.951 108.172 71.9049L109.147 70.9549C109.241 70.8636 109.367 70.8128 109.498 70.8134C109.629 70.8139 109.755 70.8658 109.848 70.9579L117.952 78.9789C118.186 79.2139 118.513 79.3229 118.979 79.3229C119.456 79.3229 119.783 79.2179 120.008 78.9919L120.237 78.8209C120.455 78.5929 120.598 78.2559 120.598 77.8699C120.598 77.4849 120.452 77.1359 120.172 76.8579L113.331 70.0629C113.29 70.0204 113.256 69.9718 113.23 69.9189L112.656 69.3459C112.563 69.2516 112.51 69.1243 112.511 68.9917C112.511 68.8591 112.563 68.732 112.657 68.6379L113.632 67.6649C113.726 67.5721 113.853 67.5201 113.985 67.5203C114.117 67.5205 114.244 67.5728 114.338 67.6659L122.29 75.6009C122.592 75.8993 122.999 76.0667 123.423 76.0667C123.848 76.0667 124.255 75.8993 124.557 75.6009L124.725 75.4329C124.873 75.2882 124.992 75.1153 125.072 74.9243C125.153 74.7333 125.195 74.5281 125.195 74.3207C125.196 74.1133 125.155 73.908 125.075 73.7167C124.994 73.5254 124.877 73.3521 124.729 73.2069L119.253 67.7729C119.16 67.6795 119.107 67.5533 119.106 67.4214C119.105 67.2896 119.156 67.1626 119.248 67.0679C119.341 66.9721 119.469 66.9166 119.602 66.9131C119.736 66.9095 119.866 66.9582 119.965 67.0489C119.997 67.0785 120.025 67.1133 120.046 67.1519L125.434 72.4979C125.675 72.7363 125.866 73.0202 125.996 73.3331C126.127 73.646 126.194 73.9817 126.193 74.3207C126.193 74.6597 126.125 74.9953 125.994 75.3079C125.863 75.6205 125.671 75.904 125.43 76.1419L125.264 76.3099C124.774 76.794 124.113 77.0657 123.425 77.0661C122.736 77.0664 122.075 76.7955 121.585 76.3119L113.982 68.7259L113.716 68.9929L114.056 69.3319C114.096 69.3726 114.129 69.4195 114.154 69.4709L120.879 76.1509C121.342 76.6129 121.598 77.2229 121.598 77.8729C121.598 78.1915 121.535 78.507 121.411 78.8008C121.288 79.0947 121.107 79.3609 120.88 79.5839L120.651 79.7559C120.296 80.1209 119.727 80.3239 118.981 80.3239C118.251 80.3239 117.668 80.1099 117.247 79.6899L109.493 72.0159L109.234 72.2679L110.583 73.6099C110.632 73.6599 110.669 73.7149 110.694 73.7779L115.944 79.0309C116.407 79.4939 116.655 80.1149 116.645 80.7779C116.635 81.4484 116.362 82.0882 115.885 82.5589L115.723 82.7229C115.252 83.2003 114.614 83.4754 113.944 83.4899C113.621 83.4959 113.3 83.4379 113 83.3191C112.699 83.2003 112.425 83.0232 112.194 82.7979L105.741 76.3399L105.464 76.6059C105.49 76.6449 105.511 76.6859 105.526 76.7289L107.415 78.6329L110.441 81.7949C110.905 82.2589 111.139 82.9059 111.092 83.6109C111.039 84.3074 110.736 84.9613 110.238 85.4509L110.058 85.6309C109.487 86.2009 108.752 86.4909 108.044 86.4909Z" fill="#CB11AB"/>
<path d="M126.306 73.9521C125.72 73.9521 125.263 73.7921 124.947 73.4741L112.993 61.5231C112.296 60.8261 111.569 60.4721 110.834 60.4721C110.063 60.4721 109.412 60.8371 108.876 61.1951C108.759 61.2731 108.452 61.5791 108.128 61.9021C106.762 63.2651 104.218 65.8031 101.818 65.8031C101.042 65.8068 100.291 65.5225 99.7122 65.0051C99.0292 64.4131 98.7232 63.5671 98.8232 62.5581C99.1842 58.9461 104.64 53.6801 107.374 52.1301C108.002 51.7741 108.779 51.5931 109.685 51.5931C112.595 51.5931 116.39 53.4641 118.659 54.5811C119.401 54.9471 120.043 55.2631 120.354 55.3631C121.583 55.7591 123.493 55.3021 126.125 53.9711C126.189 53.939 126.259 53.9209 126.331 53.9179C126.402 53.915 126.474 53.9273 126.54 53.9541C126.606 53.9815 126.666 54.0226 126.715 54.0749C126.764 54.1272 126.801 54.1893 126.824 54.2571C127 54.7771 131.144 67.0401 132.088 71.2761C132.111 71.378 132.102 71.4846 132.06 71.5807C132.019 71.6768 131.949 71.7574 131.859 71.8111C131.274 72.1691 128.255 73.9521 126.306 73.9521ZM110.834 59.4731C111.845 59.4731 112.81 59.9251 113.7 60.8171L125.651 72.7701C125.803 72.9201 126.09 72.9541 126.305 72.9541C127.522 72.9541 129.54 72.0161 131.031 71.1431C130.089 67.2001 126.862 57.5141 126.059 55.1201C123.415 56.3891 121.462 56.7721 120.045 56.3171C119.664 56.1941 119.057 55.8951 118.215 55.4801C116.026 54.4011 112.36 52.5951 109.683 52.5951C108.953 52.5951 108.341 52.7321 107.865 53.0021C105.228 54.4971 100.135 59.4851 99.8172 62.6591C99.7492 63.3501 99.9272 63.8711 100.366 64.2511C100.795 64.6231 101.269 64.8041 101.817 64.8041C103.803 64.8041 106.157 62.4561 107.421 61.1951C107.843 60.7741 108.121 60.4961 108.32 60.3631C108.943 59.9491 109.791 59.4731 110.834 59.4731ZM136.206 72.3931C136.1 72.393 135.996 72.3591 135.911 72.2961C135.825 72.2331 135.762 72.1445 135.73 72.0431L128.89 50.3511C128.851 50.2247 128.864 50.088 128.925 49.9707C128.986 49.8533 129.09 49.7647 129.216 49.7241L139.077 46.6151C139.14 46.5954 139.206 46.5882 139.271 46.594C139.337 46.5997 139.4 46.6183 139.458 46.6487C139.517 46.6791 139.568 46.7206 139.611 46.7709C139.653 46.8213 139.685 46.8794 139.704 46.9421L146.542 68.6341C146.562 68.6967 146.569 68.7627 146.564 68.8281C146.558 68.8936 146.54 68.9573 146.509 69.0157C146.479 69.074 146.438 69.1258 146.387 69.168C146.337 69.2103 146.279 69.2423 146.216 69.2621L136.357 72.3701C136.308 72.3852 136.257 72.3929 136.206 72.3931ZM129.993 50.5271L136.532 71.2661L145.438 68.4571L138.901 47.7181L129.993 50.5271Z" fill="#CB11AB"/>
<path d="M87.8523 131.182C87.8523 132.409 87.6307 133.47 87.1875 134.364C86.7443 135.258 86.1364 135.947 85.3636 136.432C84.5909 136.917 83.7083 137.159 82.7159 137.159C81.7235 137.159 80.8409 136.917 80.0682 136.432C79.2955 135.947 78.6875 135.258 78.2443 134.364C77.8011 133.47 77.5795 132.409 77.5795 131.182C77.5795 129.955 77.8011 128.894 78.2443 128C78.6875 127.106 79.2955 126.417 80.0682 125.932C80.8409 125.447 81.7235 125.205 82.7159 125.205C83.7083 125.205 84.5909 125.447 85.3636 125.932C86.1364 126.417 86.7443 127.106 87.1875 128C87.6307 128.894 87.8523 129.955 87.8523 131.182ZM86.4886 131.182C86.4886 130.174 86.3201 129.324 85.983 128.631C85.6496 127.938 85.197 127.413 84.625 127.057C84.0568 126.701 83.4205 126.523 82.7159 126.523C82.0114 126.523 81.3731 126.701 80.8011 127.057C80.233 127.413 79.7803 127.938 79.4432 128.631C79.1098 129.324 78.9432 130.174 78.9432 131.182C78.9432 132.189 79.1098 133.04 79.4432 133.733C79.7803 134.426 80.233 134.951 80.8011 135.307C81.3731 135.663 82.0114 135.841 82.7159 135.841C83.4205 135.841 84.0568 135.663 84.625 135.307C85.197 134.951 85.6496 134.426 85.983 133.733C86.3201 133.04 86.4886 132.189 86.4886 131.182ZM90.0398 137V128.273H96.9034V137H95.5625V129.523H91.3807V137H90.0398ZM98.1648 129.523V128.273H105.256V129.523H102.392V137H101.051V129.523H98.1648ZM110.304 137.182C109.516 137.182 108.825 136.994 108.23 136.619C107.639 136.244 107.177 135.72 106.844 135.045C106.514 134.371 106.349 133.583 106.349 132.682C106.349 131.773 106.514 130.979 106.844 130.301C107.177 129.623 107.639 129.097 108.23 128.722C108.825 128.347 109.516 128.159 110.304 128.159C111.092 128.159 111.781 128.347 112.372 128.722C112.967 129.097 113.429 129.623 113.759 130.301C114.092 130.979 114.259 131.773 114.259 132.682C114.259 133.583 114.092 134.371 113.759 135.045C113.429 135.72 112.967 136.244 112.372 136.619C111.781 136.994 111.092 137.182 110.304 137.182ZM110.304 135.977C110.902 135.977 111.395 135.824 111.781 135.517C112.168 135.21 112.454 134.807 112.639 134.307C112.825 133.807 112.918 133.265 112.918 132.682C112.918 132.098 112.825 131.555 112.639 131.051C112.454 130.547 112.168 130.14 111.781 129.83C111.395 129.519 110.902 129.364 110.304 129.364C109.705 129.364 109.213 129.519 108.827 129.83C108.44 130.14 108.154 130.547 107.969 131.051C107.783 131.555 107.69 132.098 107.69 132.682C107.69 133.265 107.783 133.807 107.969 134.307C108.154 134.807 108.44 135.21 108.827 135.517C109.213 135.824 109.705 135.977 110.304 135.977ZM116.305 137V128.273H119.874C120.813 128.273 121.559 128.485 122.112 128.909C122.665 129.333 122.942 129.894 122.942 130.591C122.942 131.121 122.785 131.532 122.47 131.824C122.156 132.112 121.752 132.307 121.26 132.409C121.582 132.455 121.894 132.568 122.197 132.75C122.504 132.932 122.758 133.182 122.959 133.5C123.16 133.814 123.26 134.201 123.26 134.659C123.26 135.106 123.146 135.506 122.919 135.858C122.692 136.21 122.366 136.489 121.942 136.693C121.518 136.898 121.01 137 120.419 137H116.305ZM117.578 135.773H120.419C120.881 135.773 121.243 135.663 121.504 135.443C121.766 135.223 121.896 134.924 121.896 134.545C121.896 134.095 121.766 133.741 121.504 133.483C121.243 133.222 120.881 133.091 120.419 133.091H117.578V135.773ZM117.578 131.932H119.874C120.233 131.932 120.542 131.883 120.8 131.784C121.057 131.682 121.254 131.538 121.391 131.352C121.531 131.163 121.601 130.939 121.601 130.682C121.601 130.314 121.447 130.027 121.141 129.818C120.834 129.606 120.411 129.5 119.874 129.5H117.578V131.932ZM126.449 131.432H128.949C129.972 131.432 130.754 131.691 131.295 132.21C131.837 132.729 132.108 133.386 132.108 134.182C132.108 134.705 131.987 135.18 131.744 135.608C131.502 136.032 131.146 136.371 130.676 136.625C130.206 136.875 129.631 137 128.949 137H125.29V128.273H126.631V135.75H128.949C129.479 135.75 129.915 135.61 130.256 135.33C130.597 135.049 130.767 134.689 130.767 134.25C130.767 133.788 130.597 133.411 130.256 133.119C129.915 132.828 129.479 132.682 128.949 132.682H126.449V131.432ZM133.494 137V128.273H134.835V137H133.494ZM140.949 137.182C140.108 137.182 139.383 136.996 138.773 136.625C138.167 136.25 137.699 135.727 137.369 135.057C137.044 134.383 136.881 133.598 136.881 132.705C136.881 131.811 137.044 131.023 137.369 130.341C137.699 129.655 138.157 129.121 138.744 128.739C139.335 128.352 140.025 128.159 140.812 128.159C141.267 128.159 141.716 128.235 142.159 128.386C142.602 128.538 143.006 128.784 143.369 129.125C143.733 129.462 144.023 129.909 144.239 130.466C144.455 131.023 144.562 131.708 144.562 132.523V133.091H137.835V131.932H143.199C143.199 131.439 143.1 131 142.903 130.614C142.71 130.227 142.434 129.922 142.074 129.699C141.718 129.475 141.297 129.364 140.812 129.364C140.278 129.364 139.816 129.496 139.426 129.761C139.04 130.023 138.742 130.364 138.534 130.784C138.326 131.205 138.222 131.655 138.222 132.136V132.909C138.222 133.568 138.335 134.127 138.562 134.585C138.794 135.04 139.114 135.386 139.523 135.625C139.932 135.86 140.407 135.977 140.949 135.977C141.301 135.977 141.619 135.928 141.903 135.83C142.191 135.727 142.439 135.576 142.648 135.375C142.856 135.17 143.017 134.917 143.131 134.614L144.426 134.977C144.29 135.417 144.061 135.803 143.739 136.136C143.417 136.466 143.019 136.723 142.545 136.909C142.072 137.091 141.54 137.182 140.949 137.182ZM77.032 159V150.273H83.8956V159H82.5547V151.523H78.3729V159H77.032ZM86.3445 162.273V150.273H87.6399V151.659H87.799C87.8975 151.508 88.0339 151.314 88.2081 151.08C88.3861 150.841 88.6399 150.629 88.9695 150.443C89.3028 150.254 89.7536 150.159 90.3217 150.159C91.0566 150.159 91.7043 150.343 92.2649 150.71C92.8255 151.078 93.263 151.598 93.5774 152.273C93.8918 152.947 94.049 153.742 94.049 154.659C94.049 155.583 93.8918 156.384 93.5774 157.062C93.263 157.737 92.8274 158.259 92.2706 158.631C91.7138 158.998 91.0717 159.182 90.3445 159.182C89.7839 159.182 89.335 159.089 88.9979 158.903C88.6607 158.714 88.4013 158.5 88.2195 158.261C88.0376 158.019 87.8975 157.818 87.799 157.659H87.6854V162.273H86.3445ZM87.6626 154.636C87.6626 155.295 87.7592 155.877 87.9524 156.381C88.1456 156.881 88.4278 157.273 88.799 157.557C89.1702 157.837 89.6248 157.977 90.1626 157.977C90.7232 157.977 91.1911 157.83 91.5661 157.534C91.9448 157.235 92.2289 156.833 92.4183 156.33C92.6115 155.822 92.7081 155.258 92.7081 154.636C92.7081 154.023 92.6134 153.47 92.424 152.977C92.2384 152.481 91.9562 152.089 91.5774 151.801C91.2024 151.509 90.7308 151.364 90.1626 151.364C89.6172 151.364 89.1589 151.502 88.7876 151.778C88.4164 152.051 88.1361 152.434 87.9467 152.926C87.7573 153.415 87.6626 153.985 87.6626 154.636ZM99.6399 159.182C98.852 159.182 98.1607 158.994 97.5661 158.619C96.9751 158.244 96.513 157.72 96.1797 157.045C95.8501 156.371 95.6854 155.583 95.6854 154.682C95.6854 153.773 95.8501 152.979 96.1797 152.301C96.513 151.623 96.9751 151.097 97.5661 150.722C98.1607 150.347 98.852 150.159 99.6399 150.159C100.428 150.159 101.117 150.347 101.708 150.722C102.303 151.097 102.765 151.623 103.094 152.301C103.428 152.979 103.594 153.773 103.594 154.682C103.594 155.583 103.428 156.371 103.094 157.045C102.765 157.72 102.303 158.244 101.708 158.619C101.117 158.994 100.428 159.182 99.6399 159.182ZM99.6399 157.977C100.238 157.977 100.731 157.824 101.117 157.517C101.504 157.21 101.79 156.807 101.975 156.307C102.161 155.807 102.254 155.265 102.254 154.682C102.254 154.098 102.161 153.555 101.975 153.051C101.79 152.547 101.504 152.14 101.117 151.83C100.731 151.519 100.238 151.364 99.6399 151.364C99.0414 151.364 98.549 151.519 98.1626 151.83C97.7763 152.14 97.4903 152.547 97.3047 153.051C97.1191 153.555 97.0263 154.098 97.0263 154.682C97.0263 155.265 97.1191 155.807 97.3047 156.307C97.4903 156.807 97.7763 157.21 98.1626 157.517C98.549 157.824 99.0414 157.977 99.6399 157.977ZM104.71 161.5V157.75H105.437C105.615 157.564 105.768 157.364 105.897 157.148C106.026 156.932 106.138 156.676 106.232 156.381C106.331 156.081 106.414 155.718 106.482 155.29C106.55 154.858 106.611 154.337 106.664 153.727L106.96 150.273H112.505V157.75H113.846V161.5H112.505V159H106.05V161.5H104.71ZM106.96 157.75H111.164V151.523H108.21L107.982 153.727C107.888 154.64 107.77 155.437 107.63 156.119C107.49 156.801 107.266 157.345 106.96 157.75ZM118.194 159.205C117.641 159.205 117.139 159.1 116.688 158.892C116.237 158.68 115.879 158.375 115.614 157.977C115.349 157.576 115.217 157.091 115.217 156.523C115.217 156.023 115.315 155.617 115.512 155.307C115.709 154.992 115.972 154.746 116.302 154.568C116.631 154.39 116.995 154.258 117.393 154.17C117.794 154.08 118.198 154.008 118.603 153.955C119.133 153.886 119.563 153.835 119.893 153.801C120.226 153.763 120.469 153.701 120.62 153.614C120.775 153.527 120.853 153.375 120.853 153.159V153.114C120.853 152.553 120.7 152.117 120.393 151.807C120.09 151.496 119.629 151.341 119.012 151.341C118.372 151.341 117.87 151.481 117.506 151.761C117.143 152.042 116.887 152.341 116.739 152.659L115.467 152.205C115.694 151.674 115.997 151.261 116.376 150.966C116.758 150.667 117.175 150.458 117.626 150.341C118.08 150.22 118.527 150.159 118.967 150.159C119.247 150.159 119.569 150.193 119.933 150.261C120.3 150.326 120.654 150.46 120.995 150.665C121.34 150.869 121.626 151.178 121.853 151.591C122.08 152.004 122.194 152.557 122.194 153.25V159H120.853V157.818H120.785C120.694 158.008 120.542 158.21 120.33 158.426C120.118 158.642 119.836 158.826 119.484 158.977C119.131 159.129 118.701 159.205 118.194 159.205ZM118.398 158C118.929 158 119.376 157.896 119.739 157.688C120.107 157.479 120.383 157.21 120.569 156.881C120.758 156.551 120.853 156.205 120.853 155.841V154.614C120.796 154.682 120.671 154.744 120.478 154.801C120.289 154.854 120.069 154.902 119.819 154.943C119.573 154.981 119.332 155.015 119.097 155.045C118.866 155.072 118.679 155.095 118.535 155.114C118.186 155.159 117.861 155.233 117.558 155.335C117.258 155.434 117.016 155.583 116.83 155.784C116.648 155.981 116.558 156.25 116.558 156.591C116.558 157.057 116.73 157.409 117.075 157.648C117.423 157.883 117.864 158 118.398 158ZM124.096 159L127.641 154.568L124.141 150.273H125.732L128.641 154H129.369V150.273H130.71V154H131.414L134.323 150.273H135.914L132.437 154.568L135.96 159H134.346L131.391 155.25H130.71V159H129.369V155.25H128.687L125.71 159H124.096ZM139.217 157.023L143.421 150.273H144.967V159H143.626V152.25L139.444 159H137.876V150.273H139.217V157.023Z" fill="#292929"/>
</svg>
