<svg width="18" height="18" viewBox="0 0 18 18" fill="none" xmlns="http://www.w3.org/2000/svg">
<path d="M1.83366 11.8332V1.83317H0.166992V0.166504H2.66699C2.88801 0.166504 3.09997 0.254301 3.25625 0.410582C3.41253 0.566862 3.50033 0.778823 3.50033 0.999837V10.9998H13.8653L15.532 4.33317H5.16699V2.6665H16.6003C16.727 2.66651 16.852 2.69539 16.9658 2.75095C17.0797 2.80651 17.1793 2.8873 17.2573 2.98716C17.3352 3.08702 17.3893 3.20334 17.4156 3.32726C17.4418 3.45119 17.4394 3.57946 17.4087 3.70234L15.3253 12.0357C15.2802 12.2159 15.1761 12.3758 15.0297 12.4901C14.8832 12.6044 14.7028 12.6665 14.517 12.6665H2.66699C2.44598 12.6665 2.23402 12.5787 2.07774 12.4224C1.92146 12.2661 1.83366 12.0542 1.83366 11.8332ZM3.50033 17.6665C3.0583 17.6665 2.63437 17.4909 2.32181 17.1783C2.00925 16.8658 1.83366 16.4419 1.83366 15.9998C1.83366 15.5578 2.00925 15.1339 2.32181 14.8213C2.63437 14.5088 3.0583 14.3332 3.50033 14.3332C3.94235 14.3332 4.36628 14.5088 4.67884 14.8213C4.9914 15.1339 5.16699 15.5578 5.16699 15.9998C5.16699 16.4419 4.9914 16.8658 4.67884 17.1783C4.36628 17.4909 3.94235 17.6665 3.50033 17.6665ZM13.5003 17.6665C13.0583 17.6665 12.6344 17.4909 12.3218 17.1783C12.0093 16.8658 11.8337 16.4419 11.8337 15.9998C11.8337 15.5578 12.0093 15.1339 12.3218 14.8213C12.6344 14.5088 13.0583 14.3332 13.5003 14.3332C13.9424 14.3332 14.3663 14.5088 14.6788 14.8213C14.9914 15.1339 15.167 15.5578 15.167 15.9998C15.167 16.4419 14.9914 16.8658 14.6788 17.1783C14.3663 17.4909 13.9424 17.6665 13.5003 17.6665Z" fill="white"/>
</svg>
