<svg width="18" height="18" viewBox="0 0 18 18" fill="none" xmlns="http://www.w3.org/2000/svg">
<path d="M13.1667 3.99935H17.3334V5.66602H15.6667V16.4993C15.6667 16.7204 15.5789 16.9323 15.4226 17.0886C15.2663 17.2449 15.0544 17.3327 14.8334 17.3327H3.16669C2.94567 17.3327 2.73371 17.2449 2.57743 17.0886C2.42115 16.9323 2.33335 16.7204 2.33335 16.4993V5.66602H0.666687V3.99935H4.83335V1.49935C4.83335 1.27834 4.92115 1.06637 5.07743 0.910093C5.23371 0.753813 5.44567 0.666016 5.66669 0.666016H12.3334C12.5544 0.666016 12.7663 0.753813 12.9226 0.910093C13.0789 1.06637 13.1667 1.27834 13.1667 1.49935V3.99935ZM14 5.66602H4.00002V15.666H14V5.66602ZM6.50002 8.16602H8.16669V13.166H6.50002V8.16602ZM9.83335 8.16602H11.5V13.166H9.83335V8.16602ZM6.50002 2.33268V3.99935H11.5V2.33268H6.50002Z" fill="#91969E"/>
</svg>
