<svg width="222" height="192" viewBox="0 0 222 192" fill="none" xmlns="http://www.w3.org/2000/svg">
<path d="M0 4C0 1.79086 1.79086 0 4 0H218C220.209 0 222 1.79086 222 4V188C222 190.209 220.209 192 218 192H4C1.79086 192 0 190.209 0 188V4Z" fill="white"/>
<path d="M118.651 82.674C117.435 82.6727 116.269 82.189 115.409 81.3291C114.548 80.4692 114.065 79.3033 114.063 78.087C114.063 75.557 116.122 73.499 118.651 73.499C121.18 73.499 123.239 75.557 123.239 78.087C123.237 79.3033 122.753 80.4692 121.893 81.3291C121.033 82.189 119.867 82.6727 118.651 82.674ZM118.651 74.499C117.699 74.4996 116.787 74.8777 116.114 75.5505C115.442 76.2233 115.063 77.1356 115.063 78.087C115.064 79.0383 115.442 79.9503 116.115 80.6229C116.787 81.2954 117.7 81.6735 118.651 81.674C119.602 81.6732 120.514 81.2951 121.187 80.6226C121.859 79.9501 122.238 79.0382 122.239 78.087C122.238 77.1356 121.86 76.2233 121.187 75.5505C120.515 74.8777 119.602 74.4996 118.651 74.499ZM122.501 97.5C122.395 97.5002 122.292 97.4666 122.207 97.404L118.501 94.709L114.795 97.404C114.795 97.4896 114.773 97.5737 114.731 97.6484C114.69 97.7231 114.629 97.7858 114.556 97.8306C114.484 97.8753 114.4 97.9006 114.315 97.9041C114.229 97.9075 114.144 97.8889 114.068 97.8501C113.992 97.8113 113.927 97.7536 113.879 97.6824C113.832 97.6113 113.803 97.5292 113.796 97.4439C113.79 97.3586 113.805 97.273 113.841 97.1953C113.877 97.1176 113.932 97.0503 114.001 97V86C114.001 85.725 114.226 85.5 114.501 85.5C114.776 85.5 115.001 85.725 115.001 86V96.018L118.207 93.686C118.292 93.6241 118.395 93.5907 118.501 93.5907C118.607 93.5907 118.709 93.6241 118.795 93.686L122.001 96.018V86C122.001 85.725 122.226 85.5 122.501 85.5C122.776 85.5 123.001 85.725 123.001 86V97C123.001 97.1326 122.948 97.2598 122.854 97.3536C122.761 97.4473 122.634 97.5 122.501 97.5Z" fill="#CB11AB"/>
<path d="M129 91H123C122.725 91 122.5 90.775 122.5 90.5C122.5 90.225 122.725 90 123 90H129C130.299 90 131 88.454 131 87V42C131 40.636 130.363 40 129 40H93C91.546 40 90 40.701 90 42V87C90 88.374 91.626 90 93 90H114C114.275 90 114.5 90.225 114.5 90.5C114.5 90.775 114.275 91 114 91H93C91.056 91 89 88.943 89 87V42C89 40.051 91.061 39 93 39H129C130.936 39 132 40.065 132 42V87C132 88.939 130.949 91 129 91Z" fill="#CB11AB"/>
<path d="M118.742 87.4321C118.618 87.4321 118.498 87.3862 118.406 87.3031L116.745 85.7991L114.553 86.2701C114.432 86.2969 114.306 86.2775 114.198 86.2157C114.091 86.1539 114.011 86.0542 113.973 85.9361L113.285 83.8011L111.151 83.1121C111.033 83.075 110.933 82.995 110.871 82.8878C110.809 82.7806 110.789 82.654 110.816 82.5331L111.287 80.3421L109.784 78.6781C109.701 78.5862 109.655 78.4669 109.655 78.3431C109.655 78.2194 109.701 78.1 109.784 78.0081L111.287 76.3451L110.816 74.1541C110.789 74.0331 110.809 73.9065 110.871 73.7992C110.933 73.6919 111.033 73.6116 111.151 73.5741L113.285 72.8861L113.973 70.7521C114.011 70.6345 114.092 70.5351 114.199 70.4731C114.306 70.4111 114.432 70.3908 114.553 70.4161L116.745 70.8881L118.406 69.3851C118.498 69.3012 118.618 69.2547 118.742 69.2547C118.866 69.2547 118.986 69.3012 119.078 69.3851L120.74 70.8881L122.933 70.4161C123.054 70.3904 123.18 70.4105 123.288 70.4725C123.395 70.5346 123.475 70.6342 123.513 70.7521L124.201 72.8861L126.334 73.5741C126.579 73.6521 126.725 73.9041 126.669 74.1541L126.198 76.3451L127.702 78.0081C127.786 78.0997 127.832 78.2192 127.832 78.3431C127.832 78.4671 127.786 78.5866 127.702 78.6781L126.198 80.3421L126.669 82.5331C126.696 82.6541 126.676 82.7807 126.614 82.8879C126.552 82.9952 126.452 83.0752 126.334 83.1121L124.201 83.8011L123.513 85.9361C123.474 86.0538 123.393 86.153 123.286 86.2147C123.179 86.2763 123.052 86.2961 122.931 86.2701L120.74 85.7991L119.078 87.3031C118.986 87.386 118.866 87.4319 118.742 87.4321ZM116.891 84.7561C117.014 84.7561 117.133 84.8011 117.227 84.8851L118.744 86.2581L120.263 84.8851C120.322 84.8326 120.392 84.7946 120.468 84.7742C120.544 84.7539 120.624 84.7518 120.701 84.7681L122.703 85.1991L123.33 83.2521C123.355 83.1769 123.397 83.1085 123.453 83.0527C123.509 82.9969 123.578 82.9552 123.653 82.9311L125.598 82.3011L125.168 80.3011C125.151 80.2238 125.153 80.1435 125.174 80.067C125.194 79.9905 125.232 79.92 125.285 79.8611L126.658 78.3431L125.285 76.8261C125.232 76.7671 125.194 76.6963 125.174 76.6197C125.153 76.543 125.151 76.4626 125.168 76.3851L125.598 74.3851L123.653 73.7561C123.578 73.732 123.509 73.6903 123.453 73.6345C123.397 73.5787 123.355 73.5104 123.33 73.4351L122.703 71.4881L120.7 71.9171C120.623 71.9332 120.543 71.9309 120.467 71.9104C120.391 71.8899 120.321 71.8518 120.262 71.7991L118.743 70.4281L117.226 71.7991C117.167 71.8518 117.096 71.8899 117.02 71.9104C116.944 71.9309 116.863 71.9332 116.786 71.9171L114.785 71.4861L114.156 73.4331C114.131 73.5082 114.089 73.5763 114.033 73.6321C113.977 73.6878 113.909 73.7297 113.834 73.7541L111.889 74.3831L112.319 76.3831C112.335 76.4607 112.333 76.541 112.313 76.6176C112.293 76.6942 112.255 76.765 112.202 76.8241L110.829 78.3411L112.202 79.8591C112.309 79.9801 112.352 80.1421 112.319 80.2991L111.889 82.2991L113.834 82.9291C113.909 82.9536 113.977 82.9954 114.033 83.0512C114.089 83.1069 114.131 83.1751 114.156 83.2501L114.785 85.1971L116.786 84.7661C116.821 84.7597 116.856 84.7564 116.891 84.7561ZM97 48.4741H127V49.4741H97V48.4741ZM97 54.4741H127V55.4741H97V54.4741ZM113 60.5581H127V61.5581H113V60.5581Z" fill="#CB11AB"/>
<path d="M66.9773 130.182C66.9773 131.409 66.7557 132.47 66.3125 133.364C65.8693 134.258 65.2614 134.947 64.4886 135.432C63.7159 135.917 62.8333 136.159 61.8409 136.159C60.8485 136.159 59.9659 135.917 59.1932 135.432C58.4205 134.947 57.8125 134.258 57.3693 133.364C56.9261 132.47 56.7045 131.409 56.7045 130.182C56.7045 128.955 56.9261 127.894 57.3693 127C57.8125 126.106 58.4205 125.417 59.1932 124.932C59.9659 124.447 60.8485 124.205 61.8409 124.205C62.8333 124.205 63.7159 124.447 64.4886 124.932C65.2614 125.417 65.8693 126.106 66.3125 127C66.7557 127.894 66.9773 128.955 66.9773 130.182ZM65.6136 130.182C65.6136 129.174 65.4451 128.324 65.108 127.631C64.7746 126.938 64.322 126.413 63.75 126.057C63.1818 125.701 62.5455 125.523 61.8409 125.523C61.1364 125.523 60.4981 125.701 59.9261 126.057C59.358 126.413 58.9053 126.938 58.5682 127.631C58.2348 128.324 58.0682 129.174 58.0682 130.182C58.0682 131.189 58.2348 132.04 58.5682 132.733C58.9053 133.426 59.358 133.951 59.9261 134.307C60.4981 134.663 61.1364 134.841 61.8409 134.841C62.5455 134.841 63.1818 134.663 63.75 134.307C64.322 133.951 64.7746 133.426 65.108 132.733C65.4451 132.04 65.6136 131.189 65.6136 130.182ZM72.7102 138.977V124.364H74.0511V138.977H72.7102ZM72.7102 136.182C72.1193 136.182 71.5814 136.076 71.0966 135.864C70.6117 135.648 70.1951 135.343 69.8466 134.949C69.4981 134.551 69.2292 134.076 69.0398 133.523C68.8504 132.97 68.7557 132.356 68.7557 131.682C68.7557 131 68.8504 130.383 69.0398 129.83C69.2292 129.273 69.4981 128.795 69.8466 128.398C70.1951 128 70.6117 127.695 71.0966 127.483C71.5814 127.267 72.1193 127.159 72.7102 127.159H73.1193V136.182H72.7102ZM72.7102 134.977H72.9375V128.364H72.7102C72.2633 128.364 71.875 128.455 71.5455 128.636C71.2159 128.814 70.9432 129.059 70.7273 129.369C70.5152 129.676 70.3561 130.028 70.25 130.426C70.1477 130.824 70.0966 131.242 70.0966 131.682C70.0966 132.265 70.1894 132.807 70.375 133.307C70.5606 133.807 70.8466 134.21 71.233 134.517C71.6193 134.824 72.1117 134.977 72.7102 134.977ZM74.0511 136.182H73.642V127.159H74.0511C74.642 127.159 75.1799 127.267 75.6648 127.483C76.1496 127.695 76.5663 128 76.9148 128.398C77.2633 128.795 77.5322 129.273 77.7216 129.83C77.911 130.383 78.0057 131 78.0057 131.682C78.0057 132.356 77.911 132.97 77.7216 133.523C77.5322 134.076 77.2633 134.551 76.9148 134.949C76.5663 135.343 76.1496 135.648 75.6648 135.864C75.1799 136.076 74.642 136.182 74.0511 136.182ZM74.0511 134.977C74.5019 134.977 74.8902 134.89 75.2159 134.716C75.5455 134.538 75.8163 134.295 76.0284 133.989C76.2443 133.678 76.4034 133.326 76.5057 132.932C76.6117 132.534 76.6648 132.117 76.6648 131.682C76.6648 131.098 76.572 130.555 76.3864 130.051C76.2008 129.547 75.9148 129.14 75.5284 128.83C75.142 128.519 74.6496 128.364 74.0511 128.364H73.8239V134.977H74.0511ZM81.3963 134.023L85.6009 127.273H87.1463V136H85.8054V129.25L81.6236 136H80.0554V127.273H81.3963V134.023ZM96.4659 127.273V134.75H97.6932V138.818H96.3523V136H89.6023V127.273H90.9432V134.75H95.125V127.273H96.4659ZM101.099 134.023L105.304 127.273H106.849V136H105.509V129.25L101.327 136H99.7585V127.273H101.099V134.023ZM111.874 136.205C111.321 136.205 110.819 136.1 110.368 135.892C109.917 135.68 109.559 135.375 109.294 134.977C109.029 134.576 108.896 134.091 108.896 133.523C108.896 133.023 108.995 132.617 109.192 132.307C109.389 131.992 109.652 131.746 109.982 131.568C110.311 131.39 110.675 131.258 111.072 131.17C111.474 131.08 111.877 131.008 112.283 130.955C112.813 130.886 113.243 130.835 113.572 130.801C113.906 130.763 114.148 130.701 114.3 130.614C114.455 130.527 114.533 130.375 114.533 130.159V130.114C114.533 129.553 114.379 129.117 114.072 128.807C113.769 128.496 113.309 128.341 112.692 128.341C112.052 128.341 111.55 128.481 111.186 128.761C110.822 129.042 110.567 129.341 110.419 129.659L109.146 129.205C109.374 128.674 109.677 128.261 110.055 127.966C110.438 127.667 110.855 127.458 111.305 127.341C111.76 127.22 112.207 127.159 112.646 127.159C112.927 127.159 113.249 127.193 113.612 127.261C113.98 127.326 114.334 127.46 114.675 127.665C115.019 127.869 115.305 128.178 115.533 128.591C115.76 129.004 115.874 129.557 115.874 130.25V136H114.533V134.818H114.464C114.374 135.008 114.222 135.21 114.01 135.426C113.798 135.642 113.516 135.826 113.163 135.977C112.811 136.129 112.381 136.205 111.874 136.205ZM112.078 135C112.608 135 113.055 134.896 113.419 134.688C113.786 134.479 114.063 134.21 114.249 133.881C114.438 133.551 114.533 133.205 114.533 132.841V131.614C114.476 131.682 114.351 131.744 114.158 131.801C113.968 131.854 113.749 131.902 113.499 131.943C113.252 131.981 113.012 132.015 112.777 132.045C112.546 132.072 112.358 132.095 112.214 132.114C111.866 132.159 111.54 132.233 111.237 132.335C110.938 132.434 110.696 132.583 110.51 132.784C110.328 132.981 110.237 133.25 110.237 133.591C110.237 134.057 110.41 134.409 110.754 134.648C111.103 134.883 111.544 135 112.078 135ZM117.548 136V134.75H117.866C118.128 134.75 118.346 134.699 118.52 134.597C118.694 134.491 118.834 134.307 118.94 134.045C119.05 133.78 119.134 133.413 119.19 132.943C119.251 132.47 119.295 131.867 119.321 131.136L119.48 127.273H125.298V136H123.957V128.523H120.753L120.616 131.636C120.586 132.352 120.522 132.983 120.423 133.528C120.329 134.07 120.183 134.525 119.986 134.892C119.793 135.259 119.535 135.536 119.213 135.722C118.891 135.907 118.488 136 118.003 136H117.548ZM128.918 130.432H131.418C132.44 130.432 133.223 130.691 133.764 131.21C134.306 131.729 134.577 132.386 134.577 133.182C134.577 133.705 134.455 134.18 134.213 134.608C133.971 135.032 133.615 135.371 133.145 135.625C132.675 135.875 132.099 136 131.418 136H127.759V127.273H129.099V134.75H131.418C131.948 134.75 132.384 134.61 132.724 134.33C133.065 134.049 133.236 133.689 133.236 133.25C133.236 132.788 133.065 132.411 132.724 132.119C132.384 131.828 131.948 131.682 131.418 131.682H128.918V130.432ZM142.459 131.023V132.273H137.641V131.023H142.459ZM137.959 127.273V136H136.618V127.273H137.959ZM143.482 127.273V136H142.141V127.273H143.482ZM147.089 130.432H149.589C150.612 130.432 151.394 130.691 151.936 131.21C152.478 131.729 152.749 132.386 152.749 133.182C152.749 133.705 152.627 134.18 152.385 134.608C152.143 135.032 151.786 135.371 151.317 135.625C150.847 135.875 150.271 136 149.589 136H145.93V127.273H147.271V134.75H149.589C150.12 134.75 150.555 134.61 150.896 134.33C151.237 134.049 151.408 133.689 151.408 133.25C151.408 132.788 151.237 132.411 150.896 132.119C150.555 131.828 150.12 131.682 149.589 131.682H147.089V130.432ZM154.135 136V127.273H155.476V136H154.135ZM159.271 134.023L163.476 127.273H165.021V136H163.68V129.25L159.499 136H157.93V127.273H159.271V134.023ZM162.589 124.364H163.839C163.839 124.977 163.627 125.479 163.203 125.869C162.779 126.259 162.203 126.455 161.476 126.455C160.76 126.455 160.19 126.259 159.766 125.869C159.345 125.479 159.135 124.977 159.135 124.364H160.385C160.385 124.659 160.466 124.919 160.629 125.142C160.796 125.366 161.078 125.477 161.476 125.477C161.874 125.477 162.158 125.366 162.328 125.142C162.502 124.919 162.589 124.659 162.589 124.364ZM54.3267 159.5V155.75H55.054C55.232 155.564 55.3854 155.364 55.5142 155.148C55.643 154.932 55.7547 154.676 55.8494 154.381C55.9479 154.081 56.0313 153.718 56.0994 153.29C56.1676 152.858 56.2282 152.337 56.2812 151.727L56.5767 148.273H62.1222V155.75H63.4631V159.5H62.1222V157H55.6676V159.5H54.3267ZM56.5767 155.75H60.7812V149.523H57.8267L57.5994 151.727C57.5047 152.64 57.3873 153.437 57.2472 154.119C57.107 154.801 56.8835 155.345 56.5767 155.75ZM66.5838 155.023L70.7884 148.273H72.3338V157H70.9929V150.25L66.8111 157H65.2429V148.273H66.5838V155.023ZM78.3352 157.182C77.517 157.182 76.8125 156.989 76.2216 156.602C75.6307 156.216 75.1761 155.684 74.858 155.006C74.5398 154.328 74.3807 153.553 74.3807 152.682C74.3807 151.795 74.5436 151.013 74.8693 150.335C75.1989 149.653 75.6572 149.121 76.2443 148.739C76.8352 148.352 77.5246 148.159 78.3125 148.159C78.9261 148.159 79.4792 148.273 79.9716 148.5C80.464 148.727 80.8674 149.045 81.1818 149.455C81.4962 149.864 81.6913 150.341 81.767 150.886H80.4261C80.3239 150.489 80.0966 150.136 79.7443 149.83C79.3958 149.519 78.9261 149.364 78.3352 149.364C77.8125 149.364 77.3542 149.5 76.9602 149.773C76.5701 150.042 76.2652 150.422 76.0455 150.915C75.8295 151.403 75.7216 151.977 75.7216 152.636C75.7216 153.311 75.8277 153.898 76.0398 154.398C76.2557 154.898 76.5587 155.286 76.9489 155.562C77.3428 155.839 77.8049 155.977 78.3352 155.977C78.6837 155.977 79 155.917 79.2841 155.795C79.5682 155.674 79.8087 155.5 80.0057 155.273C80.2027 155.045 80.3428 154.773 80.4261 154.455H81.767C81.6913 154.97 81.5038 155.434 81.2045 155.847C80.9091 156.256 80.517 156.581 80.0284 156.824C79.5436 157.062 78.9792 157.182 78.3352 157.182ZM83.0398 149.523V148.273H90.1307V149.523H87.267V157H85.9261V149.523H83.0398ZM92.0866 160.273V148.273H93.3821V149.659H93.5412C93.6397 149.508 93.776 149.314 93.9503 149.08C94.1283 148.841 94.3821 148.629 94.7116 148.443C95.045 148.254 95.4957 148.159 96.0639 148.159C96.7988 148.159 97.4465 148.343 98.0071 148.71C98.5677 149.078 99.0052 149.598 99.3196 150.273C99.634 150.947 99.7912 151.742 99.7912 152.659C99.7912 153.583 99.634 154.384 99.3196 155.062C99.0052 155.737 98.5696 156.259 98.0128 156.631C97.456 156.998 96.8139 157.182 96.0866 157.182C95.526 157.182 95.0772 157.089 94.7401 156.903C94.4029 156.714 94.1435 156.5 93.9616 156.261C93.7798 156.019 93.6397 155.818 93.5412 155.659H93.4276V160.273H92.0866ZM93.4048 152.636C93.4048 153.295 93.5014 153.877 93.6946 154.381C93.8878 154.881 94.17 155.273 94.5412 155.557C94.9124 155.837 95.367 155.977 95.9048 155.977C96.4654 155.977 96.9332 155.83 97.3082 155.534C97.687 155.235 97.9711 154.833 98.1605 154.33C98.3537 153.822 98.4503 153.258 98.4503 152.636C98.4503 152.023 98.3556 151.47 98.1662 150.977C97.9806 150.481 97.6984 150.089 97.3196 149.801C96.9446 149.509 96.473 149.364 95.9048 149.364C95.3594 149.364 94.901 149.502 94.5298 149.778C94.1586 150.051 93.8783 150.434 93.6889 150.926C93.4995 151.415 93.4048 151.985 93.4048 152.636ZM103.178 155.023L107.382 148.273H108.928V157H107.587V150.25L103.405 157H101.837V148.273H103.178V155.023ZM117.861 145L118.543 145.818C118.277 146.076 117.971 146.256 117.622 146.358C117.274 146.46 116.88 146.523 116.44 146.545C116.001 146.568 115.512 146.591 114.974 146.614C114.368 146.636 113.866 146.784 113.469 147.057C113.071 147.33 112.764 147.723 112.548 148.239C112.332 148.754 112.194 149.386 112.134 150.136H112.247C112.543 149.591 112.952 149.189 113.474 148.932C113.997 148.674 114.558 148.545 115.156 148.545C115.838 148.545 116.452 148.705 116.997 149.023C117.543 149.341 117.974 149.812 118.293 150.438C118.611 151.062 118.77 151.833 118.77 152.75C118.77 153.663 118.607 154.451 118.281 155.114C117.959 155.777 117.507 156.288 116.923 156.648C116.344 157.004 115.664 157.182 114.884 157.182C114.103 157.182 113.42 156.998 112.832 156.631C112.245 156.259 111.789 155.71 111.463 154.983C111.137 154.252 110.974 153.348 110.974 152.273V151.341C110.974 149.398 111.304 147.924 111.963 146.92C112.626 145.917 113.622 145.398 114.952 145.364C115.421 145.348 115.84 145.345 116.207 145.352C116.575 145.36 116.895 145.343 117.168 145.301C117.44 145.259 117.671 145.159 117.861 145ZM114.884 155.977C115.41 155.977 115.863 155.845 116.241 155.58C116.624 155.314 116.918 154.941 117.122 154.46C117.327 153.975 117.429 153.405 117.429 152.75C117.429 152.114 117.325 151.572 117.116 151.125C116.912 150.678 116.618 150.337 116.236 150.102C115.853 149.867 115.395 149.75 114.861 149.75C114.471 149.75 114.12 149.816 113.81 149.949C113.499 150.081 113.234 150.277 113.014 150.534C112.795 150.792 112.624 151.106 112.503 151.477C112.385 151.848 112.323 152.273 112.315 152.75C112.315 153.727 112.545 154.509 113.003 155.097C113.461 155.684 114.088 155.977 114.884 155.977ZM121.98 151.432H124.48C125.503 151.432 126.285 151.691 126.827 152.21C127.368 152.729 127.639 153.386 127.639 154.182C127.639 154.705 127.518 155.18 127.276 155.608C127.033 156.032 126.677 156.371 126.207 156.625C125.738 156.875 125.162 157 124.48 157H120.821V148.273H122.162V155.75H124.48C125.01 155.75 125.446 155.61 125.787 155.33C126.128 155.049 126.298 154.689 126.298 154.25C126.298 153.788 126.128 153.411 125.787 153.119C125.446 152.828 125.01 152.682 124.48 152.682H121.98V151.432ZM133.862 152.091V153.341H129.249V152.091H133.862ZM130.385 148.273V157H129.044V148.273H130.385ZM136.544 157.182C135.756 157.182 135.065 156.994 134.47 156.619C133.879 156.244 133.417 155.72 133.084 155.045C132.754 154.371 132.589 153.583 132.589 152.682C132.589 151.773 132.754 150.979 133.084 150.301C133.417 149.623 133.879 149.097 134.47 148.722C135.065 148.347 135.756 148.159 136.544 148.159C137.332 148.159 138.021 148.347 138.612 148.722C139.207 149.097 139.669 149.623 139.999 150.301C140.332 150.979 140.499 151.773 140.499 152.682C140.499 153.583 140.332 154.371 139.999 155.045C139.669 155.72 139.207 156.244 138.612 156.619C138.021 156.994 137.332 157.182 136.544 157.182ZM136.544 155.977C137.143 155.977 137.635 155.824 138.021 155.517C138.408 155.21 138.694 154.807 138.879 154.307C139.065 153.807 139.158 153.265 139.158 152.682C139.158 152.098 139.065 151.555 138.879 151.051C138.694 150.547 138.408 150.14 138.021 149.83C137.635 149.519 137.143 149.364 136.544 149.364C135.946 149.364 135.453 149.519 135.067 149.83C134.68 150.14 134.394 150.547 134.209 151.051C134.023 151.555 133.93 152.098 133.93 152.682C133.93 153.265 134.023 153.807 134.209 154.307C134.394 154.807 134.68 155.21 135.067 155.517C135.453 155.824 135.946 155.977 136.544 155.977ZM141.54 149.523V148.273H148.631V149.523H145.767V157H144.426V149.523H141.54ZM153.793 157.182C152.952 157.182 152.226 156.996 151.616 156.625C151.01 156.25 150.543 155.727 150.213 155.057C149.887 154.383 149.724 153.598 149.724 152.705C149.724 151.811 149.887 151.023 150.213 150.341C150.543 149.655 151.001 149.121 151.588 148.739C152.179 148.352 152.868 148.159 153.656 148.159C154.111 148.159 154.56 148.235 155.003 148.386C155.446 148.538 155.849 148.784 156.213 149.125C156.577 149.462 156.866 149.909 157.082 150.466C157.298 151.023 157.406 151.708 157.406 152.523V153.091H150.679V151.932H156.043C156.043 151.439 155.944 151 155.747 150.614C155.554 150.227 155.277 149.922 154.918 149.699C154.562 149.475 154.141 149.364 153.656 149.364C153.122 149.364 152.66 149.496 152.27 149.761C151.884 150.023 151.586 150.364 151.378 150.784C151.17 151.205 151.065 151.655 151.065 152.136V152.909C151.065 153.568 151.179 154.127 151.406 154.585C151.637 155.04 151.957 155.386 152.366 155.625C152.776 155.86 153.251 155.977 153.793 155.977C154.145 155.977 154.463 155.928 154.747 155.83C155.035 155.727 155.283 155.576 155.491 155.375C155.7 155.17 155.861 154.917 155.974 154.614L157.27 154.977C157.134 155.417 156.904 155.803 156.582 156.136C156.26 156.466 155.863 156.723 155.389 156.909C154.916 157.091 154.384 157.182 153.793 157.182ZM159.446 160.273V148.273H160.741V149.659H160.901C160.999 149.508 161.135 149.314 161.31 149.08C161.488 148.841 161.741 148.629 162.071 148.443C162.404 148.254 162.855 148.159 163.423 148.159C164.158 148.159 164.806 148.343 165.366 148.71C165.927 149.078 166.365 149.598 166.679 150.273C166.993 150.947 167.151 151.742 167.151 152.659C167.151 153.583 166.993 154.384 166.679 155.062C166.365 155.737 165.929 156.259 165.372 156.631C164.815 156.998 164.173 157.182 163.446 157.182C162.885 157.182 162.437 157.089 162.099 156.903C161.762 156.714 161.503 156.5 161.321 156.261C161.139 156.019 160.999 155.818 160.901 155.659H160.787V160.273H159.446ZM160.764 152.636C160.764 153.295 160.861 153.877 161.054 154.381C161.247 154.881 161.529 155.273 161.901 155.557C162.272 155.837 162.726 155.977 163.264 155.977C163.825 155.977 164.293 155.83 164.668 155.534C165.046 155.235 165.33 154.833 165.52 154.33C165.713 153.822 165.81 153.258 165.81 152.636C165.81 152.023 165.715 151.47 165.526 150.977C165.34 150.481 165.058 150.089 164.679 149.801C164.304 149.509 163.832 149.364 163.264 149.364C162.719 149.364 162.26 149.502 161.889 149.778C161.518 150.051 161.238 150.434 161.048 150.926C160.859 151.415 160.764 151.985 160.764 152.636Z" fill="#292929"/>
</svg>
