<svg width="19" height="33" viewBox="0 0 19 33" fill="none" xmlns="http://www.w3.org/2000/svg">
<path d="M16.3442 0H5.04312C4.09783 0 3.32881 0.769019 3.32881 1.71438V14.8225C3.2282 14.9593 3.06075 15.1805 2.89685 15.397C2.28995 16.1988 1.37278 17.4105 0.825804 18.2716C-0.25279 19.9723 -0.27361 21.6716 0.756297 23.9539C0.76347 23.9698 0.771341 23.9854 0.779847 24.0007C0.779847 24.0007 2.06937 26.3329 2.12466 26.435C2.45023 27.0365 2.99511 28.0433 2.96058 28.8346C2.9602 28.8438 2.96001 28.853 2.96001 28.8622V30.7389C2.96001 31.71 3.75004 32.5 4.72111 32.5H10.4571C11.4282 32.5 12.2182 31.71 12.2182 30.7389L12.2128 29.0946C12.2131 28.4616 12.3088 28.1282 12.4299 27.7063C12.5126 27.4181 12.6062 27.0915 12.6734 26.6491C12.6752 26.6376 12.6766 26.6262 12.6777 26.6146C12.7716 25.64 12.5183 24.6989 12.2502 23.7025C12.098 23.137 11.9357 22.5336 11.8195 21.8662H16.3443C17.2896 21.8662 18.0586 21.0971 18.0586 20.1518V13.7841C18.0586 13.4335 17.7744 13.1493 17.4238 13.1493C17.0733 13.1493 16.7891 13.4335 16.7891 13.7841V20.1517C16.7891 20.397 16.5895 20.5966 16.3443 20.5966H14.8469V1.26953H16.3442C16.5894 1.26953 16.789 1.4691 16.789 1.71438V15.5821C16.789 15.9326 17.0733 16.2169 17.4238 16.2169C17.7743 16.2169 18.0585 15.9326 18.0585 15.5821V1.71438C18.0585 0.769019 17.2895 0 16.3442 0ZM10.457 31.2305H4.72104C4.45457 31.2305 4.22948 31.0053 4.22948 30.7389V28.8751C4.27309 27.7375 3.62753 26.5446 3.24115 25.8307C3.18827 25.7331 1.90281 23.4081 1.90281 23.4081C1.0587 21.5271 1.05787 20.2761 1.89767 18.9519C2.26532 18.3732 2.82322 17.6091 3.32881 16.9333V20.1518C3.32881 21.0971 4.09783 21.8662 5.04312 21.8662H7.07843V23.9843C7.07843 24.3348 7.36262 24.6191 7.7132 24.6191C8.06378 24.6191 8.34796 24.3348 8.34796 23.9843V17.2999C8.34796 16.7272 8.81382 16.2613 9.3865 16.2613C9.6651 16.2613 9.92796 16.3714 10.1266 16.5713C10.3218 16.7676 10.4285 17.0251 10.4268 17.2961C10.4255 17.5136 10.4222 18.945 10.3967 19.6092C10.3742 20.1968 10.3991 20.7433 10.4531 21.2535C10.4544 21.2905 10.5036 21.6665 10.526 21.8138C10.654 22.654 10.8507 23.3876 11.0242 24.0323C11.27 24.9457 11.4826 25.7354 11.4155 26.476C11.3609 26.8285 11.2873 27.0849 11.2095 27.356C11.0786 27.8123 10.9432 28.2842 10.9432 29.0979C10.9432 29.1001 10.9432 29.1023 10.9433 29.1045L10.9486 30.7388C10.9486 31.0053 10.7235 31.2305 10.457 31.2305ZM13.5774 20.5966H11.6733C11.657 20.2968 11.6951 17.5195 11.6964 17.3037C11.7 16.692 11.4623 16.114 11.0269 15.6762C10.5882 15.2348 10.0055 14.9918 9.38644 14.9918C8.1138 14.9918 7.07837 16.0272 7.07837 17.2999V20.5966H5.04306C4.79778 20.5966 4.59828 20.3971 4.59828 20.1518V1.71438C4.59828 1.4691 4.79785 1.26953 5.04306 1.26953H13.5774V20.5966Z" fill="#CB11AB"/>
</svg>
