<svg width="222" height="192" viewBox="0 0 222 192" fill="none" xmlns="http://www.w3.org/2000/svg">
<path d="M0 4C0 1.79086 1.79086 0 4 0H218C220.209 0 222 1.79086 222 4V188C222 190.209 220.209 192 218 192H4C1.79086 192 0 190.209 0 188V4Z" fill="white"/>
<path d="M92.178 90.951C91.496 90.9524 90.8204 90.819 90.1901 90.5585C89.5597 90.298 88.9871 89.9155 88.505 89.433C87.5324 88.457 86.9863 87.1353 86.9863 85.7575C86.9863 84.3796 87.5324 83.058 88.505 82.082L103.418 67.165C103.512 67.0739 103.639 67.0235 103.77 67.0247C103.901 67.0258 104.026 67.0784 104.119 67.1711C104.212 67.2638 104.264 67.3892 104.265 67.5203C104.267 67.6514 104.216 67.7777 104.125 67.872L89.212 82.791C88.4267 83.5791 87.9858 84.6464 87.9858 85.759C87.9858 86.8716 88.4267 87.9388 89.212 88.727C90 89.5119 91.0668 89.9526 92.179 89.9526C93.2912 89.9526 94.3581 89.5119 95.146 88.727L110.043 73.774C110.137 73.6829 110.264 73.6325 110.395 73.6337C110.526 73.6348 110.651 73.6874 110.744 73.7801C110.837 73.8728 110.889 73.9982 110.89 74.1293C110.892 74.2604 110.841 74.3867 110.75 74.481L95.853 89.434C95.3702 89.916 94.7971 90.298 94.1666 90.5583C93.536 90.8186 92.8602 90.9521 92.178 90.951ZM92.697 86.617C92.366 86.617 92.056 86.49 91.822 86.256C91.5905 86.0237 91.4603 85.7092 91.4602 85.3812C91.46 85.0532 91.5897 84.7385 91.821 84.506C92.0534 84.2746 92.368 84.1446 92.696 84.1446C93.024 84.1446 93.3386 84.2746 93.571 84.506C93.804 84.74 93.933 85.051 93.933 85.381C93.9334 85.5434 93.9017 85.7043 93.8398 85.8545C93.7778 86.0046 93.6867 86.141 93.5719 86.2559C93.457 86.3707 93.3206 86.4617 93.1705 86.5237C93.0204 86.5857 92.8595 86.6174 92.697 86.617ZM92.696 85.145C92.6494 85.1455 92.604 85.1596 92.5654 85.1857C92.5268 85.2118 92.4967 85.2486 92.4788 85.2916C92.4609 85.3346 92.4561 85.3819 92.4648 85.4277C92.4736 85.4734 92.4955 85.5156 92.528 85.549C92.646 85.668 92.742 85.67 92.862 85.549H92.863C92.9074 85.5042 92.9321 85.4438 92.9319 85.3808C92.9318 85.3178 92.9066 85.2575 92.862 85.213C92.8402 85.1913 92.8143 85.1741 92.7858 85.1625C92.7573 85.1508 92.7268 85.1449 92.696 85.145ZM115.828 64.781C115.729 64.781 115.633 64.7517 115.55 64.6968C115.468 64.6419 115.404 64.5639 115.366 64.4726C115.328 64.3814 115.318 64.2809 115.338 64.184C115.357 64.0871 115.404 63.998 115.474 63.928L125.773 53.672C125.867 53.5786 125.993 53.5262 126.126 53.5262C126.258 53.5262 126.384 53.5786 126.478 53.672L127.332 54.524L134.613 45.51L132.426 43.323L123.41 50.605L124.264 51.458C124.311 51.5044 124.348 51.5596 124.373 51.6204C124.398 51.6811 124.411 51.7462 124.411 51.812C124.411 51.8778 124.398 51.9429 124.373 52.0036C124.348 52.0644 124.311 52.1195 124.264 52.166L114.004 62.392C113.91 62.4857 113.783 62.5384 113.65 62.5383C113.517 62.5382 113.39 62.4854 113.297 62.3915C113.203 62.2976 113.15 62.1703 113.15 62.0376C113.15 61.905 113.203 61.7777 113.297 61.684L123.205 51.812L122.312 50.92C122.262 50.8705 122.223 50.811 122.198 50.7455C122.173 50.6799 122.162 50.6097 122.165 50.5395C122.169 50.4693 122.188 50.4008 122.22 50.3383C122.252 50.2758 122.297 50.2208 122.352 50.177L132.149 42.263C132.245 42.1854 132.367 42.1462 132.49 42.1528C132.613 42.1595 132.73 42.2115 132.817 42.299L135.639 45.121C135.727 45.2082 135.779 45.3249 135.785 45.4483C135.791 45.5717 135.752 45.6931 135.674 45.789L127.76 55.585C127.716 55.6392 127.661 55.6835 127.598 55.7151C127.536 55.7467 127.468 55.765 127.398 55.7687C127.328 55.7723 127.258 55.7614 127.193 55.7364C127.127 55.7115 127.068 55.6732 127.018 55.624L126.126 54.732L116.182 64.634C116.136 64.6806 116.08 64.7175 116.02 64.7428C115.959 64.768 115.894 64.781 115.828 64.781Z" fill="#CB11AB"/>
<path d="M93.4296 39.5161L107.309 43.7861L108.077 57.7041L132.92 82.5481C133.791 83.4199 134.28 84.6018 134.28 85.8341C134.28 87.0664 133.791 88.2484 132.92 89.1201C132.489 89.552 131.977 89.8945 131.414 90.1279C130.85 90.3613 130.246 90.481 129.637 90.4801C129.026 90.481 128.421 90.3613 127.857 90.1279C127.292 89.8945 126.779 89.5521 126.348 89.1201L101.297 64.0701L87.7996 63.4051L83.3146 49.6311L83.6246 49.3201L90.9276 56.6221L95.2656 52.2871L96.0846 51.4651L100.422 47.1291L93.1176 39.8261L93.4296 39.5161ZM93.4296 38.5161C93.2985 38.516 93.1687 38.5418 93.0476 38.5919C92.9264 38.642 92.8163 38.7155 92.7236 38.8081L92.4116 39.1191C92.3183 39.2118 92.2443 39.322 92.1937 39.4434C92.1431 39.5647 92.1171 39.6949 92.117 39.8264C92.1169 39.9579 92.1428 40.0881 92.1932 40.2096C92.2436 40.331 92.3174 40.4413 92.4106 40.5341L99.0066 47.1301L95.3776 50.7591L94.5576 51.5821L90.9276 55.2091L84.3316 48.6141C84.2389 48.521 84.1287 48.4471 84.0074 48.3966C83.8861 48.3462 83.756 48.3202 83.6246 48.3201H83.6236C83.492 48.3201 83.3618 48.346 83.2403 48.3965C83.1188 48.4469 83.0084 48.5209 82.9156 48.6141L82.6056 48.9251C82.4757 49.0556 82.3844 49.2195 82.3417 49.3985C82.299 49.5776 82.3066 49.765 82.3636 49.9401L86.8476 63.7121C86.9756 64.1071 87.3346 64.3821 87.7486 64.4011L100.86 65.0491L125.637 89.8261C126.16 90.3523 126.783 90.7694 127.469 91.0533C128.155 91.3373 128.89 91.4823 129.633 91.4801C131.143 91.4801 132.559 90.8921 133.625 89.8261C134.681 88.7658 135.274 87.33 135.274 85.8331C135.274 84.3363 134.681 82.9004 133.625 81.8401L109.054 57.2681L108.307 43.7311C108.295 43.527 108.222 43.3312 108.096 43.1703C107.969 43.0094 107.797 42.891 107.602 42.8311L93.7226 38.5611C93.6278 38.5314 93.529 38.5162 93.4296 38.5161Z" fill="#CB11AB"/>
<path d="M128.999 86.617C128.669 86.617 128.358 86.49 128.124 86.256C127.893 86.0232 127.764 85.7088 127.764 85.381C127.764 85.0533 127.893 84.7388 128.124 84.506C128.593 84.039 129.407 84.039 129.874 84.506C130.047 84.6791 130.164 84.8994 130.212 85.1393C130.259 85.3792 130.235 85.6278 130.141 85.8537C130.048 86.0796 129.889 86.2726 129.686 86.4085C129.482 86.5444 129.243 86.6169 128.999 86.617ZM128.999 85.145C128.936 85.146 128.875 85.171 128.83 85.215C128.786 85.2597 128.762 85.3197 128.762 85.3822C128.762 85.4447 128.787 85.5046 128.831 85.549C128.949 85.668 129.045 85.67 129.165 85.549C129.228 85.488 129.235 85.418 129.235 85.381C129.235 85.344 129.225 85.274 129.166 85.213C129.121 85.1692 129.061 85.1448 128.999 85.145Z" fill="#CB11AB"/>
<path d="M67.0646 124.364V125.614H61.451V136H60.0419V124.364H67.0646ZM70.4439 136.205C69.8909 136.205 69.389 136.1 68.9382 135.892C68.4875 135.68 68.1295 135.375 67.8643 134.977C67.5992 134.576 67.4666 134.091 67.4666 133.523C67.4666 133.023 67.5651 132.617 67.7621 132.307C67.959 131.992 68.2223 131.746 68.5518 131.568C68.8814 131.39 69.245 131.258 69.6428 131.17C70.0443 131.08 70.4477 131.008 70.853 130.955C71.3833 130.886 71.8132 130.835 72.1428 130.801C72.4761 130.763 72.7185 130.701 72.87 130.614C73.0253 130.527 73.103 130.375 73.103 130.159V130.114C73.103 129.553 72.9496 129.117 72.6428 128.807C72.3397 128.496 71.8795 128.341 71.2621 128.341C70.6219 128.341 70.12 128.481 69.7564 128.761C69.3928 129.042 69.1371 129.341 68.9893 129.659L67.7166 129.205C67.9439 128.674 68.2469 128.261 68.6257 127.966C69.0083 127.667 69.425 127.458 69.8757 127.341C70.3303 127.22 70.7772 127.159 71.2166 127.159C71.4969 127.159 71.8189 127.193 72.1825 127.261C72.55 127.326 72.9041 127.46 73.245 127.665C73.5897 127.869 73.8757 128.178 74.103 128.591C74.3303 129.004 74.4439 129.557 74.4439 130.25V136H73.103V134.818H73.0348C72.9439 135.008 72.7924 135.21 72.5803 135.426C72.3681 135.642 72.0859 135.826 71.7337 135.977C71.3814 136.129 70.9515 136.205 70.4439 136.205ZM70.6484 135C71.1787 135 71.6257 134.896 71.9893 134.688C72.3568 134.479 72.6333 134.21 72.8189 133.881C73.0083 133.551 73.103 133.205 73.103 132.841V131.614C73.0462 131.682 72.9212 131.744 72.728 131.801C72.5386 131.854 72.3189 131.902 72.0689 131.943C71.8227 131.981 71.5821 132.015 71.3473 132.045C71.1162 132.072 70.9287 132.095 70.7848 132.114C70.4363 132.159 70.1106 132.233 69.8075 132.335C69.5083 132.434 69.2659 132.583 69.0803 132.784C68.8984 132.981 68.8075 133.25 68.8075 133.591C68.8075 134.057 68.9799 134.409 69.3246 134.648C69.6731 134.883 70.1143 135 70.6484 135ZM76.8913 139.273V127.273H78.1868V128.659H78.3459C78.4444 128.508 78.5807 128.314 78.755 128.08C78.933 127.841 79.1868 127.629 79.5163 127.443C79.8497 127.254 80.3004 127.159 80.8686 127.159C81.6035 127.159 82.2512 127.343 82.8118 127.71C83.3724 128.078 83.8099 128.598 84.1243 129.273C84.4387 129.947 84.5959 130.742 84.5959 131.659C84.5959 132.583 84.4387 133.384 84.1243 134.062C83.8099 134.737 83.3743 135.259 82.8175 135.631C82.2607 135.998 81.6186 136.182 80.8913 136.182C80.3307 136.182 79.8819 136.089 79.5447 135.903C79.2076 135.714 78.9482 135.5 78.7663 135.261C78.5845 135.019 78.4444 134.818 78.3459 134.659H78.2322V139.273H76.8913ZM78.2095 131.636C78.2095 132.295 78.3061 132.877 78.4993 133.381C78.6925 133.881 78.9747 134.273 79.3459 134.557C79.7171 134.837 80.1716 134.977 80.7095 134.977C81.2701 134.977 81.7379 134.83 82.1129 134.534C82.4917 134.235 82.7758 133.833 82.9652 133.33C83.1584 132.822 83.255 132.258 83.255 131.636C83.255 131.023 83.1603 130.47 82.9709 129.977C82.7853 129.481 82.5031 129.089 82.1243 128.801C81.7493 128.509 81.2777 128.364 80.7095 128.364C80.1641 128.364 79.7057 128.502 79.3345 128.778C78.9633 129.051 78.683 129.434 78.4936 129.926C78.3042 130.415 78.2095 130.985 78.2095 131.636ZM89.2095 136.205C88.6565 136.205 88.1546 136.1 87.7038 135.892C87.2531 135.68 86.8951 135.375 86.63 134.977C86.3648 134.576 86.2322 134.091 86.2322 133.523C86.2322 133.023 86.3307 132.617 86.5277 132.307C86.7247 131.992 86.9879 131.746 87.3175 131.568C87.647 131.39 88.0107 131.258 88.4084 131.17C88.8099 131.08 89.2133 131.008 89.6186 130.955C90.1489 130.886 90.5788 130.835 90.9084 130.801C91.2417 130.763 91.4841 130.701 91.6357 130.614C91.791 130.527 91.8686 130.375 91.8686 130.159V130.114C91.8686 129.553 91.7152 129.117 91.4084 128.807C91.1054 128.496 90.6451 128.341 90.0277 128.341C89.3875 128.341 88.8857 128.481 88.522 128.761C88.1584 129.042 87.9027 129.341 87.755 129.659L86.4822 129.205C86.7095 128.674 87.0125 128.261 87.3913 127.966C87.7739 127.667 88.1906 127.458 88.6413 127.341C89.0959 127.22 89.5429 127.159 89.9822 127.159C90.2625 127.159 90.5845 127.193 90.9482 127.261C91.3156 127.326 91.6697 127.46 92.0107 127.665C92.3554 127.869 92.6413 128.178 92.8686 128.591C93.0959 129.004 93.2095 129.557 93.2095 130.25V136H91.8686V134.818H91.8004C91.7095 135.008 91.558 135.21 91.3459 135.426C91.1338 135.642 90.8516 135.826 90.4993 135.977C90.147 136.129 89.7171 136.205 89.2095 136.205ZM89.4141 135C89.9444 135 90.3913 134.896 90.755 134.688C91.1224 134.479 91.3989 134.21 91.5845 133.881C91.7739 133.551 91.8686 133.205 91.8686 132.841V131.614C91.8118 131.682 91.6868 131.744 91.4936 131.801C91.3042 131.854 91.0845 131.902 90.8345 131.943C90.5883 131.981 90.3478 132.015 90.1129 132.045C89.8819 132.072 89.6944 132.095 89.5504 132.114C89.2019 132.159 88.8762 132.233 88.5732 132.335C88.2739 132.434 88.0315 132.583 87.8459 132.784C87.6641 132.981 87.5732 133.25 87.5732 133.591C87.5732 134.057 87.7455 134.409 88.0902 134.648C88.4387 134.883 88.88 135 89.4141 135ZM101.498 131.023V132.273H96.6797V131.023H101.498ZM96.9979 127.273V136H95.657V127.273H96.9979ZM102.521 127.273V136H101.18V127.273H102.521ZM103.782 128.523V127.273H110.873V128.523H108.009V136H106.668V128.523H103.782ZM114.17 134.023L118.374 127.273H119.92V136H118.579V129.25L114.397 136H112.829V127.273H114.17V134.023ZM123.717 134.023L127.921 127.273H129.467V136H128.126V129.25L123.944 136H122.376V127.273H123.717V134.023ZM127.035 124.364H128.285C128.285 124.977 128.073 125.479 127.648 125.869C127.224 126.259 126.648 126.455 125.921 126.455C125.205 126.455 124.635 126.259 124.211 125.869C123.79 125.479 123.58 124.977 123.58 124.364H124.83C124.83 124.659 124.912 124.919 125.075 125.142C125.241 125.366 125.523 125.477 125.921 125.477C126.319 125.477 126.603 125.366 126.773 125.142C126.948 124.919 127.035 124.659 127.035 124.364ZM137.763 131.023V132.273H132.945V131.023H137.763ZM133.263 127.273V136H131.923V127.273H133.263ZM138.786 127.273V136H137.445V127.273H138.786ZM144.781 136.182C143.993 136.182 143.301 135.994 142.707 135.619C142.116 135.244 141.654 134.72 141.32 134.045C140.991 133.371 140.826 132.583 140.826 131.682C140.826 130.773 140.991 129.979 141.32 129.301C141.654 128.623 142.116 128.097 142.707 127.722C143.301 127.347 143.993 127.159 144.781 127.159C145.568 127.159 146.258 127.347 146.849 127.722C147.443 128.097 147.906 128.623 148.235 129.301C148.568 129.979 148.735 130.773 148.735 131.682C148.735 132.583 148.568 133.371 148.235 134.045C147.906 134.72 147.443 135.244 146.849 135.619C146.258 135.994 145.568 136.182 144.781 136.182ZM144.781 134.977C145.379 134.977 145.871 134.824 146.258 134.517C146.644 134.21 146.93 133.807 147.116 133.307C147.301 132.807 147.394 132.265 147.394 131.682C147.394 131.098 147.301 130.555 147.116 130.051C146.93 129.547 146.644 129.14 146.258 128.83C145.871 128.519 145.379 128.364 144.781 128.364C144.182 128.364 143.69 128.519 143.303 128.83C142.917 129.14 142.631 129.547 142.445 130.051C142.26 130.555 142.167 131.098 142.167 131.682C142.167 132.265 142.26 132.807 142.445 133.307C142.631 133.807 142.917 134.21 143.303 134.517C143.69 134.824 144.182 134.977 144.781 134.977ZM154.441 136.182C153.6 136.182 152.875 135.996 152.265 135.625C151.659 135.25 151.191 134.727 150.862 134.057C150.536 133.383 150.373 132.598 150.373 131.705C150.373 130.811 150.536 130.023 150.862 129.341C151.191 128.655 151.649 128.121 152.237 127.739C152.827 127.352 153.517 127.159 154.305 127.159C154.759 127.159 155.208 127.235 155.651 127.386C156.094 127.538 156.498 127.784 156.862 128.125C157.225 128.462 157.515 128.909 157.731 129.466C157.947 130.023 158.055 130.708 158.055 131.523V132.091H151.327V130.932H156.691C156.691 130.439 156.593 130 156.396 129.614C156.202 129.227 155.926 128.922 155.566 128.699C155.21 128.475 154.79 128.364 154.305 128.364C153.771 128.364 153.308 128.496 152.918 128.761C152.532 129.023 152.235 129.364 152.026 129.784C151.818 130.205 151.714 130.655 151.714 131.136V131.909C151.714 132.568 151.827 133.127 152.055 133.585C152.286 134.04 152.606 134.386 153.015 134.625C153.424 134.86 153.899 134.977 154.441 134.977C154.793 134.977 155.112 134.928 155.396 134.83C155.683 134.727 155.932 134.576 156.14 134.375C156.348 134.17 156.509 133.917 156.623 133.614L157.918 133.977C157.782 134.417 157.553 134.803 157.231 135.136C156.909 135.466 156.511 135.723 156.038 135.909C155.564 136.091 155.032 136.182 154.441 136.182ZM58.3196 157.182C57.5317 157.182 56.8404 156.994 56.2457 156.619C55.6548 156.244 55.1927 155.72 54.8594 155.045C54.5298 154.371 54.3651 153.583 54.3651 152.682C54.3651 151.773 54.5298 150.979 54.8594 150.301C55.1927 149.623 55.6548 149.097 56.2457 148.722C56.8404 148.347 57.5317 148.159 58.3196 148.159C59.1075 148.159 59.7969 148.347 60.3878 148.722C60.9825 149.097 61.4446 149.623 61.7741 150.301C62.1075 150.979 62.2741 151.773 62.2741 152.682C62.2741 153.583 62.1075 154.371 61.7741 155.045C61.4446 155.72 60.9825 156.244 60.3878 156.619C59.7969 156.994 59.1075 157.182 58.3196 157.182ZM58.3196 155.977C58.9181 155.977 59.4105 155.824 59.7969 155.517C60.1832 155.21 60.4692 154.807 60.6548 154.307C60.8404 153.807 60.9332 153.265 60.9332 152.682C60.9332 152.098 60.8404 151.555 60.6548 151.051C60.4692 150.547 60.1832 150.14 59.7969 149.83C59.4105 149.519 58.9181 149.364 58.3196 149.364C57.7211 149.364 57.2287 149.519 56.8423 149.83C56.456 150.14 56.17 150.547 55.9844 151.051C55.7988 151.555 55.706 152.098 55.706 152.682C55.706 153.265 55.7988 153.807 55.9844 154.307C56.17 154.807 56.456 155.21 56.8423 155.517C57.2287 155.824 57.7211 155.977 58.3196 155.977ZM70.7983 145L71.4801 145.818C71.215 146.076 70.9081 146.256 70.5597 146.358C70.2112 146.46 69.8172 146.523 69.3778 146.545C68.9384 146.568 68.4498 146.591 67.9119 146.614C67.3059 146.636 66.804 146.784 66.4062 147.057C66.0085 147.33 65.7017 147.723 65.4858 148.239C65.2699 148.754 65.1316 149.386 65.071 150.136H65.1847C65.4801 149.591 65.8892 149.189 66.4119 148.932C66.9347 148.674 67.4953 148.545 68.0938 148.545C68.7756 148.545 69.3892 148.705 69.9347 149.023C70.4801 149.341 70.9119 149.812 71.2301 150.438C71.5483 151.062 71.7074 151.833 71.7074 152.75C71.7074 153.663 71.5445 154.451 71.2188 155.114C70.8968 155.777 70.4441 156.288 69.8608 156.648C69.2813 157.004 68.6013 157.182 67.821 157.182C67.0407 157.182 66.357 156.998 65.7699 156.631C65.1828 156.259 64.7263 155.71 64.4006 154.983C64.0748 154.252 63.9119 153.348 63.9119 152.273V151.341C63.9119 149.398 64.2415 147.924 64.9006 146.92C65.5634 145.917 66.5597 145.398 67.8892 145.364C68.3589 145.348 68.7775 145.345 69.1449 145.352C69.5123 145.36 69.8324 145.343 70.1051 145.301C70.3778 145.259 70.6089 145.159 70.7983 145ZM67.821 155.977C68.3475 155.977 68.8002 155.845 69.179 155.58C69.5616 155.314 69.8551 154.941 70.0597 154.46C70.2642 153.975 70.3665 153.405 70.3665 152.75C70.3665 152.114 70.2623 151.572 70.054 151.125C69.8494 150.678 69.5559 150.337 69.1733 150.102C68.7907 149.867 68.3324 149.75 67.7983 149.75C67.4081 149.75 67.0578 149.816 66.7472 149.949C66.4366 150.081 66.1714 150.277 65.9517 150.534C65.732 150.792 65.5616 151.106 65.4403 151.477C65.3229 151.848 65.2604 152.273 65.2528 152.75C65.2528 153.727 65.482 154.509 65.9403 155.097C66.3987 155.684 67.0256 155.977 67.821 155.977ZM77.304 157.182C76.4858 157.182 75.7813 156.989 75.1903 156.602C74.5994 156.216 74.1449 155.684 73.8267 155.006C73.5085 154.328 73.3494 153.553 73.3494 152.682C73.3494 151.795 73.5123 151.013 73.8381 150.335C74.1676 149.653 74.6259 149.121 75.2131 148.739C75.804 148.352 76.4934 148.159 77.2812 148.159C77.8949 148.159 78.4479 148.273 78.9403 148.5C79.4328 148.727 79.8362 149.045 80.1506 149.455C80.465 149.864 80.66 150.341 80.7358 150.886H79.3949C79.2926 150.489 79.0653 150.136 78.7131 149.83C78.3646 149.519 77.8949 149.364 77.304 149.364C76.7813 149.364 76.3229 149.5 75.929 149.773C75.5388 150.042 75.2339 150.422 75.0142 150.915C74.7983 151.403 74.6903 151.977 74.6903 152.636C74.6903 153.311 74.7964 153.898 75.0085 154.398C75.2244 154.898 75.5275 155.286 75.9176 155.562C76.3116 155.839 76.7737 155.977 77.304 155.977C77.6525 155.977 77.9688 155.917 78.2528 155.795C78.5369 155.674 78.7775 155.5 78.9744 155.273C79.1714 155.045 79.3116 154.773 79.3949 154.455H80.7358C80.66 154.97 80.4725 155.434 80.1733 155.847C79.8778 156.256 79.4858 156.581 78.9972 156.824C78.5123 157.062 77.9479 157.182 77.304 157.182ZM81.9233 157V155.75H82.2415C82.5028 155.75 82.7206 155.699 82.8949 155.597C83.0691 155.491 83.2093 155.307 83.3153 155.045C83.4252 154.78 83.5085 154.413 83.5653 153.943C83.6259 153.47 83.6695 152.867 83.696 152.136L83.8551 148.273H89.6733V157H88.3324V149.523H85.1278L84.9915 152.636C84.9612 153.352 84.8968 153.983 84.7983 154.528C84.7036 155.07 84.5578 155.525 84.3608 155.892C84.1676 156.259 83.91 156.536 83.5881 156.722C83.2661 156.907 82.8627 157 82.3778 157H81.9233ZM92.6847 160.273C92.4574 160.273 92.2547 160.254 92.0767 160.216C91.8987 160.182 91.7756 160.148 91.7074 160.114L92.0483 158.932C92.3741 159.015 92.6619 159.045 92.9119 159.023C93.1619 159 93.3835 158.888 93.5767 158.688C93.7737 158.491 93.9536 158.17 94.1165 157.727L94.3665 157.045L91.1392 148.273H92.5938L95.0028 155.227H95.0938L97.5028 148.273H98.9574L95.2528 158.273C95.0862 158.723 94.8797 159.097 94.6335 159.392C94.3873 159.691 94.1013 159.913 93.7756 160.057C93.4536 160.201 93.09 160.273 92.6847 160.273ZM100.182 157L103.727 152.568L100.227 148.273H101.818L104.727 152H105.455V148.273H106.795V152H107.5L110.409 148.273H112L108.523 152.568L112.045 157H110.432L107.477 153.25H106.795V157H105.455V153.25H104.773L101.795 157H100.182ZM115.303 155.023L119.507 148.273H121.053V157H119.712V150.25L115.53 157H113.962V148.273H115.303V155.023ZM123.509 157V148.273H127.077C128.016 148.273 128.762 148.485 129.315 148.909C129.868 149.333 130.145 149.894 130.145 150.591C130.145 151.121 129.988 151.532 129.673 151.824C129.359 152.112 128.955 152.307 128.463 152.409C128.785 152.455 129.098 152.568 129.401 152.75C129.707 152.932 129.961 153.182 130.162 153.5C130.363 153.814 130.463 154.201 130.463 154.659C130.463 155.106 130.349 155.506 130.122 155.858C129.895 156.21 129.569 156.489 129.145 156.693C128.721 156.898 128.213 157 127.622 157H123.509ZM124.781 155.773H127.622C128.084 155.773 128.446 155.663 128.707 155.443C128.969 155.223 129.099 154.924 129.099 154.545C129.099 154.095 128.969 153.741 128.707 153.483C128.446 153.222 128.084 153.091 127.622 153.091H124.781V155.773ZM124.781 151.932H127.077C127.437 151.932 127.745 151.883 128.003 151.784C128.26 151.682 128.457 151.538 128.594 151.352C128.734 151.163 128.804 150.939 128.804 150.682C128.804 150.314 128.651 150.027 128.344 149.818C128.037 149.606 127.615 149.5 127.077 149.5H124.781V151.932ZM135.061 157.205C134.508 157.205 134.006 157.1 133.555 156.892C133.105 156.68 132.747 156.375 132.482 155.977C132.216 155.576 132.084 155.091 132.084 154.523C132.084 154.023 132.182 153.617 132.379 153.307C132.576 152.992 132.839 152.746 133.169 152.568C133.499 152.39 133.862 152.258 134.26 152.17C134.661 152.08 135.065 152.008 135.47 151.955C136 151.886 136.43 151.835 136.76 151.801C137.093 151.763 137.336 151.701 137.487 151.614C137.643 151.527 137.72 151.375 137.72 151.159V151.114C137.72 150.553 137.567 150.117 137.26 149.807C136.957 149.496 136.497 149.341 135.879 149.341C135.239 149.341 134.737 149.481 134.374 149.761C134.01 150.042 133.754 150.341 133.607 150.659L132.334 150.205C132.561 149.674 132.864 149.261 133.243 148.966C133.625 148.667 134.042 148.458 134.493 148.341C134.947 148.22 135.394 148.159 135.834 148.159C136.114 148.159 136.436 148.193 136.8 148.261C137.167 148.326 137.521 148.46 137.862 148.665C138.207 148.869 138.493 149.178 138.72 149.591C138.947 150.004 139.061 150.557 139.061 151.25V157H137.72V155.818H137.652C137.561 156.008 137.41 156.21 137.197 156.426C136.985 156.642 136.703 156.826 136.351 156.977C135.999 157.129 135.569 157.205 135.061 157.205ZM135.266 156C135.796 156 136.243 155.896 136.607 155.688C136.974 155.479 137.25 155.21 137.436 154.881C137.625 154.551 137.72 154.205 137.72 153.841V152.614C137.663 152.682 137.538 152.744 137.345 152.801C137.156 152.854 136.936 152.902 136.686 152.943C136.44 152.981 136.199 153.015 135.964 153.045C135.733 153.072 135.546 153.095 135.402 153.114C135.054 153.159 134.728 153.233 134.425 153.335C134.125 153.434 133.883 153.583 133.697 153.784C133.516 153.981 133.425 154.25 133.425 154.591C133.425 155.057 133.597 155.409 133.942 155.648C134.29 155.883 134.732 156 135.266 156ZM147.349 152.023V153.273H142.531V152.023H147.349ZM142.849 148.273V157H141.509V148.273H142.849ZM148.372 148.273V157H147.031V148.273H148.372ZM152.162 155.023L156.366 148.273H157.912V157H156.571V150.25L152.389 157H150.821V148.273H152.162V155.023ZM164.027 157.182C163.186 157.182 162.461 156.996 161.851 156.625C161.245 156.25 160.777 155.727 160.447 155.057C160.122 154.383 159.959 153.598 159.959 152.705C159.959 151.811 160.122 151.023 160.447 150.341C160.777 149.655 161.235 149.121 161.822 148.739C162.413 148.352 163.103 148.159 163.891 148.159C164.345 148.159 164.794 148.235 165.237 148.386C165.68 148.538 166.084 148.784 166.447 149.125C166.811 149.462 167.101 149.909 167.317 150.466C167.533 151.023 167.641 151.708 167.641 152.523V153.091H160.913V151.932H166.277C166.277 151.439 166.179 151 165.982 150.614C165.788 150.227 165.512 149.922 165.152 149.699C164.796 149.475 164.375 149.364 163.891 149.364C163.357 149.364 162.894 149.496 162.504 149.761C162.118 150.023 161.821 150.364 161.612 150.784C161.404 151.205 161.3 151.655 161.3 152.136V152.909C161.3 153.568 161.413 154.127 161.641 154.585C161.872 155.04 162.192 155.386 162.601 155.625C163.01 155.86 163.485 155.977 164.027 155.977C164.379 155.977 164.697 155.928 164.982 155.83C165.269 155.727 165.518 155.576 165.726 155.375C165.934 155.17 166.095 154.917 166.209 154.614L167.504 154.977C167.368 155.417 167.139 155.803 166.817 156.136C166.495 156.466 166.097 156.723 165.624 156.909C165.15 157.091 164.618 157.182 164.027 157.182Z" fill="#292929"/>
</svg>
