<svg width="9" height="8" viewBox="0 0 9 8" fill="none" xmlns="http://10www.w3.org/2000/svg">
<path d="M8.11045 1.57572L5.68649 3.99992L8.11045 6.42402C8.471 6.78471 8.471 7.36897 8.11045 7.72966C7.9303 7.90981 7.69411 7.99996 7.45804 7.99996C7.22157 7.99996 6.98536 7.90995 6.80535 7.72966L4.38087 5.30529L1.95657 7.72964C1.77645 7.90979 1.54024 7.99993 1.30396 7.99993C1.06775 7.99993 0.831697 7.90993 0.65141 7.72964C0.290859 7.36911 0.290859 6.78482 0.65141 6.424L3.07529 3.9999L0.651273 1.57572C0.290722 1.21516 0.290722 0.630758 0.651273 0.270207C1.01175 -0.090069 1.59582 -0.090069 1.95644 0.270207L4.38085 2.69442L6.80508 0.270207C7.16577 -0.090069 7.7499 -0.090069 8.11031 0.270207C8.471 0.630758 8.471 1.21516 8.11045 1.57572Z" fill="#909CB5"/>
</svg>
