<svg width="24" height="24" viewBox="0 0 24 24" fill="none" xmlns="http://www.w3.org/2000/svg">
<g opacity="0.5">
<path d="M16 12C16 14.2091 14.2091 16 12 16C9.79086 16 8 14.2091 8 12C8 9.79086 9.79086 8 12 8C14.2091 8 16 9.79086 16 12ZM10.1746 12C10.1746 13.0082 10.9918 13.8254 12 13.8254C13.0082 13.8254 13.8254 13.0082 13.8254 12C13.8254 10.9918 13.0082 10.1746 12 10.1746C10.9918 10.1746 10.1746 10.9918 10.1746 12Z" fill="#384255"/>
<path d="M21.1756 10.7833C12.8982 0.582991 5.73252 6.01097 2.59197 10.8567C2.20364 11.4558 2.22681 12.2321 2.62081 12.8276C9.9085 23.8414 17.6177 18.1336 21.2639 12.9693C21.7326 12.3054 21.6876 11.4143 21.1756 10.7833Z" stroke="#384255" stroke-width="2"/>
</g>
</svg>
