<svg width="24" height="24" viewBox="0 0 24 24" fill="none" xmlns="http://www.w3.org/2000/svg">
<path d="M0.266401 23.6668L1.84373 17.8708C0.804395 16.0892 0.258346 14.0628 0.261734 12.0002C0.261734 5.55666 5.4849 0.333496 11.9284 0.333496C18.3719 0.333496 23.5951 5.55666 23.5951 12.0002C23.5951 18.4437 18.3719 23.6668 11.9284 23.6668C9.86664 23.6702 7.84117 23.1245 6.06007 22.086L0.266401 23.6668ZM7.7179 6.52616C7.56724 6.53552 7.42002 6.5752 7.28507 6.64283C7.15851 6.7145 7.04298 6.80409 6.94207 6.90883C6.80207 7.04066 6.72273 7.155 6.63757 7.26583C6.20638 7.82699 5.97445 8.51582 5.9784 9.2235C5.98073 9.79516 6.13007 10.3517 6.3634 10.872C6.84057 11.9243 7.62573 13.0385 8.6629 14.071C8.91257 14.3195 9.1564 14.5692 9.4189 14.8013C10.7062 15.9347 12.2402 16.752 13.8989 17.1883L14.5627 17.2898C14.7786 17.3015 14.9944 17.2852 15.2114 17.2747C15.5512 17.2571 15.883 17.1651 16.1832 17.0052C16.3769 16.9025 16.4679 16.8512 16.6301 16.7485C16.6301 16.7485 16.6802 16.7158 16.7759 16.6435C16.9334 16.5268 17.0302 16.444 17.1609 16.3075C17.2577 16.2072 17.3417 16.0893 17.4059 15.9552C17.4969 15.765 17.5879 15.4022 17.6252 15.1C17.6532 14.869 17.6451 14.743 17.6416 14.6648C17.6369 14.54 17.5331 14.4105 17.4199 14.3557L16.7409 14.0512C16.7409 14.0512 15.7259 13.609 15.1064 13.3267C15.0411 13.2982 14.9711 13.282 14.8999 13.2788C14.8201 13.2706 14.7394 13.2796 14.6634 13.3052C14.5873 13.3307 14.5176 13.3723 14.4589 13.427V13.4247C14.4531 13.4247 14.3749 13.4912 13.5314 14.5132C13.483 14.5782 13.4163 14.6274 13.3398 14.6544C13.2634 14.6814 13.1806 14.685 13.1021 14.6648C13.026 14.6445 12.9516 14.6188 12.8792 14.5878C12.7346 14.5272 12.6844 14.5038 12.5852 14.4607L12.5794 14.4583C11.912 14.1669 11.294 13.7733 10.7477 13.2917C10.6007 13.1633 10.4642 13.0233 10.3242 12.888C9.86524 12.4484 9.46523 11.9512 9.13423 11.4087L9.0654 11.2978C9.01596 11.2234 8.97599 11.143 8.9464 11.0587C8.90207 10.8872 9.01757 10.7495 9.01757 10.7495C9.01757 10.7495 9.30107 10.4392 9.4329 10.2712C9.54267 10.1315 9.64509 9.98629 9.73973 9.836C9.8774 9.61433 9.92057 9.38683 9.84823 9.21066C9.52157 8.41266 9.18323 7.61816 8.83557 6.8295C8.76673 6.67316 8.56257 6.56116 8.37707 6.539C8.31407 6.532 8.25107 6.525 8.18807 6.52033C8.03139 6.51255 7.87439 6.5141 7.7179 6.525V6.52616Z" fill="white"/>
</svg>
