<svg width="18" height="18" viewBox="0 0 18 18" fill="none" xmlns="http://www.w3.org/2000/svg">
<path d="M13.158 6.27268L10.4311 8.99991L13.158 11.727C13.5636 12.1328 13.5636 12.7901 13.158 13.1959C12.9554 13.3985 12.6896 13.5 12.4241 13.5C12.158 13.5 11.8923 13.3987 11.6898 13.1959L8.96225 10.4685L6.23491 13.1958C6.03227 13.3985 5.76653 13.4999 5.50072 13.4999C5.23498 13.4999 4.96943 13.3987 4.7666 13.1958C4.36098 12.7903 4.36098 12.1329 4.7666 11.727L7.49347 8.99989L4.76645 6.27268C4.36083 5.86706 4.36083 5.2096 4.76645 4.80398C5.17199 4.39867 5.82906 4.39867 6.23476 4.80398L8.96222 7.53122L11.6895 4.80398C12.0953 4.39867 12.7524 4.39867 13.1579 4.80398C13.5636 5.2096 13.5636 5.86706 13.158 6.27268Z" fill="#909CB5"/>
<rect x="0.5625" y="0.5625" width="16.875" height="16.8751" rx="8.4375" stroke="#909CB5" stroke-opacity="0.3" stroke-width="1.125"/>
</svg>
